<svg width="500" height="402" viewBox="0 0 500 402" fill="none" xmlns="http://www.w3.org/2000/svg">
<path d="M20.2351 43.0066L22.0674 9.39904L23.8998 43.0066L34.8935 146.718H10.0267L20.2351 43.0066ZM39.6051 192.141H44.5784L24.4233 6.77344H19.4499L0.341736 192.141H5.57685L9.50321 151.181H35.417L39.6051 192.141Z" fill="#B2D530"/>
<path d="M65.022 192.141V0.472168H60.3104V192.141H65.022Z" fill="#B2D530"/>
<path d="M91.862 192.141V0.472168H87.1504V192.141H91.862Z" fill="#B2D530"/>
<path d="M164.87 187.677H163.561C151.52 187.677 149.688 184.789 149.688 165.885V46.9453H165.132V42.7443H149.688V19.3765H146.286C146.286 26.2031 146.023 32.767 145.762 36.1803C144.976 42.7443 144.715 43.0068 140.789 43.2694L134.768 43.532V46.9453H144.715V165.885C144.715 188.465 147.594 192.141 163.038 192.141H164.87V187.677Z" fill="#B2D530"/>
<path d="M183.375 192.141V76.8769C183.375 55.347 187.039 47.4701 201.698 47.4701H202.745V42.7441H201.698C189.918 42.7441 184.945 47.7327 182.851 57.9725L182.066 42.7441H178.401V192.141H183.375Z" fill="#B2D530"/>
<path d="M247.942 192.141H251.607V42.7441H246.633V159.058C246.633 179.801 242.445 188.989 232.498 188.989C223.599 188.989 219.149 183.213 219.149 165.622V42.7441H214.176V166.147C214.176 185.577 219.673 193.453 232.498 193.453C239.827 193.453 244.801 188.465 247.157 178.487L247.942 192.141Z" fill="#B2D530"/>
<path d="M293.958 187.677H292.649C280.608 187.677 278.776 184.789 278.776 165.885V46.9453H294.22V42.7443H278.776V19.3765H275.374C275.374 26.2031 275.111 32.767 274.85 36.1803C274.064 42.7443 273.803 43.0068 269.877 43.2694L263.856 43.532V46.9453H273.803V165.885C273.803 188.465 276.682 192.141 292.126 192.141H293.958V187.677Z" fill="#B2D530"/>
<path d="M311.951 75.8267C311.951 57.7101 315.355 45.8949 327.657 45.8949C336.818 45.8949 341.007 51.6713 341.007 69.0002V192.141H345.98V68.7376C345.98 49.3082 340.745 41.4315 327.657 41.4315C320.066 41.4315 314.831 45.8949 311.951 54.822V0.472168H306.978V192.141H311.951V75.8267Z" fill="#B2D530"/>
<path d="M376.223 103.133C379.626 103.133 380.935 101.032 380.935 96.0432C380.935 91.0549 379.626 88.9546 376.485 88.9546C373.344 88.9546 371.512 91.0549 371.512 96.0432C371.512 101.032 373.083 103.133 376.223 103.133ZM373.606 211.832C377.794 206.319 381.196 199.229 381.196 189.252C381.196 181.113 379.626 178.749 375.962 178.749C372.82 178.749 371.512 181.375 371.512 186.627C371.512 191.878 373.344 193.453 375.176 193.453C376.223 193.453 377.009 192.141 377.533 190.04C377.533 198.704 374.391 204.743 370.988 209.47L373.606 211.832Z" fill="#B2D530"/>
<path d="M12.3824 272.604L10.5501 224.556L17.8792 261.314L50.5987 400.471H55.0485V215.103H50.0751V348.221L51.9074 391.281L44.3165 355.573L11.5971 215.103H7.409V400.471H12.3824V272.604Z" fill="#B2D530"/>
<path d="M94.7504 401.783C106.53 401.783 114.906 393.645 114.906 378.678V272.867C114.906 257.9 106.53 249.762 94.7504 249.762C83.2327 249.762 74.8569 257.376 74.8569 272.867V378.678C74.8569 394.432 82.9712 401.783 94.7504 401.783ZM94.7504 397.32C84.542 397.32 79.8304 389.181 79.8304 378.678V272.604C79.8304 261.839 84.8035 254.225 94.7504 254.225C104.959 254.225 109.932 262.364 109.932 272.604V378.678C109.932 389.443 105.22 397.32 94.7504 397.32Z" fill="#B2D530"/>
<path d="M185.545 401.783C197.323 401.783 205.176 394.694 205.176 371.851V279.431C205.176 260.001 199.418 249.762 186.068 249.762C177.43 249.762 171.672 254.75 169.316 264.99V208.802H164.604V400.471H168.53L169.054 387.08C171.41 396.795 176.906 401.783 185.545 401.783ZM185.545 397.319C173.766 397.319 169.316 386.029 169.316 369.489V281.006C169.316 266.565 174.027 254.225 185.806 254.225C195.753 254.225 200.203 262.889 200.203 279.431V370.014C200.203 390.755 194.706 397.319 185.545 397.319Z" fill="#B2D530"/>
<path d="M258.934 400.471H262.598V251.074H257.625V367.388C257.625 388.131 253.437 397.32 243.491 397.32C234.591 397.32 230.141 391.544 230.141 373.952V251.074H225.167V374.477C225.167 393.907 230.664 401.783 243.491 401.783C250.82 401.783 255.793 396.795 258.148 386.818L258.934 400.471Z" fill="#B2D530"/>
<path d="M288.946 400.471V208.802H284.234V400.471H288.946Z" fill="#B2D530"/>
<path d="M315.786 400.471V208.802H311.075V400.471H315.786Z" fill="#B2D530"/>
<path d="M353.638 401.783C365.418 401.783 372.484 394.695 372.484 381.041V347.696C372.484 332.205 364.371 326.954 355.732 321.703C347.88 316.451 340.551 312.251 340.551 299.648V270.766C340.551 261.052 343.691 254.225 353.638 254.225C363.324 254.225 366.726 261.839 366.988 271.029V303.323H371.961V271.291C371.7 257.376 365.418 249.762 353.638 249.762C342.383 249.762 335.577 256.85 335.577 271.029V299.648C335.577 314.614 343.691 319.865 351.806 324.853C360.706 330.367 367.773 334.831 367.773 347.696V381.041C367.773 390.493 363.847 397.32 353.638 397.32C344.215 397.32 340.289 389.706 340.027 380.254V343.496H335.054V380.254C335.315 395.219 342.383 401.783 353.638 401.783Z" fill="#B2D530"/>
<path d="M396.562 284.157C396.562 266.04 399.965 254.225 412.268 254.225C421.429 254.225 425.617 260.001 425.617 277.33V400.471H430.591V277.067C430.591 257.638 425.355 249.762 412.268 249.762C404.677 249.762 399.441 254.225 396.562 263.152V208.802H391.589V400.471H396.562V284.157Z" fill="#B2D530"/>
<path d="M453.766 235.583C456.383 235.583 457.954 233.483 457.954 229.019C457.954 224.556 456.645 222.455 454.027 222.455C451.41 222.455 449.84 224.556 449.84 229.019C449.84 233.483 451.148 235.583 453.766 235.583ZM456.122 400.471V250.55H451.41V400.471H456.122Z" fill="#B2D530"/>
<path d="M499.733 396.007H498.424C486.383 396.007 484.552 393.119 484.552 374.215V255.276H499.995V251.074H484.552V227.707H481.149C481.149 234.533 480.887 241.097 480.625 244.51C479.839 251.074 479.578 251.337 475.652 251.6L469.631 251.862V255.276H479.578V374.215C479.578 396.795 482.457 400.471 497.901 400.471H499.733V396.007Z" fill="#B2D530"/>
</svg>
