<svg width="308" height="129" viewBox="0 0 308 129" fill="none" xmlns="http://www.w3.org/2000/svg">
<path d="M138.462 127.75L2.00576 127.75L70.2337 9.63423L138.462 127.75Z" stroke="#B2D530" stroke-width="2.37336"/>
<path d="M78.066 81.0217L73.4274 77.0449L45.1424 110.018L49.7811 113.995L78.066 81.0217Z" stroke="#0A2133" stroke-width="2.37336" stroke-miterlimit="10" stroke-linecap="round" stroke-linejoin="round"/>
<path d="M86.1121 71.4721L81.8784 67.751L79.7672 70.2231L84.0008 73.9443L86.1121 71.4721Z" stroke="#0A2133" stroke-width="2.37336" stroke-miterlimit="10" stroke-linecap="round" stroke-linejoin="round"/>
<path d="M86.5789 77.0301L76.3328 68.0244L71.2634 73.9604L81.5096 82.9661L86.5789 77.0301Z" stroke="#0A2133" stroke-width="2.37336" stroke-miterlimit="10" stroke-linecap="round" stroke-linejoin="round"/>
<path d="M72.4691 74.4228C66.0658 68.7198 59.6198 64.1825 53.6874 61.0205C60.1553 61.1172 68.0444 64.3828 75.6248 70.36" stroke="#0A2133" stroke-width="2.37336" stroke-miterlimit="10" stroke-linecap="round" stroke-linejoin="round"/>
<path d="M85.2722 77.0179C91.5153 84.6845 95.4145 93.1152 96.3032 100.28C92.8458 94.0221 88.0765 87.3491 82.2809 80.8568" stroke="#0A2133" stroke-width="2.37336" stroke-miterlimit="10" stroke-linecap="round" stroke-linejoin="round"/>
<path d="M305.136 127.75L168.68 127.75L236.908 9.63423L305.136 127.75Z" stroke="#B2D530" stroke-width="2.37336"/>
<path d="M210.99 76.64C210.99 74.446 213.971 72.493 216.326 72.493H253.324C252.367 73.6616 251.845 75.1275 251.846 76.64V117.097H254.249V76.64C254.249 75.5401 254.685 74.4854 255.46 73.7076C256.235 72.9299 257.287 72.493 258.383 72.493H259.729C260.825 72.493 261.877 72.9299 262.652 73.7076C263.427 74.4854 263.862 75.5401 263.862 76.64V95.3976H266.266V87.9958V78.6893V76.64C266.263 74.9017 265.573 73.2355 264.348 72.0063C263.122 70.7772 261.462 70.0852 259.729 70.082H231.635H222.358H216.35C212.745 70.082 208.611 72.9511 208.611 76.64V118.302H211.014L210.99 76.64Z" fill="#0A2133"/>
<path d="M266.265 98.3857H264.169V102.579H266.265V98.3857Z" fill="#0A2133"/>
<path d="M266.265 106.771H264.169V109.916H266.265V106.771Z" fill="#0A2133"/>
<path d="M247.396 89.999H232.72" stroke="#0A2133" stroke-width="2.35326"/>
<path d="M247.396 107.819H232.72" stroke="#0A2133" stroke-width="2.35326"/>
<path d="M243.203 84.7578L232.721 84.7578" stroke="#0A2133" stroke-width="2.35326"/>
<path d="M243.203 102.578L232.721 102.578" stroke="#0A2133" stroke-width="2.35326"/>
<path d="M226.432 89.2653V92.0955H216.997V82.6611H224.545" stroke="#0A2133" stroke-width="2.35326"/>
<path d="M226.432 99.5V109.917H216.997V100.482H226.432" stroke="#0A2133" stroke-width="2.35326"/>
<path d="M219.093 85.8061L221.19 89.9992L232.72 79.5166" stroke="#0A2133" stroke-width="2.35326"/>
<path d="M221.282 1.18669L85.8597 1.18668L153.571 119.289L221.282 1.18669Z" stroke="#B2D530" stroke-width="2.37336"/>
<path fill-rule="evenodd" clip-rule="evenodd" d="M176.883 47.4013L170.55 58.3904L170.838 58.6746C172 59.8176 172.683 61.3916 172.683 63.0506C172.683 66.4342 169.934 69.1865 166.559 69.1865C163.71 69.1865 161.312 67.2212 160.635 64.57L160.534 64.1756L147.657 64.1756L147.556 64.5699C146.878 67.2212 144.479 69.1865 141.63 69.1865C138.255 69.1865 135.507 66.4342 135.507 63.0506C135.507 61.3916 136.19 59.8176 137.351 58.6746L137.64 58.3904L131.289 47.3694L130.933 47.4261C130.863 47.4371 130.802 47.4477 130.746 47.4574C130.616 47.4799 130.512 47.4979 130.398 47.5057L130.378 47.5071L130.358 47.5099C130.215 47.5307 130.105 47.5411 129.997 47.5411C126.622 47.5411 123.873 44.7888 123.873 41.4052C123.873 38.0215 126.622 35.2692 129.997 35.2692C130.106 35.2692 130.218 35.28 130.347 35.2971L130.363 35.2993L130.379 35.3004C130.498 35.3087 130.604 35.327 130.735 35.3499C130.794 35.3603 130.859 35.3717 130.934 35.3834L131.29 35.4399L137.64 24.4199L137.351 24.1357C136.19 22.9928 135.507 21.4188 135.507 19.7598C135.507 16.3761 138.255 13.6238 141.63 13.6238C144.479 13.6238 146.878 15.5892 147.556 18.2405L147.657 18.6347L160.533 18.6347L160.634 18.2405C161.312 15.5892 163.711 13.6238 166.559 13.6238C169.934 13.6238 172.683 16.3761 172.683 19.7598C172.683 21.4188 172 22.9927 170.838 24.1356L170.549 24.4198L176.882 35.4089L177.239 35.3516C177.561 35.3 177.878 35.2692 178.193 35.2692C178.302 35.2692 178.413 35.28 178.538 35.2975L178.557 35.3001L178.576 35.3013C181.804 35.517 184.316 38.199 184.316 41.4052C184.316 44.6123 181.803 47.2932 178.594 47.5057L178.574 47.507L178.554 47.5099C178.411 47.5307 178.3 47.5411 178.193 47.5411C177.878 47.5411 177.561 47.5103 177.24 47.4587L176.883 47.4013ZM148.072 42.5461L136.013 42.5461L135.911 42.9392C135.575 44.2428 134.83 45.3897 133.772 46.2121L133.412 46.4922L139.611 57.2498L140.003 57.141C140.534 56.9932 141.081 56.9146 141.63 56.9146C142.191 56.9146 142.736 56.9969 143.258 57.1418L143.649 57.2506L150.096 46.0628L149.807 45.7786C149.027 45.0106 148.456 44.0336 148.173 42.9391L148.072 42.5461ZM139.611 25.5605L133.412 36.3183L133.772 36.5984C134.829 37.4199 135.575 38.5675 135.911 39.8704L136.013 40.2635L148.072 40.2635L148.173 39.8704C148.456 38.7759 149.027 37.7989 149.807 37.0309L150.096 36.7467L143.649 25.5585L143.257 25.6678C142.735 25.8135 142.191 25.8958 141.63 25.8958C141.081 25.8958 140.534 25.8172 140.003 25.6693L139.611 25.5605ZM160.643 21.3081L160.541 20.9165L147.648 20.9174L147.546 21.3089C147.261 22.399 146.689 23.373 145.911 24.1379L145.621 24.4221L152.068 35.6083L152.46 35.4988C152.984 35.3523 153.531 35.2692 154.095 35.2692C154.659 35.2692 155.205 35.3523 155.73 35.4988L156.122 35.6083L162.568 24.4221L162.279 24.1379C161.499 23.3722 160.928 22.3981 160.643 21.3081ZM160.118 40.2643L172.177 40.2643L172.278 39.8699C172.612 38.5623 173.357 37.4112 174.413 36.5847L174.771 36.3043L168.579 25.5605L168.187 25.6693C167.655 25.8172 167.108 25.8958 166.559 25.8958C165.999 25.8958 165.454 25.8135 164.932 25.6685L164.541 25.5597L158.094 36.7475L158.382 37.0318C159.163 37.7997 159.734 38.7767 160.017 39.8712L160.118 40.2643ZM168.579 57.2498L174.771 46.506L174.413 46.2257C173.357 45.3991 172.612 44.248 172.278 42.9412L172.177 42.5469L160.118 42.5469L160.017 42.9399C159.734 44.0344 159.163 45.0114 158.382 45.7795L158.094 46.0637L164.541 57.2518L164.933 57.1425C165.455 56.9968 165.999 56.9146 166.559 56.9146C167.108 56.9146 167.655 56.9932 168.187 57.141L168.579 57.2498ZM152.068 47.202L145.621 58.3883L145.911 58.6725C146.69 59.4382 147.262 60.4123 147.547 61.5015L147.649 61.893L160.542 61.893L160.644 61.5014C160.929 60.4113 161.5 59.4373 162.279 58.6725L162.568 58.3883L156.122 47.202L155.73 47.3116C155.205 47.4581 154.659 47.5411 154.095 47.5411C153.531 47.5411 152.984 47.4581 152.46 47.3116L152.068 47.202ZM162.711 63.0805L162.711 63.0853C162.731 65.1939 164.448 66.9047 166.559 66.9047C168.683 66.9047 170.407 65.1756 170.407 63.0506C170.407 61.6784 169.667 60.4004 168.475 59.712C167.892 59.375 167.23 59.1963 166.559 59.1963C164.443 59.1963 162.719 60.9204 162.712 63.038L162.712 63.05C162.712 63.0573 162.711 63.0685 162.711 63.0805ZM178.193 45.2594L178.265 45.2594L178.329 45.2415C178.334 45.2406 178.342 45.2392 178.354 45.2376C178.362 45.2367 178.369 45.2358 178.378 45.2349C178.387 45.2339 178.397 45.2329 178.408 45.232C178.415 45.2314 178.422 45.2308 178.429 45.2302L178.446 45.229C180.46 45.095 182.041 43.4195 182.041 41.4052C182.041 39.3909 180.46 37.7154 178.446 37.5813C178.376 37.5766 178.306 37.5684 178.228 37.5576L178.194 37.5528L178.159 37.5527C177.705 37.5507 177.225 37.6452 176.771 37.8265C175.298 38.4145 174.345 39.82 174.345 41.4052C174.345 42.9903 175.299 44.3959 176.771 44.9839C177.228 45.1663 177.707 45.2594 178.193 45.2594ZM162.712 19.7756L162.712 19.7773C162.719 21.8905 164.444 23.614 166.559 23.614C167.23 23.614 167.892 23.4353 168.475 23.0983C169.667 22.41 170.407 21.1319 170.407 19.7598C170.407 17.6347 168.683 15.9056 166.559 15.9056C164.447 15.9056 162.731 17.6165 162.711 19.7251L162.711 19.7412L162.712 19.7572L162.712 19.7602L162.712 19.7756ZM145.478 63.0502L145.478 63.0331C145.471 60.9199 143.746 59.1963 141.63 59.1963C140.96 59.1963 140.298 59.375 139.715 59.712C138.523 60.4004 137.782 61.6784 137.782 63.0506C137.782 65.1756 139.507 66.9047 141.63 66.9047C143.743 66.9047 145.459 65.1939 145.478 63.0853L145.479 63.0691L145.478 63.0533L145.478 63.0502ZM154.095 37.551C151.971 37.551 150.247 39.2801 150.247 41.4052C150.247 43.5302 151.971 45.2594 154.095 45.2594C156.218 45.2594 157.943 43.5302 157.943 41.4052C157.943 39.2801 156.218 37.551 154.095 37.551ZM130.001 37.5508C127.878 37.5508 126.153 39.2799 126.153 41.405C126.153 43.53 127.878 45.2592 130.001 45.2592C132.125 45.2592 133.849 43.53 133.849 41.405C133.849 39.2799 132.125 37.5508 130.001 37.5508ZM137.781 19.7584C137.781 17.6333 139.506 15.9042 141.629 15.9042C143.753 15.9042 145.477 17.6333 145.477 19.7584C145.477 21.8835 143.753 23.6126 141.629 23.6126C139.506 23.6126 137.781 21.8835 137.781 19.7584Z" fill="#0A2133"/>
</svg>
