<svg width="1025" height="499" viewBox="0 0 1025 499" fill="none" xmlns="http://www.w3.org/2000/svg">
<path d="M297.486 423.328L593.813 249.019" stroke="#FFFF33" stroke-width="1.1586" stroke-dasharray="5.79 5.79"/>
<path d="M593.813 249.019L297.486 74.709" stroke="#FFFF33" stroke-width="1.1586" stroke-dasharray="5.93 5.93"/>
<path d="M297.33 74.7078L1.00343 249.018" stroke="#FFFF33" stroke-width="1.1586" stroke-dasharray="5.79 5.79"/>
<path d="M1.00003 249.018L297.327 423.328" stroke="#FFFF33" stroke-width="1.1586" stroke-dasharray="5.79 5.79"/>
<path d="M294.988 233.558V96.6892L413.461 165.124L294.988 233.558Z" stroke="#B2D530" stroke-width="2.37336"/>
<path d="M340.714 158.946L335.963 155.898L313.052 193.529L317.802 196.577L340.714 158.946Z" stroke="#0A2133" stroke-width="2.37336" stroke-miterlimit="10" stroke-linecap="round" stroke-linejoin="round"/>
<path d="M347.132 148.314L342.536 145.379L340.705 148.306L345.301 151.24L347.132 148.314Z" stroke="#0A2133" stroke-width="2.37336" stroke-miterlimit="10" stroke-linecap="round" stroke-linejoin="round"/>
<path d="M348.473 153.61L337.345 146.505L332.949 153.533L344.076 160.638L348.473 153.61Z" stroke="#0A2133" stroke-width="2.37336" stroke-miterlimit="10" stroke-linecap="round" stroke-linejoin="round"/>
<path d="M333.846 153.187C326.804 148.934 319.83 145.832 313.51 143.969C320.079 142.72 328.394 144.279 336.656 148.555" stroke="#0A2133" stroke-width="2.37336" stroke-miterlimit="10" stroke-linecap="round" stroke-linejoin="round"/>
<path d="M347.723 154.086C355.201 160.389 360.223 167.975 361.875 174.959C357.539 169.452 351.748 163.819 344.867 158.594" stroke="#0A2133" stroke-width="2.37336" stroke-miterlimit="10" stroke-linecap="round" stroke-linejoin="round"/>
<path d="M294.988 400.722V263.853L413.461 332.288L294.988 400.722Z" stroke="#B2D530" stroke-width="2.37336"/>
<path d="M306.701 316.786C306.701 314.586 309.69 312.627 312.052 312.627H349.159C348.199 313.799 347.675 315.269 347.677 316.786V357.362H350.087V316.786C350.087 315.683 350.524 314.625 351.301 313.845C352.079 313.065 353.133 312.627 354.233 312.627H355.583C356.682 312.627 357.737 313.065 358.514 313.845C359.292 314.625 359.728 315.683 359.728 316.786V335.599H362.139V328.175V318.842V316.786C362.136 315.043 361.444 313.372 360.215 312.139C358.986 310.906 357.32 310.212 355.583 310.209H327.406H318.102H312.076C308.461 310.209 304.315 313.087 304.315 316.786V358.571H306.725L306.701 316.786Z" fill="#0A2133"/>
<path d="M362.138 338.596H360.036V342.801H362.138V338.596Z" fill="#0A2133"/>
<path d="M362.138 347.006H360.036V350.16H362.138V347.006Z" fill="#0A2133"/>
<path d="M306.417 373.29H304.315V377.495H306.417V373.29Z" fill="#0A2133"/>
<path d="M306.417 360.674H304.315V366.982H306.417V360.674Z" fill="#0A2133"/>
<path d="M343.214 330.185H328.495" stroke="#0A2133" stroke-width="2.35326"/>
<path d="M343.214 348.058H328.495" stroke="#0A2133" stroke-width="2.35326"/>
<path d="M343.214 365.931H328.495" stroke="#0A2133" stroke-width="2.35326"/>
<path d="M339.009 324.928L328.495 324.928" stroke="#0A2133" stroke-width="2.35326"/>
<path d="M339.009 342.801L328.495 342.801" stroke="#0A2133" stroke-width="2.35326"/>
<path d="M339.009 360.674L328.495 360.674" stroke="#0A2133" stroke-width="2.35326"/>
<path d="M322.187 329.449V332.287H312.725V322.825H320.295" stroke="#0A2133" stroke-width="2.35326"/>
<path d="M322.187 347.322V350.16H312.725V340.698H320.295" stroke="#0A2133" stroke-width="2.35326"/>
<path d="M322.187 357.52V368.033H312.725V357.52H322.187Z" stroke="#0A2133" stroke-width="2.35326"/>
<path d="M314.827 325.979L316.93 330.184L328.495 319.671" stroke="#0A2133" stroke-width="2.35326"/>
<path d="M314.827 343.221L316.93 347.006L328.495 337.544" stroke="#0A2133" stroke-width="2.35326"/>
<path d="M240.598 176.12H240.868L246.52 164.978V175.922H248.212V163.322H245.584L240.742 173.006L235.882 163.322H233.308V175.922H234.946V165.068L240.598 176.12ZM253.582 163.7C253.582 163.088 253.096 162.584 252.466 162.584C251.836 162.584 251.35 163.088 251.35 163.7C251.35 164.312 251.836 164.816 252.466 164.816C253.096 164.816 253.582 164.312 253.582 163.7ZM251.656 175.922H253.276V166.922H251.656V175.922ZM260.791 168.2C262.033 168.2 262.789 169.01 262.789 170.414V175.922H264.409V170.252C264.409 168.02 263.059 166.742 261.241 166.742C259.963 166.742 259.027 167.336 258.037 168.614V166.778L256.417 167.138V175.922H258.037V169.82C259.135 168.614 259.873 168.2 260.791 168.2ZM270.862 168.092C272.374 168.092 273.238 169.226 273.382 170.846H268.162C268.306 169.316 269.332 168.092 270.862 168.092ZM274.156 175.328L274.732 173.582L274.678 173.546C273.724 174.158 272.518 174.644 271.366 174.644C269.674 174.644 268.45 173.744 268.198 172.052H274.966C275.002 171.872 275.02 171.512 275.02 171.332C275.02 168.938 273.706 166.67 270.916 166.67C268.288 166.67 266.524 168.938 266.524 171.422C266.524 174.23 268.288 176.12 271.186 176.12C272.428 176.12 273.274 175.814 274.156 175.328ZM222.679 198.138C224.569 198.138 225.991 197.418 227.125 196.518L227.377 194.502L227.341 194.466C226.045 195.708 224.515 196.518 222.787 196.518C220.429 196.518 218.179 194.592 218.179 191.568C218.179 188.85 220.339 186.726 222.841 186.726C224.587 186.726 225.973 187.644 227.107 188.778H227.143V186.672C226.189 185.826 224.821 185.106 222.931 185.106C219.403 185.106 216.397 187.86 216.397 191.622C216.397 195.582 219.259 198.138 222.679 198.138ZM231.529 197.922V192.162C232.681 191.136 233.671 190.506 234.877 190.506C235.057 190.506 235.201 190.524 235.363 190.56L235.237 188.85C235.003 188.796 234.877 188.778 234.661 188.778C233.509 188.778 232.753 189.534 231.529 191.064V188.778L229.909 189.138V197.922H231.529ZM238.046 201.414C239.504 201.414 240.512 200.478 241.178 198.894L245.336 188.922H243.572L240.908 195.564L238.064 188.922H236.264L240.08 197.418L239.684 198.336C239.198 199.47 238.586 199.884 237.776 199.884C237.2 199.884 236.732 199.704 236.246 199.398L236.192 199.434L236.516 201.072C236.93 201.27 237.416 201.414 238.046 201.414ZM251.291 196.626C250.427 196.626 249.689 196.392 248.861 195.852V191.334C249.815 190.542 250.607 190.2 251.543 190.2C253.073 190.2 254.405 191.388 254.405 193.368C254.405 195.276 253.055 196.626 251.291 196.626ZM251.561 198.066C253.811 198.066 256.079 196.248 256.079 193.242C256.079 190.596 254.207 188.742 251.975 188.742C250.751 188.742 249.833 189.228 248.861 190.236V188.778L247.241 189.12V201.36H248.861V197.112C249.761 197.778 250.625 198.066 251.561 198.066ZM263.734 197.49L264.094 195.78L264.04 195.744C263.446 196.284 262.762 196.662 262.024 196.662C261.088 196.662 260.53 196.176 260.53 195.042V190.308H264.058V188.922H260.53V186.312L258.928 186.906V188.922H257.398V190.308H258.928V195.114C258.928 197.148 260.116 198.12 261.682 198.12C262.51 198.12 263.248 197.85 263.734 197.49ZM265.522 193.44C265.522 195.852 267.286 198.174 270.256 198.174C273.154 198.174 275.026 195.852 275.026 193.386C275.026 190.974 273.298 188.67 270.292 188.67C267.412 188.67 265.522 190.992 265.522 193.44ZM270.292 190.128C272.092 190.128 273.37 191.55 273.37 193.386C273.37 195.204 272.11 196.716 270.256 196.716C268.492 196.716 267.196 195.294 267.196 193.44C267.196 191.622 268.438 190.128 270.292 190.128Z" fill="#0A2133"/>
<path d="M198.386 320.562C200.276 320.562 201.698 319.842 202.832 318.942L203.084 316.926L203.048 316.89C201.752 318.132 200.222 318.942 198.494 318.942C196.136 318.942 193.886 317.016 193.886 313.992C193.886 311.274 196.046 309.15 198.548 309.15C200.294 309.15 201.68 310.068 202.814 311.202H202.85V309.096C201.896 308.25 200.528 307.53 198.638 307.53C195.11 307.53 192.104 310.284 192.104 314.046C192.104 318.006 194.966 320.562 198.386 320.562ZM204.86 315.864C204.86 318.276 206.624 320.598 209.594 320.598C212.492 320.598 214.364 318.276 214.364 315.81C214.364 313.398 212.636 311.094 209.63 311.094C206.75 311.094 204.86 313.416 204.86 315.864ZM209.63 312.552C211.43 312.552 212.708 313.974 212.708 315.81C212.708 317.628 211.448 319.14 209.594 319.14C207.83 319.14 206.534 317.718 206.534 315.864C206.534 314.046 207.776 312.552 209.63 312.552ZM220.813 312.624C221.983 312.624 222.703 313.434 222.703 314.838V320.346H224.323V314.676C224.323 314.514 224.323 314.334 224.305 314.19C225.313 313.038 226.015 312.624 226.843 312.624C228.013 312.624 228.733 313.434 228.733 314.838V320.346H230.371V314.676C230.371 312.444 229.075 311.166 227.329 311.166C226.033 311.166 225.097 311.796 224.089 313.164C223.639 311.886 222.595 311.166 221.299 311.166C220.129 311.166 219.229 311.742 218.293 312.966V311.202L216.673 311.562V320.346H218.293V314.172C219.301 313.038 219.985 312.624 220.813 312.624ZM237.299 319.05C236.435 319.05 235.697 318.816 234.869 318.276V313.758C235.823 312.966 236.615 312.624 237.551 312.624C239.081 312.624 240.413 313.812 240.413 315.792C240.413 317.7 239.063 319.05 237.299 319.05ZM237.569 320.49C239.819 320.49 242.087 318.672 242.087 315.666C242.087 313.02 240.215 311.166 237.983 311.166C236.759 311.166 235.841 311.652 234.869 312.66V311.202L233.249 311.544V323.784H234.869V319.536C235.769 320.202 236.633 320.49 237.569 320.49ZM244.501 320.346H246.121V306.684L244.501 307.278V320.346ZM252.845 312.516C254.357 312.516 255.221 313.65 255.365 315.27H250.145C250.289 313.74 251.315 312.516 252.845 312.516ZM256.139 319.752L256.715 318.006L256.661 317.97C255.707 318.582 254.501 319.068 253.349 319.068C251.657 319.068 250.433 318.168 250.181 316.476H256.949C256.985 316.296 257.003 315.936 257.003 315.756C257.003 313.362 255.689 311.094 252.899 311.094C250.271 311.094 248.507 313.362 248.507 315.846C248.507 318.654 250.271 320.544 253.169 320.544C254.411 320.544 255.257 320.238 256.139 319.752ZM264.736 319.914L265.096 318.204L265.042 318.168C264.448 318.708 263.764 319.086 263.026 319.086C262.09 319.086 261.532 318.6 261.532 317.466V312.732H265.06V311.346H261.532V308.736L259.93 309.33V311.346H258.4V312.732H259.93V317.538C259.93 319.572 261.118 320.544 262.684 320.544C263.512 320.544 264.25 320.274 264.736 319.914ZM270.862 312.516C272.374 312.516 273.238 313.65 273.382 315.27H268.162C268.306 313.74 269.332 312.516 270.862 312.516ZM274.156 319.752L274.732 318.006L274.678 317.97C273.724 318.582 272.518 319.068 271.366 319.068C269.674 319.068 268.45 318.168 268.198 316.476H274.966C275.002 316.296 275.02 315.936 275.02 315.756C275.02 313.362 273.706 311.094 270.916 311.094C268.288 311.094 266.524 313.362 266.524 315.846C266.524 318.654 268.288 320.544 271.186 320.544C272.428 320.544 273.274 320.238 274.156 319.752ZM220.844 336.064C220.844 339.7 223.67 342.598 227.414 342.598C231.122 342.598 234.002 339.718 234.002 336.028C234.002 332.392 231.176 329.494 227.45 329.494C223.724 329.494 220.844 332.374 220.844 336.064ZM222.626 336.028C222.626 333.238 224.786 331.114 227.378 331.114C230.042 331.114 232.22 333.292 232.22 336.064C232.22 338.854 230.006 340.978 227.414 340.978C224.732 340.978 222.626 338.8 222.626 336.028ZM249.171 334.732V333.346H246.201V331.87C246.201 330.844 246.777 330.214 247.713 330.214C248.343 330.214 248.811 330.412 249.369 330.736L249.405 330.7L249.135 329.044C248.667 328.828 248.217 328.72 247.605 328.72C245.751 328.72 244.581 329.926 244.581 331.924V333.346H242.979V334.732H244.581V342.346H246.201V334.732H249.171ZM241.971 334.732V333.346H239.001V331.87C239.001 330.844 239.577 330.214 240.513 330.214C241.143 330.214 241.611 330.412 242.169 330.736L242.205 330.7L241.935 329.044C241.467 328.828 241.017 328.72 240.405 328.72C238.551 328.72 237.381 329.926 237.381 331.924V333.346H235.779V334.732H237.381V342.346H239.001V334.732H241.971ZM254.409 334.516C255.921 334.516 256.785 335.65 256.929 337.27H251.709C251.853 335.74 252.879 334.516 254.409 334.516ZM257.703 341.752L258.279 340.006L258.225 339.97C257.271 340.582 256.065 341.068 254.913 341.068C253.221 341.068 251.997 340.168 251.745 338.476H258.513C258.549 338.296 258.567 337.936 258.567 337.756C258.567 335.362 257.253 333.094 254.463 333.094C251.835 333.094 250.071 335.362 250.071 337.846C250.071 340.654 251.835 342.544 254.733 342.544C255.975 342.544 256.821 342.238 257.703 341.752ZM262.502 342.346V336.586C263.654 335.56 264.644 334.93 265.85 334.93C266.03 334.93 266.174 334.948 266.336 334.984L266.21 333.274C265.976 333.22 265.85 333.202 265.634 333.202C264.482 333.202 263.726 333.958 262.502 335.488V333.202L260.882 333.562V342.346H262.502ZM274.961 339.862C274.961 338.17 273.809 337.558 271.793 337.09C269.975 336.658 269.399 336.352 269.399 335.65C269.399 335.038 270.065 334.606 271.163 334.606C272.279 334.606 273.413 335.164 274.241 335.704L274.295 335.668V333.976C273.593 333.562 272.549 333.148 271.343 333.148C269.237 333.148 267.833 334.282 267.833 335.83C267.833 337.414 269.075 338.008 270.947 338.458C272.873 338.908 273.395 339.214 273.395 339.952C273.395 340.618 272.603 341.086 271.523 341.086C270.029 341.086 268.589 340.33 267.527 339.466L267.473 339.502L267.815 341.446C268.877 342.148 269.993 342.544 271.343 342.544C273.431 342.544 274.961 341.446 274.961 339.862Z" fill="#0A2133"/>
<path d="M224.823 238.085H226.641C228.333 238.085 229.431 239.021 229.431 240.479C229.431 242.081 228.261 243.035 226.551 243.035H224.823V238.085ZM226.551 244.601C229.197 244.601 231.195 243.089 231.195 240.461C231.195 237.869 229.269 236.537 226.695 236.537H223.095V249.137H224.841V244.601H226.551ZM232.458 244.655C232.458 247.067 234.222 249.389 237.192 249.389C240.09 249.389 241.962 247.067 241.962 244.601C241.962 242.189 240.234 239.885 237.228 239.885C234.348 239.885 232.458 242.207 232.458 244.655ZM237.228 241.343C239.028 241.343 240.306 242.765 240.306 244.601C240.306 246.419 239.046 247.931 237.192 247.931C235.428 247.931 234.132 246.509 234.132 244.655C234.132 242.837 235.374 241.343 237.228 241.343ZM246.379 249.263H247.747L250.519 243.287L253.129 249.263H254.479L258.007 240.137H256.351L253.795 247.103L250.753 240.029H250.447L247.171 247.103L244.849 240.137H243.103L246.379 249.263ZM263.392 241.307C264.904 241.307 265.768 242.441 265.912 244.061H260.692C260.836 242.531 261.862 241.307 263.392 241.307ZM266.686 248.543L267.262 246.797L267.208 246.761C266.254 247.373 265.048 247.859 263.896 247.859C262.204 247.859 260.98 246.959 260.728 245.267H267.496C267.532 245.087 267.55 244.727 267.55 244.547C267.55 242.153 266.236 239.885 263.446 239.885C260.818 239.885 259.054 242.153 259.054 244.637C259.054 247.445 260.818 249.335 263.716 249.335C264.958 249.335 265.804 249.029 266.686 248.543ZM271.484 249.137V243.377C272.636 242.351 273.626 241.721 274.832 241.721C275.012 241.721 275.156 241.739 275.318 241.775L275.192 240.065C274.958 240.011 274.832 239.993 274.616 239.993C273.464 239.993 272.708 240.749 271.484 242.279V239.993L269.864 240.353V249.137H271.484ZM210.092 271.209H211.766L215.654 262.047L219.398 271.209H221.09L225.626 258.537H223.79L220.262 268.941L215.87 258.393H215.564L211.028 268.941L207.644 258.537H205.754L210.092 271.209ZM230.485 263.307C231.997 263.307 232.861 264.441 233.005 266.061H227.785C227.929 264.531 228.955 263.307 230.485 263.307ZM233.779 270.543L234.355 268.797L234.301 268.761C233.347 269.373 232.141 269.859 230.989 269.859C229.297 269.859 228.073 268.959 227.821 267.267H234.589C234.625 267.087 234.643 266.727 234.643 266.547C234.643 264.153 233.329 261.885 230.539 261.885C227.911 261.885 226.147 264.153 226.147 266.637C226.147 269.445 227.911 271.335 230.809 271.335C232.051 271.335 232.897 271.029 233.779 270.543ZM240.756 271.281C243.366 271.281 245.706 269.427 245.706 266.385C245.706 263.829 243.96 261.957 241.746 261.957C240.522 261.957 239.568 262.461 238.578 263.451V257.475L236.958 258.069V271.137H237.156L238.326 270.759C239.136 271.101 239.91 271.281 240.756 271.281ZM240.72 269.841C239.964 269.841 239.28 269.697 238.578 269.409V264.549C239.532 263.757 240.324 263.415 241.26 263.415C242.826 263.415 244.05 264.603 244.05 266.493C244.05 268.437 242.61 269.841 240.72 269.841ZM255.103 271.335C257.299 271.335 259.279 269.931 259.279 267.771C259.279 266.385 258.415 265.089 256.525 264.531C258.199 263.739 258.973 262.641 258.973 261.399C258.973 259.599 257.659 258.339 255.373 258.339C253.753 258.339 252.745 258.879 251.737 259.509V261.363H251.773C252.853 260.553 254.005 259.869 255.265 259.869C256.471 259.869 257.263 260.553 257.263 261.579C257.263 262.713 256.363 263.505 253.411 264.441V265.089C256.363 265.503 257.551 266.349 257.551 267.753C257.551 268.995 256.417 269.805 255.049 269.805C253.699 269.805 252.673 269.283 251.359 268.311L251.323 268.329L251.629 270.291C252.637 270.903 253.483 271.335 255.103 271.335ZM260.896 270.075C260.896 270.741 261.436 271.299 262.12 271.299C262.786 271.299 263.326 270.741 263.326 270.075C263.326 269.409 262.786 268.851 262.12 268.851C261.436 268.851 260.896 269.409 260.896 270.075ZM269.724 271.389C272.784 271.389 274.692 268.527 274.692 264.819C274.692 261.165 272.82 258.285 269.76 258.285C266.682 258.285 264.792 261.201 264.792 264.855C264.792 268.509 266.628 271.389 269.724 271.389ZM266.466 264.819C266.466 261.957 267.762 259.815 269.724 259.815C271.668 259.815 273.018 261.939 273.018 264.855C273.018 267.789 271.686 269.859 269.76 269.859C267.762 269.859 266.466 267.699 266.466 264.819Z" fill="#0A2133"/>
<path d="M421.93 316.622L421.93 180.789L303.47 248.705L421.93 316.622Z" stroke="#B2D530" stroke-width="2.37336"/>
<path fill-rule="evenodd" clip-rule="evenodd" d="M375.576 272.086L364.555 265.734L364.27 266.024C363.124 267.189 361.545 267.874 359.881 267.874C356.487 267.874 353.727 265.117 353.727 261.732C353.727 258.875 355.698 256.469 358.357 255.79L358.753 255.689V242.774L358.357 242.673C355.698 241.993 353.727 239.587 353.727 236.73C353.727 233.345 356.487 230.589 359.881 230.589C361.545 230.589 363.124 231.274 364.27 232.438L364.555 232.728L375.608 226.358L375.551 226.001C375.54 225.932 375.53 225.87 375.52 225.814C375.497 225.683 375.479 225.579 375.472 225.464L375.47 225.444L375.467 225.425C375.447 225.281 375.436 225.17 375.436 225.062C375.436 221.678 378.196 218.921 381.59 218.921C384.984 218.921 387.744 221.678 387.744 225.062C387.744 225.172 387.733 225.284 387.716 225.413L387.714 225.43L387.713 225.446C387.704 225.565 387.686 225.671 387.663 225.802C387.653 225.862 387.641 225.927 387.629 226.002L387.573 226.359L398.625 232.728L398.91 232.438C400.057 231.274 401.635 230.589 403.299 230.589C406.693 230.589 409.453 233.345 409.453 236.73C409.453 239.587 407.482 241.993 404.823 242.673L404.427 242.774V255.688L404.823 255.789C407.482 256.469 409.453 258.875 409.453 261.732C409.453 265.117 406.693 267.874 403.299 267.874C401.635 267.874 400.057 267.189 398.91 266.023L398.625 265.733L387.604 272.085L387.661 272.443C387.713 272.766 387.744 273.084 387.744 273.4C387.744 273.509 387.733 273.621 387.716 273.746L387.713 273.765L387.712 273.784C387.496 277.022 384.806 279.541 381.59 279.541C378.373 279.541 375.685 277.021 375.472 273.803L375.47 273.782L375.467 273.762C375.447 273.619 375.436 273.508 375.436 273.4C375.436 273.084 375.467 272.766 375.519 272.444L375.576 272.086ZM380.446 243.19V231.096L380.051 230.994C378.744 230.657 377.594 229.909 376.769 228.848L376.488 228.487L365.699 234.705L365.808 235.097C365.956 235.631 366.035 236.179 366.035 236.73C366.035 237.293 365.953 237.839 365.807 238.362L365.698 238.755L376.919 245.221L377.204 244.931C377.974 244.149 378.954 243.576 380.052 243.292L380.446 243.19ZM397.481 234.705L386.692 228.487L386.411 228.849C385.587 229.909 384.436 230.657 383.129 230.994L382.735 231.096V243.19L383.129 243.292C384.227 243.576 385.207 244.149 385.977 244.931L386.262 245.221L397.483 238.755L397.374 238.362C397.228 237.837 397.145 237.292 397.145 236.73C397.145 236.179 397.224 235.631 397.372 235.097L397.481 234.705ZM401.746 255.799L402.139 255.696L402.138 242.766L401.745 242.663C400.652 242.377 399.675 241.804 398.908 241.023L398.623 240.733L387.404 247.199L387.514 247.592C387.661 248.117 387.744 248.666 387.744 249.231C387.744 249.797 387.661 250.345 387.514 250.871L387.404 251.264L398.623 257.73L398.908 257.439C399.676 256.657 400.653 256.084 401.746 255.799ZM382.734 255.272V267.367L383.13 267.468C384.441 267.803 385.596 268.55 386.425 269.609L386.706 269.968L397.481 263.758L397.372 263.365C397.224 262.831 397.145 262.283 397.145 261.732C397.145 261.17 397.228 260.624 397.373 260.1L397.482 259.708L386.261 253.242L385.976 253.531C385.206 254.314 384.226 254.887 383.128 255.17L382.734 255.272ZM365.699 263.758L376.474 269.968L376.755 269.609C377.584 268.55 378.739 267.803 380.049 267.468L380.445 267.367V255.272L380.051 255.17C378.953 254.887 377.973 254.314 377.203 253.531L376.918 253.242L365.697 259.708L365.806 260.101C365.953 260.625 366.035 261.17 366.035 261.732C366.035 262.283 365.956 262.831 365.808 263.365L365.699 263.758ZM375.776 247.199L364.557 240.733L364.272 241.023C363.504 241.805 362.527 242.378 361.435 242.664L361.042 242.767V255.697L361.435 255.799C362.528 256.085 363.505 256.658 364.272 257.439L364.557 257.73L375.776 251.264L375.666 250.871C375.519 250.345 375.436 249.797 375.436 249.231C375.436 248.666 375.519 248.117 375.666 247.592L375.776 247.199ZM359.851 257.873L359.846 257.873C357.731 257.892 356.016 259.615 356.016 261.732C356.016 263.862 357.75 265.592 359.881 265.592C361.257 265.592 362.539 264.849 363.229 263.654C363.567 263.069 363.747 262.405 363.747 261.732C363.747 259.61 362.017 257.881 359.894 257.874L359.882 257.873C359.874 257.873 359.863 257.873 359.851 257.873ZM377.725 273.4V273.472L377.742 273.536C377.743 273.541 377.745 273.55 377.746 273.562C377.747 273.569 377.748 273.577 377.749 273.585C377.75 273.595 377.751 273.605 377.752 273.615C377.753 273.622 377.753 273.629 377.754 273.637L377.755 273.654C377.889 275.674 379.57 277.259 381.59 277.259C383.61 277.259 385.291 275.674 385.425 273.654C385.43 273.584 385.438 273.513 385.449 273.436L385.454 273.401L385.454 273.366C385.456 272.911 385.361 272.429 385.179 271.974C384.589 270.497 383.18 269.541 381.59 269.541C380 269.541 378.591 270.497 378.001 271.974C377.818 272.433 377.725 272.913 377.725 273.4ZM403.283 257.874L403.281 257.874C401.162 257.881 399.433 259.61 399.433 261.732C399.433 262.405 399.613 263.069 399.951 263.654C400.641 264.849 401.923 265.592 403.299 265.592C405.43 265.592 407.165 263.862 407.165 261.732C407.165 259.614 405.449 257.892 403.334 257.873L403.318 257.873L403.302 257.874L403.299 257.874L403.283 257.874ZM359.881 240.589L359.899 240.589C362.018 240.582 363.747 238.852 363.747 236.73C363.747 236.058 363.567 235.394 363.229 234.809C362.539 233.614 361.257 232.871 359.881 232.871C357.75 232.871 356.016 234.6 356.016 236.73C356.016 238.848 357.731 240.57 359.846 240.589L359.862 240.59L359.878 240.589L359.881 240.589ZM385.456 249.231C385.456 247.101 383.721 245.372 381.59 245.372C379.459 245.372 377.725 247.101 377.725 249.231C377.725 251.361 379.459 253.09 381.59 253.09C383.721 253.09 385.456 251.361 385.456 249.231ZM385.456 225.067C385.456 222.937 383.722 221.207 381.59 221.207C379.459 221.207 377.725 222.937 377.725 225.067C377.725 227.196 379.459 228.926 381.59 228.926C383.722 228.926 385.456 227.196 385.456 225.067ZM403.3 232.87C405.432 232.87 407.166 234.599 407.166 236.729C407.166 238.859 405.432 240.588 403.3 240.588C401.169 240.588 399.435 238.859 399.435 236.729C399.435 234.599 401.169 232.87 403.3 232.87Z" fill="#0A2133"/>
<path d="M897.923 232.3V96.468L1016.38 164.384L897.923 232.3Z" stroke="#B2D530" stroke-width="2.37336"/>
<path d="M880.832 262.802L880.832 399.671L762.359 331.237L880.832 262.802Z" stroke="#B2D530" stroke-width="2.37336"/>
<path d="M1023.81 179.739L1023.81 315.571L905.354 247.655L1023.81 179.739Z" stroke="#B2D530" stroke-width="2.37336"/>
<path d="M1023.81 348.16L1023.81 483.992L905.354 416.076L1023.81 348.16Z" stroke="#B2D530" stroke-width="2.37336"/>
<path d="M1023.81 13.4107L1023.81 149.243L905.354 81.3268L1023.81 13.4107Z" stroke="#B2D530" stroke-width="2.37336"/>
<path d="M739.74 179.739L739.74 315.571L621.28 247.655L739.74 179.739Z" stroke="#B2D530" stroke-width="2.37336"/>
<path d="M754.941 315.571L754.941 179.739L873.401 247.655L754.941 315.571Z" stroke="#B2D530" stroke-width="2.37336"/>
<path d="M897.923 399.67V262.802L1016.4 331.236L897.923 399.67Z" stroke="#B2D530" stroke-width="2.37336"/>
<path d="M881.882 96.4683L881.882 232.301L763.422 164.384L881.882 96.4683Z" stroke="#B2D530" stroke-width="2.37336"/>
<path d="M1011.24 0.999737L589.608 249.018" stroke="#FFFF33" stroke-width="1.1586" stroke-dasharray="5.79 5.79"/>
<path d="M589.603 249.018L1011.23 497.036" stroke="#FFFF33" stroke-width="1.1586" stroke-dasharray="5.79 5.79"/>
<path d="M777.362 237.223C771.014 237.223 765.813 242.163 765.319 248.438L771.796 251.141C772.346 250.761 773.007 250.541 773.721 250.541C773.785 250.541 773.849 250.543 773.911 250.547L776.792 246.333V246.273C776.792 243.737 778.837 241.675 781.348 241.675C783.862 241.675 785.905 243.739 785.905 246.273C785.905 248.809 783.86 250.873 781.348 250.873C781.313 250.873 781.28 250.873 781.245 250.871L777.138 253.828C777.14 253.882 777.142 253.938 777.142 253.992C777.142 255.896 775.608 257.445 773.723 257.445C772.068 257.445 770.682 256.253 770.369 254.672L765.734 252.742C767.169 257.86 771.829 261.614 777.36 261.614C784.034 261.614 789.445 256.153 789.445 249.419C789.447 242.683 784.036 237.223 777.362 237.223ZM772.891 255.726L771.406 255.106C771.669 255.66 772.124 256.122 772.729 256.375C774.036 256.925 775.541 256.3 776.085 254.981C776.348 254.343 776.35 253.64 776.089 252.999C775.828 252.358 775.334 251.86 774.704 251.593C774.075 251.329 773.401 251.34 772.81 251.564L774.345 252.204C775.309 252.609 775.763 253.727 775.363 254.697C774.963 255.672 773.855 256.13 772.891 255.726ZM784.387 246.275C784.387 244.585 783.024 243.21 781.35 243.21C779.677 243.21 778.314 244.585 778.314 246.275C778.314 247.965 779.677 249.338 781.35 249.338C783.024 249.338 784.387 247.963 784.387 246.275ZM779.073 246.269C779.073 244.998 780.096 243.967 781.354 243.967C782.615 243.967 783.636 244.998 783.636 246.269C783.636 247.54 782.613 248.571 781.354 248.571C780.096 248.571 779.073 247.54 779.073 246.269Z" fill="#0A2133"/>
<path d="M841.015 253.607H838.96V248.268L836.936 253.607H835.694L833.678 248.268V253.607H831.502V244.432H834.062L836.316 250.668L838.576 244.432H841.015V253.607Z" fill="#0A2133"/>
<path d="M826.086 244.554H824.503L821.167 253.946H823.112L823.668 252.414H826.727L827.282 253.946H829.421L826.086 244.554ZM824.225 250.881L825.337 247.544L826.449 250.881H824.225Z" fill="#0A2133"/>
<path d="M819.342 253.607H813.226V244.432H819.342V246.016H815.171V248.185H818.786V249.77H815.171V252.022H819.342V253.607Z" fill="#0A2133"/>
<path d="M810.689 246.016H808.466V253.607H806.521V246.016H804.018V244.432H810.689V246.016Z" fill="#0A2133"/>
<path d="M802.273 250.908C802.273 252.799 800.605 253.66 798.936 253.687C797.269 253.687 796.157 253.297 795.599 252.463L796.711 251.322C797.266 251.822 797.822 252.1 798.934 252.1C800.045 252.1 800.601 251.71 800.601 250.96C800.601 250.265 800.045 249.958 799.49 249.848L798.378 249.709C796.711 249.487 795.877 248.624 795.877 247.123C795.877 246.289 796.155 245.621 796.711 245.093C797.266 244.593 798.1 244.342 798.934 244.342C800.323 244.342 801.157 244.703 801.993 245.397L800.881 246.538C800.325 246.121 799.77 245.899 798.936 245.899C798.102 245.955 797.546 246.26 797.546 247.067C797.546 247.706 798.102 248.013 798.658 248.069L799.77 248.234C801.161 248.407 802.273 249.352 802.273 250.908Z" fill="#0A2133"/>
<path d="M942.341 330.332C942.307 332.968 944.743 334.439 946.579 335.314C948.465 336.211 949.097 336.786 949.091 337.589C949.076 338.817 947.587 339.36 946.191 339.38C943.758 339.417 942.344 338.738 941.22 338.225L940.343 342.235C941.471 342.744 943.561 343.187 945.726 343.206C950.811 343.206 954.139 340.752 954.157 336.945C954.177 332.114 947.324 331.847 947.372 329.688C947.388 329.033 948.027 328.335 949.427 328.156C950.12 328.066 952.033 327.997 954.202 328.975L955.052 325.095C953.886 324.68 952.387 324.282 950.521 324.282C945.735 324.282 942.367 326.771 942.341 330.332ZM963.232 324.616C962.302 324.616 961.521 325.146 961.171 325.958L953.906 342.921H958.987L959.999 340.188H966.208L966.794 342.921H971.275L967.366 324.616H963.232ZM963.943 329.561L965.409 336.434H961.393L963.943 329.561ZM936.179 324.616L932.173 342.921H937.015L941.019 324.616H936.179ZM929.016 324.616L923.976 337.075L921.936 326.482C921.697 325.299 920.753 324.616 919.704 324.616H911.463L911.348 325.148C913.039 325.507 914.962 326.085 916.126 326.705C916.839 327.084 917.042 327.415 917.275 328.314L921.137 342.921H926.256L934.101 324.616H929.016Z" fill="#0A2133"/>
<path d="M844.111 175.26C840.078 178.248 834.235 179.844 829.202 179.844C822.148 179.844 815.794 177.219 810.988 172.855C810.61 172.511 810.948 172.044 811.403 172.312C816.589 175.346 823.001 177.171 829.625 177.171C834.092 177.171 839.006 176.242 843.525 174.313C844.208 174.021 844.778 174.761 844.111 175.26Z" fill="#0A2133"/>
<path d="M845.789 173.331C845.275 172.669 842.382 173.017 841.084 173.172C840.688 173.22 840.627 172.874 840.985 172.625C843.289 170.995 847.07 171.465 847.511 172.012C847.952 172.562 847.397 176.374 845.23 178.192C844.897 178.471 844.58 178.322 844.728 177.951C845.215 176.732 846.304 173.996 845.789 173.331Z" fill="#0A2133"/>
<path d="M841.172 161.111V159.526C841.172 159.286 841.353 159.125 841.571 159.125H848.63C848.856 159.125 849.037 159.289 849.037 159.526V160.884C849.033 161.111 848.843 161.409 848.505 161.88L844.849 167.131C846.208 167.099 847.643 167.301 848.875 167.999C849.153 168.158 849.229 168.387 849.25 168.617V170.309C849.25 170.54 848.997 170.809 848.731 170.67C846.56 169.525 843.674 169.4 841.273 170.681C841.028 170.815 840.771 170.547 840.771 170.316V168.71C840.771 168.452 840.775 168.013 841.032 167.621L845.269 161.509H841.581C841.353 161.509 841.172 161.348 841.172 161.111Z" fill="#0A2133"/>
<path d="M815.422 171.005H813.274C813.069 170.99 812.905 170.835 812.89 170.638V159.554C812.89 159.332 813.074 159.156 813.305 159.156H815.306C815.515 159.166 815.681 159.326 815.696 159.527V160.976H815.736C816.259 159.575 817.242 158.923 818.565 158.923C819.909 158.923 820.749 159.577 821.352 160.976C821.871 159.577 823.051 158.923 824.317 158.923C825.217 158.923 826.201 159.296 826.804 160.135C827.483 161.068 827.344 162.421 827.344 163.61L827.34 170.605C827.34 170.827 827.156 171.007 826.926 171.007H824.781C824.566 170.991 824.395 170.818 824.395 170.605V164.729C824.395 164.26 824.437 163.094 824.334 162.651C824.175 161.907 823.694 161.697 823.072 161.697C822.553 161.697 822.009 162.047 821.789 162.605C821.568 163.163 821.589 164.1 821.589 164.729V170.603C821.589 170.825 821.405 171.005 821.175 171.005H819.032C818.816 170.99 818.646 170.816 818.646 170.603L818.643 164.729C818.643 163.492 818.844 161.674 817.32 161.674C815.776 161.674 815.837 163.448 815.837 164.729V170.603C815.837 170.825 815.652 171.005 815.422 171.005Z" fill="#0A2133"/>
<path d="M855.114 158.923C858.301 158.923 860.025 161.674 860.025 165.174C860.025 168.554 858.118 171.236 855.114 171.236C851.985 171.236 850.282 168.485 850.282 165.056C850.282 161.605 852.006 158.923 855.114 158.923ZM855.133 161.184C853.55 161.184 853.451 163.352 853.451 164.704C853.451 166.059 853.43 168.95 855.114 168.95C856.778 168.95 856.858 166.617 856.858 165.195C856.858 164.26 856.818 163.142 856.538 162.255C856.295 161.486 855.816 161.184 855.133 161.184Z" fill="#0A2133"/>
<path d="M864.158 171.005H862.02C861.805 170.99 861.634 170.816 861.634 170.603L861.63 159.517C861.649 159.315 861.826 159.156 862.044 159.156H864.035C864.223 159.166 864.377 159.292 864.419 159.466V161.161H864.459C865.06 159.645 865.902 158.923 867.386 158.923C868.35 158.923 869.289 159.273 869.894 160.229C870.453 161.116 870.453 162.607 870.453 163.679V170.657C870.428 170.852 870.251 171.007 870.038 171.007H867.885C867.689 170.991 867.525 170.846 867.504 170.657V164.635C867.504 163.423 867.643 161.649 866.16 161.649C865.637 161.649 865.158 162.001 864.919 162.536C864.617 163.213 864.577 163.888 864.577 164.635V170.603C864.575 170.825 864.388 171.005 864.158 171.005Z" fill="#0A2133"/>
<path d="M839.369 168.972C838.975 168.426 838.559 167.982 838.559 166.971V163.606C838.559 162.182 838.658 160.872 837.614 159.892C836.791 159.095 835.424 158.815 834.38 158.815C832.339 158.815 830.055 159.58 829.578 162.121C829.527 162.39 829.723 162.534 829.898 162.574L831.979 162.799C832.175 162.79 832.318 162.599 832.354 162.404C832.533 161.528 833.261 161.108 834.078 161.108C834.523 161.108 835.023 161.272 835.283 161.67C835.586 162.113 835.546 162.721 835.546 163.233V163.513C834.301 163.656 832.673 163.746 831.508 164.262C830.16 164.845 829.219 166.038 829.219 167.791C829.219 170.035 830.624 171.156 832.432 171.156C833.956 171.156 834.793 170.794 835.972 169.586C836.361 170.154 836.491 170.431 837.203 171.026C837.363 171.11 837.568 171.102 837.711 170.974L837.715 170.98C838.144 170.597 838.924 169.913 839.361 169.546C839.536 169.401 839.506 169.167 839.369 168.972ZM835.145 168.001C834.802 168.609 834.259 168.982 833.658 168.982C832.833 168.982 832.35 168.351 832.35 167.418C832.35 165.577 833.991 165.243 835.546 165.243V165.711C835.546 166.552 835.567 167.254 835.145 168.001Z" fill="#0A2133"/>
<path d="M811.215 168.972C810.822 168.426 810.406 167.982 810.406 166.971V163.606C810.406 162.182 810.504 160.872 809.461 159.892C808.636 159.095 807.271 158.815 806.225 158.815C804.183 158.815 801.904 159.58 801.423 162.121C801.375 162.39 801.568 162.534 801.742 162.574L803.826 162.799C804.02 162.79 804.161 162.599 804.197 162.404C804.375 161.528 805.105 161.108 805.925 161.108C806.366 161.108 806.868 161.272 807.13 161.67C807.428 162.113 807.39 162.721 807.39 163.233V163.513C806.145 163.656 804.518 163.746 803.353 164.262C802.009 164.845 801.064 166.038 801.064 167.791C801.064 170.035 802.471 171.156 804.278 171.156C805.807 171.156 806.64 170.794 807.818 169.586C808.212 170.154 808.337 170.431 809.05 171.026C809.21 171.11 809.415 171.102 809.558 170.974L809.563 170.98C809.993 170.597 810.772 169.913 811.21 169.546C811.385 169.401 811.354 169.167 811.215 168.972ZM806.989 168.001C806.647 168.609 806.107 168.982 805.503 168.982C804.678 168.982 804.199 168.351 804.199 167.418C804.199 165.577 805.839 165.243 807.39 165.243V165.711C807.392 166.552 807.413 167.254 806.989 168.001Z" fill="#0A2133"/>
<path d="M665.155 247.377C664.56 247.377 664.091 247.881 664.091 248.507C664.091 249.134 664.571 249.638 665.155 249.638C665.75 249.638 666.219 249.134 666.219 248.507C666.219 247.881 665.739 247.377 665.155 247.377ZM661.347 247.377C660.753 247.377 660.283 247.881 660.283 248.507C660.283 249.134 660.763 249.638 661.347 249.638C661.942 249.638 662.411 249.134 662.411 248.507C662.422 247.881 661.942 247.377 661.347 247.377Z" fill="#0A2133"/>
<path d="M670.225 238.825H656.245C655.066 238.825 654.107 239.771 654.107 240.932V254.704C654.107 255.865 655.066 256.811 656.245 256.811H668.076L667.523 254.93L668.858 256.143L670.12 257.284L672.374 259.206V240.932C672.363 239.771 671.403 238.825 670.225 238.825ZM666.198 252.135C666.198 252.135 665.822 251.693 665.509 251.312C666.876 250.932 667.397 250.1 667.397 250.1C666.97 250.377 666.563 250.572 666.198 250.706C665.676 250.922 665.175 251.055 664.685 251.148C663.684 251.333 662.766 251.282 661.983 251.138C661.388 251.025 660.877 250.87 660.45 250.696C660.21 250.603 659.949 250.49 659.688 250.346C659.657 250.326 659.625 250.315 659.594 250.295C659.573 250.285 659.563 250.274 659.552 250.274C659.365 250.172 659.26 250.1 659.26 250.1C659.26 250.1 659.761 250.912 661.086 251.302C660.773 251.693 660.387 252.145 660.387 252.145C658.081 252.073 657.205 250.593 657.205 250.593C657.205 247.314 658.707 244.653 658.707 244.653C660.21 243.553 661.628 243.584 661.628 243.584L661.733 243.707C659.855 244.231 658.999 245.043 658.999 245.043C658.999 245.043 659.229 244.92 659.615 244.755C660.731 244.272 661.618 244.149 661.983 244.108C662.046 244.098 662.098 244.087 662.16 244.087C662.797 244.005 663.517 243.985 664.268 244.067C665.259 244.18 666.323 244.468 667.408 245.043C667.408 245.043 666.584 244.272 664.81 243.748L664.956 243.584C664.956 243.584 666.386 243.553 667.877 244.653C667.877 244.653 669.38 247.314 669.38 250.593C669.38 250.583 668.503 252.063 666.198 252.135ZM681.951 243.224H678.487V247.057L680.793 249.103V245.382H682.024C682.806 245.382 683.192 245.752 683.192 246.348V249.195C683.192 249.791 682.827 250.192 682.024 250.192H678.477V252.361H681.94C683.797 252.371 685.539 251.456 685.539 249.36V246.297C685.55 244.159 683.807 243.224 681.951 243.224ZM700.103 249.36V246.215C700.103 245.084 702.168 244.827 702.794 245.958L704.703 245.197C703.952 243.573 702.586 243.101 701.449 243.101C699.592 243.101 697.755 244.159 697.755 246.215V249.36C697.755 251.436 699.592 252.474 701.407 252.474C702.575 252.474 703.973 251.908 704.745 250.429L702.7 249.504C702.2 250.768 700.103 250.459 700.103 249.36ZM693.791 246.646C693.071 246.492 692.591 246.235 692.56 245.793C692.602 244.735 694.261 244.694 695.231 245.711L696.764 244.55C695.805 243.399 694.72 243.09 693.603 243.09C691.903 243.09 690.255 244.036 690.255 245.824C690.255 247.561 691.611 248.496 693.103 248.722C693.864 248.825 694.709 249.123 694.688 249.637C694.626 250.614 692.581 250.562 691.653 249.452L690.171 250.819C691.037 251.919 692.216 252.474 693.322 252.474C695.022 252.474 696.91 251.508 696.983 249.74C697.088 247.51 695.439 246.944 693.791 246.646ZM686.802 252.35H689.138V243.224H686.802V252.35ZM726.204 243.224H722.741V247.057L725.046 249.103V245.382H726.277C727.06 245.382 727.446 245.752 727.446 246.348V249.195C727.446 249.791 727.081 250.192 726.277 250.192H722.73V252.361H726.204C728.061 252.371 729.804 251.456 729.804 249.36V246.297C729.804 244.159 728.061 243.224 726.204 243.224ZM709.21 243.101C707.291 243.101 705.381 244.128 705.381 246.235V249.349C705.381 251.436 707.301 252.484 709.231 252.484C711.151 252.484 713.06 251.436 713.06 249.349V246.235C713.06 244.139 711.13 243.101 709.21 243.101ZM710.712 249.349C710.712 250.007 709.961 250.346 709.221 250.346C708.469 250.346 707.718 250.028 707.718 249.349V246.235C707.718 245.567 708.449 245.208 709.179 245.208C709.94 245.208 710.712 245.526 710.712 246.235V249.349ZM721.447 246.235C721.395 244.098 719.914 243.234 718.005 243.234H714.301V252.361H716.669V249.462H717.087L719.236 252.361H722.157L719.632 249.226C720.748 248.877 721.447 247.921 721.447 246.235ZM718.046 247.469H716.669V245.382H718.046C719.517 245.382 719.517 247.469 718.046 247.469Z" fill="#0A2133"/>
<path d="M948.226 244.938C948.226 244.143 948.703 243.508 949.561 243.508C950.213 243.508 950.737 244.032 950.737 244.795C950.737 245.463 950.149 246.162 948.973 246.845C948.464 246.082 948.226 245.51 948.226 244.938ZM948.162 251.947C947.225 251.947 946.668 251.28 946.668 250.533C946.668 249.913 947.066 249.357 948.289 248.657C948.83 249.357 949.513 250.119 950.34 250.946C949.545 251.645 948.862 251.947 948.162 251.947ZM952.915 253.394H955.251V253.346C954.202 252.424 953.312 251.598 952.549 250.882C953.312 250.024 954.123 248.927 955.06 247.608L955.076 247.561H953.153C952.517 248.451 951.961 249.198 951.452 249.802C950.769 249.102 950.213 248.482 949.768 247.91C951.452 247.004 952.438 245.908 952.438 244.668C952.438 243.158 951.246 242.045 949.625 242.045C947.701 242.045 946.462 243.317 946.462 244.922C946.462 245.701 946.811 246.496 947.447 247.481C945.54 248.371 944.809 249.404 944.809 250.644C944.809 252.265 946.001 253.521 947.94 253.521C949.211 253.521 950.292 253.044 951.436 252.027C951.897 252.456 952.39 252.917 952.915 253.394ZM964.372 253.568H964.61L969.299 244.366V253.394H971.254V242.268H968.329L964.515 249.96L960.668 242.268H957.776V253.394H959.683V244.445L964.372 253.568ZM974.294 247.847C974.294 251.057 976.757 253.616 980.127 253.616C983.464 253.616 986.007 251.073 986.007 247.815C986.007 244.604 983.528 242.045 980.158 242.045C976.821 242.045 974.294 244.604 974.294 247.847ZM976.344 247.815C976.344 245.59 978.029 243.889 980.095 243.889C982.241 243.889 983.941 245.637 983.941 247.847C983.941 250.072 982.209 251.772 980.127 251.772C977.997 251.772 976.344 250.024 976.344 247.815ZM990.997 243.969H992.459C993.62 243.969 994.478 244.62 994.478 245.701C994.478 246.782 993.62 247.513 992.396 247.513H990.997V243.969ZM995.606 253.394H998.054L994.081 248.8C995.543 248.308 996.496 247.147 996.496 245.637C996.496 243.444 994.859 242.268 992.555 242.268H989.026V253.394H991.029V249.134H991.998L995.606 253.394ZM1000.16 253.394H1006.8L1007.28 251.629H1002.16V248.594H1006.39V246.909H1002.16V244.032H1007.23L1006.75 242.268H1000.16V253.394Z" fill="#0A2133"/>
<path d="M912.519 163.237C914.312 163.237 915.511 164.172 915.511 165.844C915.511 167.461 914.257 168.451 912.552 168.451H911.276V163.237H912.519ZM909.89 169.694H912.541C915.137 169.694 916.93 168.154 916.93 165.822C916.93 163.468 915.258 161.994 912.541 161.994H909.89V169.694ZM918.582 165.855C918.582 168.077 920.287 169.848 922.619 169.848C924.929 169.848 926.689 168.088 926.689 165.833C926.689 163.611 924.973 161.84 922.641 161.84C920.331 161.84 918.582 163.611 918.582 165.855ZM920.001 165.833C920.001 164.293 921.167 163.116 922.597 163.116C924.082 163.116 925.259 164.326 925.259 165.855C925.259 167.395 924.06 168.572 922.619 168.572C921.145 168.572 920.001 167.362 920.001 165.833ZM935.137 169.738H935.819V161.994H934.477L934.488 166.988L930.088 161.994H928.779V169.694H930.121L930.11 164.029L935.137 169.738ZM943.159 166.724H940.354L941.784 163.479L943.159 166.724ZM944.402 169.694H945.898L942.51 161.961H941.135L937.637 169.694H939.067L939.859 167.901H943.643L944.402 169.694ZM953.311 163.237V161.994H946.139V163.237H949.032V169.694H950.418V163.237H953.311ZM955.298 169.694H956.684V161.994H955.298V169.694ZM958.844 165.855C958.844 168.077 960.549 169.848 962.881 169.848C965.191 169.848 966.951 168.088 966.951 165.833C966.951 163.611 965.235 161.84 962.903 161.84C960.593 161.84 958.844 163.611 958.844 165.855ZM960.263 165.833C960.263 164.293 961.429 163.116 962.859 163.116C964.344 163.116 965.521 164.326 965.521 165.855C965.521 167.395 964.322 168.572 962.881 168.572C961.407 168.572 960.263 167.362 960.263 165.833ZM975.398 169.738H976.08V161.994H974.738L974.749 166.988L970.349 161.994H969.04V169.694H970.382L970.371 164.029L975.398 169.738ZM978.294 164.04C978.294 165.272 979.119 165.844 980.34 166.35C981.44 166.812 981.869 167.109 981.869 167.659C981.869 168.253 981.385 168.594 980.637 168.594C979.79 168.594 978.789 168.055 978.041 167.395L978.019 167.417L978.294 169.089C978.91 169.54 979.702 169.826 980.593 169.826C982.155 169.826 983.222 168.935 983.222 167.56C983.222 166.405 982.518 165.8 981.165 165.228C979.977 164.711 979.647 164.458 979.647 163.919C979.647 163.413 980.043 163.094 980.736 163.094C981.484 163.094 982.243 163.446 982.859 163.875H982.881V162.434C982.331 162.093 981.682 161.862 980.78 161.862C979.273 161.862 978.294 162.731 978.294 164.04Z" fill="#0A2133"/>
<path d="M798.273 334.878C798.273 334.456 798.148 334.115 797.897 333.854C797.646 333.583 797.33 333.347 796.948 333.146C796.577 332.935 796.171 332.74 795.729 332.559C795.287 332.378 794.876 332.162 794.494 331.912C794.123 331.651 793.812 331.334 793.561 330.963C793.31 330.582 793.185 330.1 793.185 329.518C793.185 328.695 793.471 328.042 794.043 327.56C794.615 327.079 795.428 326.838 796.482 326.838C797.094 326.838 797.651 326.883 798.153 326.973C798.655 327.064 799.046 327.179 799.327 327.32L798.951 328.419C798.72 328.308 798.379 328.203 797.927 328.102C797.485 328.002 796.984 327.952 796.422 327.952C795.759 327.952 795.262 328.102 794.931 328.404C794.6 328.695 794.434 329.041 794.434 329.442C794.434 329.834 794.56 330.16 794.811 330.421C795.061 330.682 795.373 330.918 795.744 331.129C796.125 331.329 796.537 331.53 796.979 331.731C797.42 331.932 797.827 332.167 798.198 332.438C798.58 332.699 798.896 333.016 799.147 333.387C799.398 333.758 799.523 334.22 799.523 334.772C799.523 335.224 799.443 335.63 799.282 335.992C799.122 336.353 798.886 336.664 798.574 336.925C798.263 337.186 797.887 337.387 797.445 337.527C797.004 337.668 796.502 337.738 795.94 337.738C795.187 337.738 794.565 337.678 794.073 337.557C793.581 337.447 793.2 337.322 792.929 337.181L793.35 336.052C793.581 336.182 793.922 336.313 794.374 336.443C794.826 336.564 795.332 336.624 795.895 336.624C796.226 336.624 796.537 336.594 796.828 336.534C797.119 336.463 797.37 336.358 797.581 336.217C797.792 336.067 797.957 335.881 798.078 335.66C798.208 335.44 798.273 335.179 798.273 334.878Z" fill="#18162E"/>
<path d="M803.471 332.679H802.764V337.557H801.514V327.018H802.764V331.927L803.441 331.716L806.979 327.018H808.425L804.902 331.55L804.269 332.047L805.037 332.649L808.891 337.557H807.311L803.471 332.679Z" fill="#18162E"/>
<path d="M810.99 327.018H812.239V337.557H810.99V327.018Z" fill="#18162E"/>
<path d="M816.982 330.662L816.169 329.141H816.109L816.259 330.662V337.557H815.085V326.853H815.747L820.791 333.884L821.574 335.329H821.649L821.484 333.884V327.018H822.658V337.723H821.995L816.982 330.662Z" fill="#18162E"/>
<path d="M831.93 329.472C831.93 329.733 831.895 329.994 831.825 330.255C831.764 330.516 831.659 330.757 831.509 330.978C831.358 331.189 831.162 331.38 830.921 331.55C830.68 331.711 830.389 331.831 830.048 331.912V332.002C830.349 332.052 830.635 332.137 830.906 332.258C831.177 332.378 831.413 332.544 831.614 332.755C831.815 332.965 831.97 333.221 832.081 333.522C832.201 333.824 832.261 334.18 832.261 334.591C832.261 335.133 832.146 335.605 831.915 336.007C831.684 336.398 831.373 336.719 830.982 336.97C830.6 337.221 830.164 337.407 829.672 337.527C829.18 337.648 828.673 337.708 828.151 337.708C827.98 337.708 827.76 337.708 827.489 337.708C827.228 337.708 826.942 337.698 826.63 337.678C826.329 337.668 826.018 337.648 825.697 337.618C825.386 337.588 825.1 337.542 824.839 337.482V327.094C825.03 327.064 825.245 327.033 825.486 327.003C825.737 326.973 826.003 326.948 826.284 326.928C826.565 326.908 826.851 326.893 827.142 326.883C827.443 326.873 827.74 326.868 828.031 326.868C828.522 326.868 828.999 326.908 829.461 326.988C829.933 327.059 830.349 327.189 830.711 327.38C831.082 327.57 831.378 327.836 831.599 328.178C831.82 328.519 831.93 328.951 831.93 329.472ZM828.166 336.007C828.417 336.007 828.658 335.977 828.889 335.916C829.13 335.856 829.34 335.766 829.521 335.645C829.702 335.515 829.847 335.354 829.958 335.164C830.068 334.973 830.123 334.747 830.123 334.486C830.123 334.155 830.058 333.894 829.928 333.703C829.797 333.512 829.627 333.367 829.416 333.267C829.205 333.156 828.969 333.086 828.708 333.056C828.447 333.026 828.186 333.011 827.925 333.011H826.826V335.916C826.876 335.936 826.957 335.951 827.067 335.962C827.177 335.972 827.293 335.982 827.413 335.992C827.544 335.992 827.674 335.997 827.805 336.007C827.945 336.007 828.066 336.007 828.166 336.007ZM827.489 331.445C827.629 331.445 827.79 331.44 827.97 331.43C828.161 331.42 828.317 331.405 828.437 331.385C828.819 331.264 829.145 331.083 829.416 330.843C829.697 330.602 829.837 330.285 829.837 329.894C829.837 329.633 829.787 329.417 829.687 329.247C829.586 329.076 829.451 328.941 829.28 328.84C829.12 328.74 828.934 328.67 828.723 328.629C828.512 328.589 828.292 328.569 828.061 328.569C827.8 328.569 827.559 328.574 827.338 328.584C827.117 328.594 826.947 328.609 826.826 328.629V331.445H827.489Z" fill="#18162E"/>
<path d="M838.928 335.224H835.691L834.893 337.557H832.831L836.625 326.943H838.145L841.939 337.557H839.771L838.928 335.224ZM836.218 333.568H838.477L837.694 331.219L837.378 329.563H837.302L836.986 331.234L836.218 333.568Z" fill="#18162E"/>
<path d="M842.85 327.124C843.081 327.084 843.327 327.049 843.588 327.018C843.859 326.978 844.125 326.948 844.386 326.928C844.657 326.908 844.917 326.893 845.168 326.883C845.419 326.873 845.65 326.868 845.861 326.868C846.353 326.868 846.835 326.913 847.306 327.003C847.788 327.094 848.215 327.249 848.586 327.47C848.967 327.691 849.269 327.997 849.489 328.388C849.72 328.77 849.836 329.252 849.836 329.834C849.836 330.697 849.635 331.4 849.233 331.942C848.832 332.484 848.295 332.86 847.623 333.071L848.36 333.538L850.769 337.557H848.39L845.996 333.432L844.912 333.236V337.557H842.85V327.124ZM846.012 328.705C845.801 328.705 845.59 328.71 845.379 328.72C845.178 328.73 845.023 328.75 844.912 328.78V331.836H845.786C846.358 331.836 846.815 331.706 847.156 331.445C847.497 331.184 847.668 330.752 847.668 330.15C847.668 329.698 847.527 329.347 847.246 329.096C846.965 328.835 846.554 328.705 846.012 328.705Z" fill="#18162E"/>
<path d="M851.076 332.288C851.076 330.531 851.462 329.181 852.235 328.238C853.008 327.284 854.112 326.808 855.547 326.808C856.3 326.808 856.957 326.938 857.52 327.199C858.082 327.46 858.548 327.831 858.92 328.313C859.291 328.795 859.567 329.372 859.748 330.045C859.928 330.717 860.019 331.465 860.019 332.288C860.019 334.044 859.627 335.399 858.844 336.353C858.072 337.296 856.973 337.768 855.547 337.768C854.784 337.768 854.122 337.638 853.56 337.377C852.998 337.116 852.531 336.744 852.16 336.263C851.798 335.781 851.527 335.204 851.347 334.531C851.166 333.859 851.076 333.111 851.076 332.288ZM853.244 332.288C853.244 332.82 853.289 333.312 853.379 333.763C853.47 334.205 853.605 334.586 853.786 334.908C853.976 335.229 854.217 335.48 854.508 335.66C854.799 335.841 855.146 335.931 855.547 335.931C856.28 335.931 856.847 335.645 857.249 335.073C857.65 334.501 857.851 333.573 857.851 332.288C857.851 331.776 857.806 331.299 857.715 330.858C857.635 330.416 857.505 330.03 857.324 329.698C857.143 329.367 856.907 329.111 856.616 328.93C856.325 328.74 855.969 328.644 855.547 328.644C854.815 328.644 854.247 328.941 853.846 329.533C853.444 330.115 853.244 331.033 853.244 332.288Z" fill="#18162E"/>
<path d="M864.113 332.062L863.285 330.406H863.209L863.45 332.062V337.557H861.493V326.943H862.999L866.988 332.559L867.786 334.17H867.862L867.621 332.559V327.018H869.578V337.633H868.072L864.113 332.062Z" fill="#18162E"/>
</svg>
