<svg width="100" height="48" viewBox="0 0 100 48" fill="none" xmlns="http://www.w3.org/2000/svg">
<path fill-rule="evenodd" clip-rule="evenodd" d="M52.9572 35.2512C52.1404 34.8544 51.5426 34.2673 51.162 33.4882L52.5353 32.5495C52.7741 33.1617 53.1896 33.6206 53.781 33.9267C54.3723 34.2324 55.0693 34.3856 55.8723 34.3856C56.7025 34.3856 57.3361 34.2392 57.7732 33.9471C58.2094 33.6555 58.4275 33.2873 58.4275 32.8415C58.4275 32.4392 58.2236 32.1156 57.8154 31.8721C57.4064 31.6282 56.6883 31.4162 55.6607 31.2356C54.6469 31.0556 53.8447 30.8359 53.2534 30.5779C52.6616 30.3212 52.2318 29.9942 51.9646 29.5979C51.6969 29.2019 51.5637 28.7115 51.5637 28.1278C51.5637 27.5573 51.7322 27.0358 52.0702 26.5628C52.4085 26.0902 52.8943 25.7113 53.5275 25.4261C54.1611 25.1408 54.893 24.9978 55.7241 24.9978C56.8503 24.9978 57.7551 25.203 58.4383 25.613C59.121 26.0238 59.6107 26.6535 59.906 27.5015L58.4697 28.3356C58.2447 27.6684 57.9029 27.1891 57.4456 26.8961C56.9878 26.6041 56.4141 26.4589 55.7241 26.4589C55.034 26.4589 54.4499 26.6118 53.9715 26.917C53.4922 27.224 53.2534 27.5782 53.2534 27.9813C53.2534 28.4403 53.4607 28.7945 53.8762 29.0448C54.2913 29.2952 55.034 29.5114 56.1047 29.6915C57.5685 29.9286 58.6038 30.2829 59.2094 30.7558C59.8141 31.2284 60.1172 31.896 60.1172 32.7585C60.1172 33.3562 59.9378 33.8884 59.5788 34.3541C59.2197 34.8203 58.7055 35.1856 58.037 35.4491C57.368 35.7135 56.5904 35.8455 55.7029 35.8455C54.6896 35.8455 53.7741 35.6479 52.9572 35.2512Z" fill="#D5E8C8"/>
<path fill-rule="evenodd" clip-rule="evenodd" d="M67.6044 33.7594C68.2444 33.3426 68.5651 32.7998 68.5651 32.1322V30.6928L66.1996 31.1309C65.2565 31.2982 64.5522 31.5375 64.0875 31.8513C63.6233 32.1637 63.391 32.5635 63.391 33.0501C63.391 33.4818 63.5595 33.8118 63.8975 34.0412C64.2358 34.2707 64.7069 34.3856 65.313 34.3856C66.1996 34.3856 66.9634 34.1766 67.6044 33.7594ZM71.9026 34.3231L71.797 35.6369C71.4026 35.7757 70.9798 35.8455 70.5294 35.8455C69.9807 35.8455 69.5475 35.7276 69.2302 35.4913C68.9139 35.2546 68.713 34.8586 68.6285 34.3022C68.3044 34.7888 67.8289 35.1681 67.2027 35.4389C66.5764 35.7101 65.9182 35.8455 65.2281 35.8455C64.1858 35.8455 63.3272 35.6062 62.6514 35.1264C61.9755 34.6466 61.6376 33.9548 61.6376 33.0501C61.6376 32.2578 61.9897 31.5724 62.6936 30.9955C63.3975 30.4182 64.4182 30.0185 65.7561 29.7962L68.5652 29.3373V28.7528C68.5652 28.0575 68.347 27.5015 67.9104 27.0839C67.4738 26.6667 66.8682 26.4589 66.094 26.4589C65.3897 26.4589 64.7811 26.625 64.2673 26.9592C63.7527 27.2929 63.3557 27.7868 63.0738 28.4403L61.8281 27.5428C62.1091 26.7646 62.6337 26.1452 63.4014 25.6862C64.1686 25.2273 65.066 24.9978 66.094 24.9978C67.3471 24.9978 68.3539 25.2971 69.1143 25.8948C69.8751 26.493 70.2548 27.3759 70.2548 28.5442V33.6764C70.2548 33.9267 70.3182 34.1145 70.4449 34.2392C70.5716 34.3648 70.7755 34.4269 71.0578 34.4269C71.3389 34.4269 71.6203 34.3929 71.9026 34.3231Z" fill="#D5E8C8"/>
<path fill-rule="evenodd" clip-rule="evenodd" d="M75.1125 32.8414C75.1125 33.3701 75.1931 33.7354 75.3552 33.9372C75.5168 34.1386 75.8164 34.2391 76.253 34.2391C76.5487 34.2391 76.8056 34.2182 77.0242 34.1769C77.2418 34.1352 77.4992 34.0586 77.7948 33.9474L77.5203 35.5537C77.0556 35.7483 76.5345 35.8458 75.9573 35.8458C75.0983 35.8458 74.4608 35.6163 74.0457 35.1569C73.6306 34.698 73.4229 33.9964 73.4229 33.05V20.4087H75.1125V32.8414Z" fill="#D5E8C8"/>
<path fill-rule="evenodd" clip-rule="evenodd" d="M84.3318 33.7594C84.9719 33.3426 85.2925 32.7998 85.2925 32.1322V30.6928L82.927 31.1309C81.9839 31.2982 81.2796 31.5375 80.815 31.8513C80.3507 32.1637 80.1184 32.5635 80.1184 33.0501C80.1184 33.4818 80.2869 33.8118 80.6249 34.0412C80.9632 34.2707 81.4344 34.3856 82.0404 34.3856C82.927 34.3856 83.6908 34.1766 84.3318 33.7594ZM88.6301 34.3231L88.5245 35.6369C88.1301 35.7757 87.7072 35.8455 87.2568 35.8455C86.7081 35.8455 86.2749 35.7276 85.9577 35.4913C85.6413 35.2546 85.4404 34.8586 85.3559 34.3022C85.0318 34.7888 84.5564 35.1681 83.9301 35.4389C83.3038 35.7101 82.6456 35.8455 81.9555 35.8455C80.9133 35.8455 80.0546 35.6062 79.3788 35.1264C78.7029 34.6466 78.365 33.9548 78.365 33.0501C78.365 32.2578 78.7171 31.5724 79.421 30.9955C80.1249 30.4182 81.1456 30.0185 82.4835 29.7962L85.2926 29.3373V28.7528C85.2926 28.0575 85.0745 27.5015 84.6378 27.0839C84.2012 26.6667 83.5956 26.4589 82.8215 26.4589C82.1171 26.4589 81.5085 26.625 80.9947 26.9592C80.4801 27.2929 80.0831 27.7868 79.8012 28.4403L78.5555 27.5428C78.8365 26.7646 79.3611 26.1452 80.1288 25.6862C80.896 25.2273 81.7934 24.9978 82.8215 24.9978C84.0745 24.9978 85.0814 25.2971 85.8417 25.8948C86.6025 26.493 86.9822 27.3759 86.9822 28.5442V33.6764C86.9822 33.9267 87.0456 34.1145 87.1723 34.2392C87.299 34.3648 87.5029 34.4269 87.7852 34.4269C88.0663 34.4269 88.3477 34.3929 88.6301 34.3231Z" fill="#D5E8C8"/>
<path fill-rule="evenodd" clip-rule="evenodd" d="M97.0249 33.3429C97.6232 32.6468 97.9224 31.7157 97.9224 30.5475V30.2972C97.9224 29.129 97.6232 28.1966 97.0249 27.5014C96.4262 26.8062 95.6202 26.4588 94.6068 26.4588C93.5788 26.4588 92.7689 26.8164 92.178 27.5333C91.5866 28.249 91.2905 29.212 91.2905 30.4219C91.2905 31.6314 91.5866 32.5953 92.178 33.3114C92.7689 34.0279 93.5788 34.3855 94.6068 34.3855C95.6202 34.3855 96.4262 34.0381 97.0249 33.3429ZM99.6125 20.4087V35.6372H98.1336L98.028 33.8227C97.7181 34.4345 97.2431 34.9245 96.6025 35.2927C95.9616 35.661 95.2332 35.8458 94.4163 35.8458C92.9383 35.8458 91.7659 35.3626 90.9 34.3966C90.034 33.4293 89.6008 32.1049 89.6008 30.4219C89.6008 28.7394 90.034 27.415 90.9 26.4481C91.7659 25.4817 92.9383 24.9977 94.4163 24.9977C95.1905 24.9977 95.8844 25.165 96.4969 25.4983C97.1094 25.8325 97.5849 26.2774 97.9224 26.8339V20.4087H99.6125Z" fill="#D5E8C8"/>
<path fill-rule="evenodd" clip-rule="evenodd" d="M31.0093 17.8812L41.3458 11.9209L31.0093 5.96021V17.8812Z" fill="#DBEABF"/>
<path fill-rule="evenodd" clip-rule="evenodd" d="M10.3363 29.801L20.6728 35.7617L10.3363 41.7216V29.801Z" fill="#53A546"/>
<path fill-rule="evenodd" clip-rule="evenodd" d="M20.6728 23.8413L10.3363 29.8016L20.6728 35.7618V23.8413Z" fill="#1F4F22"/>
<path fill-rule="evenodd" clip-rule="evenodd" d="M10.3363 41.7222L20.6728 47.6821V35.762L10.3363 41.7222Z" fill="#1F4F22"/>
<path fill-rule="evenodd" clip-rule="evenodd" d="M0 35.7615V35.762L10.3361 41.7218V29.8013L0 35.7615Z" fill="#1F4F22"/>
<path fill-rule="evenodd" clip-rule="evenodd" d="M31.0093 29.8016L41.3458 35.7618V23.8413L31.0093 29.8016Z" fill="#B1D135"/>
<path fill-rule="evenodd" clip-rule="evenodd" d="M20.6729 11.9207L31.0094 17.8809L20.6729 23.8412V11.9207Z" fill="#B1D135"/>
<path fill-rule="evenodd" clip-rule="evenodd" d="M0 23.8409V23.8414L10.3361 29.8016V17.8811L0 23.8409Z" fill="#B1D135"/>
<path fill-rule="evenodd" clip-rule="evenodd" d="M20.673 47.6822L31.0091 41.7224L20.673 35.7617V47.6822Z" fill="#53A546"/>
<path fill-rule="evenodd" clip-rule="evenodd" d="M31.0093 41.722L41.3458 35.7618L31.0093 29.8015V41.722Z" fill="#1F4F22"/>
<path fill-rule="evenodd" clip-rule="evenodd" d="M20.673 0.000244141L10.3364 5.96008L20.673 11.9208V0.000244141Z" fill="#DBEABF"/>
<path fill-rule="evenodd" clip-rule="evenodd" d="M31.0094 17.8811L20.6729 23.8414L31.0094 29.8016V17.8811Z" fill="#DBEABF"/>
<path fill-rule="evenodd" clip-rule="evenodd" d="M31.0094 29.801L20.6729 35.7617L31.0094 41.7216V29.801Z" fill="#B1D135"/>
</svg>
