<svg width="30" height="35" viewBox="0 0 30 35" fill="none" xmlns="http://www.w3.org/2000/svg">
<path fill-rule="evenodd" clip-rule="evenodd" d="M22.4999 13.0817L30 8.72117L22.4999 4.36035V13.0817Z" fill="#DBEABF"/>
<path fill-rule="evenodd" clip-rule="evenodd" d="M7.49988 21.8022L15 26.1631L7.49988 30.5233V21.8022Z" fill="#53A546"/>
<path fill-rule="evenodd" clip-rule="evenodd" d="M15 17.4419L7.49988 21.8024L15 26.1629V17.4419Z" fill="#1F4F22"/>
<path fill-rule="evenodd" clip-rule="evenodd" d="M7.49988 30.5236L15 34.8838V26.1631L7.49988 30.5236Z" fill="#1F4F22"/>
<path fill-rule="evenodd" clip-rule="evenodd" d="M0 26.1628V26.1631L7.49976 30.5233V21.8022L0 26.1628Z" fill="#1F4F22"/>
<path fill-rule="evenodd" clip-rule="evenodd" d="M22.4999 21.8026L30 26.1632V17.4421L22.4999 21.8026Z" fill="#B1D135"/>
<path fill-rule="evenodd" clip-rule="evenodd" d="M15 8.72095L22.5001 13.0815L15 17.442V8.72095Z" fill="#B1D135"/>
<path fill-rule="evenodd" clip-rule="evenodd" d="M0 17.4417V17.4421L7.49976 21.8026V13.0815L0 17.4417Z" fill="#B1D135"/>
<path fill-rule="evenodd" clip-rule="evenodd" d="M15.0001 34.8839L22.4999 30.5237L15.0001 26.1628V34.8839Z" fill="#53A546"/>
<path fill-rule="evenodd" clip-rule="evenodd" d="M22.4999 30.5235L30 26.163L22.4999 21.8025V30.5235Z" fill="#1F4F22"/>
<path fill-rule="evenodd" clip-rule="evenodd" d="M15.0001 0L7.5 4.3602L15.0001 8.72102V0Z" fill="#DBEABF"/>
<path fill-rule="evenodd" clip-rule="evenodd" d="M22.5001 13.0815L15 17.4421L22.5001 21.8026V13.0815Z" fill="#DBEABF"/>
<path fill-rule="evenodd" clip-rule="evenodd" d="M22.5001 21.8022L15 26.1631L22.5001 30.5233V21.8022Z" fill="#B1D135"/>
</svg>
