<svg width="68" height="14" viewBox="0 0 68 14" fill="none" xmlns="http://www.w3.org/2000/svg">
<g clip-path="url(#clip0)">
<path d="M3.92162 13.1396C3.07678 13.1396 2.30616 12.9619 1.60974 12.6067C0.913328 12.2401 0.376749 11.7358 0 11.0941L1.1645 10.2518C1.41567 10.7904 1.7867 11.2086 2.27762 11.5066C2.76854 11.7931 3.35078 11.9363 4.02436 11.9363C4.61803 11.9363 5.08611 11.8217 5.42862 11.5926C5.78253 11.3519 5.95948 11.0425 5.95948 10.6644C5.95948 10.0914 5.58844 9.72464 4.84636 9.56421L2.79137 9.1345C1.98079 8.9626 1.38712 8.68182 1.01037 8.29225C0.64504 7.89112 0.462374 7.38692 0.462374 6.77956C0.462374 6.30973 0.599373 5.87999 0.873376 5.49037C1.14737 5.10075 1.53554 4.79134 2.03787 4.56215C2.5402 4.3215 3.11674 4.20117 3.76749 4.20117C4.6009 4.20117 5.30874 4.36733 5.89099 4.69966C6.48465 5.03199 6.92419 5.50183 7.20961 6.10918L6.06224 6.86551C5.87957 6.38421 5.57703 6.02324 5.15461 5.78259C4.7322 5.53048 4.26982 5.40442 3.76749 5.40442C3.16241 5.40442 2.68291 5.53048 2.32899 5.78259C1.98649 6.02324 1.81525 6.33838 1.81525 6.72799C1.81525 7.33535 2.22054 7.71924 3.03112 7.87964L5.17174 8.32662C5.93666 8.48704 6.48465 8.74485 6.81574 9.10013C7.15824 9.45534 7.32945 9.90802 7.32945 10.4581C7.32945 11.2717 7.01552 11.9249 6.38761 12.4177C5.7597 12.8989 4.9377 13.1396 3.92162 13.1396Z" fill="#B2D530"/>
<path d="M16.3773 11.9191C16.5943 11.9191 16.8055 11.8905 17.011 11.8332L16.9424 12.9161C16.7141 13.0308 16.4173 13.088 16.0519 13.088C15.6181 13.088 15.247 12.9849 14.9389 12.7786C14.642 12.5609 14.4536 12.2458 14.3737 11.8332C14.0883 12.2572 13.6945 12.5838 13.1921 12.813C12.6897 13.0308 12.1703 13.1396 11.6337 13.1396C10.8232 13.1396 10.1495 12.9391 9.61299 12.538C9.07638 12.1254 8.80811 11.5467 8.80811 10.8019C8.80811 10.1601 9.01927 9.63302 9.44175 9.22041C9.86415 8.80788 10.4635 8.5214 11.2399 8.36098L14.3566 7.74218V7.41557C14.3566 6.77383 14.1854 6.28107 13.8428 5.93729C13.5003 5.58205 13.0151 5.40442 12.3872 5.40442C11.1428 5.40442 10.338 5.94875 9.97259 7.0374L8.85951 6.34983C9.09919 5.68518 9.52737 5.16377 10.1438 4.78561C10.7604 4.39598 11.5195 4.20117 12.4215 4.20117C13.4033 4.20117 14.1968 4.45328 14.8018 4.9575C15.4184 5.45026 15.7266 6.17794 15.7266 7.14054V11.3003C15.7266 11.7129 15.9435 11.9191 16.3773 11.9191ZM11.8221 11.9363C12.5299 11.9363 13.1293 11.753 13.6202 11.3863C14.1112 11.0196 14.3566 10.4867 14.3566 9.78766V8.87668L11.8734 9.39231C11.2912 9.51837 10.8688 9.68457 10.6062 9.89083C10.3437 10.0856 10.2123 10.3664 10.2123 10.7331C10.2123 11.0884 10.3551 11.3805 10.6404 11.6098C10.9259 11.8275 11.3198 11.9363 11.8221 11.9363Z" fill="#B2D530"/>
<path d="M19.8436 10.784C19.8436 11.2081 19.9179 11.506 20.0662 11.6779C20.2261 11.8498 20.4887 11.9357 20.854 11.9357C21.0823 11.9357 21.2707 11.9243 21.4191 11.9014C21.5676 11.867 21.7673 11.7983 22.0185 11.6951L21.7958 12.8983C21.4191 13.0588 20.9967 13.139 20.5286 13.139C19.8322 13.139 19.3127 12.95 18.9703 12.5718C18.6392 12.1936 18.4736 11.6149 18.4736 10.8357V0.418945H19.8436V10.784Z" fill="#B2D530"/>
<path d="M30.284 11.9191C30.501 11.9191 30.7122 11.8905 30.9177 11.8332L30.8492 12.9161C30.6209 13.0308 30.324 13.088 29.9587 13.088C29.5249 13.088 29.1539 12.9849 28.8456 12.7786C28.5487 12.5609 28.3604 12.2458 28.2805 11.8332C27.9951 12.2572 27.6012 12.5838 27.0989 12.813C26.5965 13.0308 26.077 13.1396 25.5405 13.1396C24.7299 13.1396 24.0563 12.9391 23.5197 12.538C22.9831 12.1254 22.7148 11.5467 22.7148 10.8019C22.7148 10.1601 22.9261 9.63302 23.3485 9.22041C23.7709 8.80788 24.3702 8.5214 25.1466 8.36098L28.2634 7.74218V7.41557C28.2634 6.77383 28.0921 6.28107 27.7496 5.93729C27.4071 5.58205 26.9219 5.40442 26.294 5.40442C25.0496 5.40442 24.2447 5.94875 23.8793 7.0374L22.7662 6.34983C23.006 5.68518 23.4341 5.16377 24.0506 4.78561C24.6671 4.39598 25.4263 4.20117 26.3282 4.20117C27.31 4.20117 28.1035 4.45328 28.7086 4.9575C29.3251 5.45026 29.6334 6.17794 29.6334 7.14054V11.3003C29.6334 11.7129 29.8502 11.9191 30.284 11.9191ZM25.7289 11.9363C26.4367 11.9363 27.0361 11.753 27.527 11.3863C28.0179 11.0196 28.2634 10.4867 28.2634 9.78766V8.87668L25.7803 9.39231C25.1979 9.51837 24.7755 9.68457 24.513 9.89083C24.2504 10.0856 24.1191 10.3664 24.1191 10.7331C24.1191 11.0884 24.2618 11.3805 24.5472 11.6098C24.8326 11.8275 25.2265 11.9363 25.7289 11.9363Z" fill="#B2D530"/>
<path d="M40.0008 0.418945V12.9671H38.802L38.7164 11.3513C38.4881 11.9128 38.1056 12.354 37.569 12.6749C37.0325 12.9843 36.4388 13.139 35.7881 13.139C35.0688 13.139 34.4123 12.9614 33.8187 12.6062C33.225 12.2395 32.7512 11.7181 32.3973 11.0419C32.0548 10.3658 31.8835 9.57511 31.8835 8.66983C31.8835 7.75307 32.0662 6.9566 32.4316 6.28049C32.8083 5.60438 33.2992 5.0887 33.9043 4.73346C34.5208 4.37821 35.1943 4.20059 35.925 4.20059C36.5301 4.20059 37.0724 4.34383 37.5519 4.63032C38.0314 4.90534 38.391 5.28351 38.6308 5.76481V0.418945H40.0008ZM35.925 11.9357C36.747 11.9357 37.4035 11.6321 37.8944 11.0248C38.3853 10.406 38.6308 9.58081 38.6308 8.54948C38.6308 7.58688 38.3853 6.82482 37.8944 6.2633C37.4149 5.69033 36.7813 5.40384 35.9935 5.40384C35.1373 5.40384 34.4637 5.70178 33.9728 6.29768C33.4933 6.88211 33.2536 7.67282 33.2536 8.66983C33.2536 9.6668 33.4876 10.4632 33.9556 11.0591C34.4352 11.6436 35.0916 11.9357 35.925 11.9357Z" fill="#B2D530"/>
<path d="M47.4151 4.20096C48.1001 4.20096 48.7109 4.38431 49.2475 4.75101C49.7955 5.10626 50.2236 5.62194 50.5319 6.29805C50.8515 6.97416 51.0113 7.77063 51.0113 8.68738C51.0113 9.60414 50.8515 10.4005 50.5319 11.0767C50.2236 11.7413 49.7898 12.2512 49.2304 12.6065C48.6823 12.9617 48.0544 13.1394 47.3466 13.1394C46.673 13.1394 46.085 12.9617 45.5827 12.6065C45.0918 12.2512 44.7208 11.7757 44.4696 11.1798L44.384 12.9675H42.3118V0.608398H44.658V5.85113C44.9091 5.34691 45.2687 4.94583 45.7368 4.64788C46.2163 4.34993 46.7758 4.20096 47.4151 4.20096ZM46.6445 11.3345C47.2838 11.3345 47.7804 11.1053 48.1343 10.647C48.4883 10.1886 48.6652 9.52963 48.6652 8.6702C48.6652 7.8107 48.4883 7.15178 48.1343 6.69341C47.7918 6.23502 47.3009 6.00583 46.6616 6.00583C46.0565 6.00583 45.5713 6.25221 45.206 6.74497C44.8406 7.22627 44.658 7.87372 44.658 8.68738C44.658 9.52393 44.8349 10.1771 45.1888 10.647C45.5542 11.1053 46.0394 11.3345 46.6445 11.3345Z" fill="#B2D530"/>
<path d="M60.3106 11.5238C60.5047 11.5238 60.6874 11.4951 60.8586 11.4379L60.7216 12.8989C60.4248 13.0479 60.0538 13.1224 59.6085 13.1224C59.1062 13.111 58.6723 13.0021 58.307 12.7958C57.9531 12.5896 57.7134 12.2916 57.5878 11.902C57.3252 12.2916 56.9427 12.5953 56.4404 12.813C55.9381 13.0308 55.4129 13.1396 54.8649 13.1396C53.9744 13.1396 53.278 12.9391 52.7756 12.538C52.2847 12.1369 52.0393 11.5639 52.0393 10.8191C52.0393 10.1888 52.2391 9.67309 52.6387 9.27203C53.0497 8.8595 53.6433 8.57295 54.4197 8.41253L57.3652 7.81091V7.48433C57.3652 7.00303 57.2225 6.62486 56.937 6.34983C56.663 6.06334 56.2977 5.9201 55.841 5.9201C54.9048 5.9201 54.2998 6.38994 54.0258 7.32963L52.0222 6.71081C52.2277 5.93156 52.6615 5.31848 53.3237 4.87156C53.9858 4.42464 54.8592 4.20117 55.9438 4.20117C57.0969 4.20117 58.0102 4.4762 58.6838 5.02626C59.3574 5.56486 59.6942 6.34983 59.6942 7.38119V10.8706C59.6942 11.306 59.8996 11.5238 60.3106 11.5238ZM55.4643 11.4722C56.0123 11.4722 56.4632 11.3405 56.8172 11.0769C57.1825 10.8133 57.3652 10.3893 57.3652 9.80485V9.27203L55.5671 9.63302C55.1446 9.71323 54.8421 9.8221 54.6594 9.95957C54.4767 10.0971 54.3854 10.3091 54.3854 10.5955C54.3854 10.8706 54.4881 11.0884 54.6937 11.2488C54.8991 11.3977 55.1561 11.4722 55.4643 11.4722Z" fill="#B2D530"/>
<path d="M61.8042 4.37307H63.8421L63.9962 6.05762C64.4642 4.81999 65.3491 4.20117 66.6506 4.20117C67.0501 4.20117 67.3584 4.2642 67.5753 4.39026L67.3013 6.36702C67.0501 6.27535 66.6963 6.22951 66.2396 6.22951C65.6687 6.22951 65.1778 6.43005 64.7668 6.83113C64.3558 7.22076 64.1503 7.78225 64.1503 8.5157V12.9677H61.8042V4.37307Z" fill="#B2D530"/>
</g>
<defs>
<clipPath id="clip0">
<rect width="68" height="13.1613" fill="white" transform="translate(0 0.418945)"/>
</clipPath>
</defs>
</svg>
