<svg width="70" height="16" viewBox="0 0 70 16" fill="none" xmlns="http://www.w3.org/2000/svg">
<path d="M3.97536 12.5291C3.11895 12.5291 2.33777 12.3541 1.63181 12.0042C0.925848 11.643 0.381912 11.1464 0 10.5143L1.18046 9.68466C1.43506 10.2152 1.81119 10.6272 2.30883 10.9206C2.80648 11.2028 3.39671 11.3439 4.07952 11.3439C4.68132 11.3439 5.15582 11.231 5.50301 11.0053C5.86178 10.7683 6.04116 10.4635 6.04116 10.091C6.04116 9.52663 5.66503 9.16543 4.91278 9.00741L2.82962 8.58413C2.00793 8.41481 1.40613 8.13827 1.02422 7.7545C0.65388 7.35943 0.468711 6.86279 0.468711 6.26455C0.468711 5.80176 0.607588 5.37848 0.885342 4.99471C1.1631 4.61093 1.55658 4.30617 2.0658 4.08042C2.57502 3.84339 3.15946 3.72487 3.81912 3.72487C4.66396 3.72487 5.38149 3.88854 5.97172 4.21587C6.57352 4.54321 7.01909 5.006 7.30841 5.60423L6.14532 6.34921C5.96015 5.87513 5.65346 5.51958 5.22526 5.28254C4.79705 5.03421 4.32834 4.91005 3.81912 4.91005C3.20575 4.91005 2.71968 5.03421 2.36091 5.28254C2.01372 5.51958 1.84012 5.82998 1.84012 6.21376C1.84012 6.81199 2.25097 7.19012 3.07266 7.34815L5.24262 7.78836C6.01801 7.94638 6.57352 8.20035 6.90914 8.55026C7.25633 8.90018 7.42993 9.34603 7.42993 9.88783C7.42993 10.6892 7.11167 11.3326 6.47515 11.818C5.83863 12.2921 5.00537 12.5291 3.97536 12.5291Z" fill="#B2D530"/>
<path d="M16.4282 11.327C16.6481 11.327 16.8622 11.2988 17.0705 11.2423L17.0011 12.309C16.7696 12.4219 16.4687 12.4783 16.0984 12.4783C15.6586 12.4783 15.2825 12.3767 14.97 12.1735C14.6691 11.9591 14.4781 11.6487 14.3971 11.2423C14.1078 11.66 13.7085 11.9817 13.1993 12.2074C12.6901 12.4219 12.1635 12.5291 11.6196 12.5291C10.7979 12.5291 10.1151 12.3316 9.57114 11.9365C9.0272 11.5302 8.75523 10.9601 8.75523 10.2265C8.75523 9.59436 8.96933 9.07513 9.39754 8.66878C9.82574 8.26243 10.4333 7.98025 11.2203 7.82222L14.3798 7.2127V6.89101C14.3798 6.25891 14.2062 5.77355 13.859 5.43492C13.5118 5.08501 13.0199 4.91005 12.3834 4.91005C11.1219 4.91005 10.306 5.44621 9.93569 6.51852L8.80731 5.84127C9.05035 5.1866 9.48434 4.67302 10.1093 4.30053C10.7342 3.91675 11.5038 3.72487 12.4181 3.72487C13.4134 3.72487 14.2177 3.97319 14.8311 4.46984C15.4561 4.9552 15.7685 5.67196 15.7685 6.62011V10.7175C15.7685 11.1238 15.9884 11.327 16.4282 11.327ZM11.8105 11.3439C12.5281 11.3439 13.1357 11.1633 13.6333 10.8021C14.1309 10.4409 14.3798 9.91605 14.3798 9.22751V8.33016L11.8626 8.83809C11.2724 8.96226 10.8442 9.12593 10.578 9.3291C10.3118 9.52099 10.1787 9.79753 10.1787 10.1587C10.1787 10.5086 10.3234 10.7965 10.6127 11.0222C10.902 11.2367 11.3013 11.3439 11.8105 11.3439Z" fill="#B2D530"/>
<path d="M19.7683 10.2095C19.7683 10.6272 19.8435 10.9206 19.994 11.0899C20.156 11.2593 20.4222 11.3439 20.7925 11.3439C21.024 11.3439 21.2149 11.3326 21.3654 11.3101C21.5158 11.2762 21.7184 11.2085 21.973 11.1069L21.7473 12.2921C21.3654 12.4501 20.9372 12.5291 20.4627 12.5291C19.7567 12.5291 19.2302 12.3429 18.883 11.9704C18.5473 11.5979 18.3795 11.0279 18.3795 10.2603V0H19.7683V10.2095Z" fill="#B2D530"/>
<path d="M30.1783 11.327C30.3982 11.327 30.6123 11.2988 30.8206 11.2423L30.7511 12.309C30.5197 12.4219 30.2188 12.4783 29.8484 12.4783C29.4087 12.4783 29.0325 12.3767 28.7201 12.1735C28.4192 11.9591 28.2282 11.6487 28.1472 11.2423C27.8579 11.66 27.4586 11.9817 26.9494 12.2074C26.4402 12.4219 25.9136 12.5291 25.3696 12.5291C24.5479 12.5291 23.8651 12.3316 23.3212 11.9365C22.7773 11.5302 22.5053 10.9601 22.5053 10.2265C22.5053 9.59436 22.7194 9.07513 23.1476 8.66878C23.5758 8.26243 24.1834 7.98025 24.9704 7.82222L28.1298 7.2127V6.89101C28.1298 6.25891 27.9562 5.77355 27.609 5.43492C27.2618 5.08501 26.77 4.91005 26.1335 4.91005C24.872 4.91005 24.0561 5.44621 23.6858 6.51852L22.5574 5.84127C22.8004 5.1866 23.2344 4.67302 23.8594 4.30053C24.4843 3.91675 25.2539 3.72487 26.1682 3.72487C27.1635 3.72487 27.9678 3.97319 28.5812 4.46984C29.2061 4.9552 29.5186 5.67196 29.5186 6.62011V10.7175C29.5186 11.1238 29.7385 11.327 30.1783 11.327ZM25.5606 11.3439C26.2781 11.3439 26.8857 11.1633 27.3834 10.8021C27.881 10.4409 28.1298 9.91605 28.1298 9.22751V8.33016L25.6127 8.83809C25.0224 8.96226 24.5942 9.12593 24.3281 9.3291C24.0619 9.52099 23.9288 9.79753 23.9288 10.1587C23.9288 10.5086 24.0735 10.7965 24.3628 11.0222C24.6521 11.2367 25.0514 11.3439 25.5606 11.3439Z" fill="#B2D530"/>
<path d="M39.8546 0V12.3598H38.6395L38.5527 10.7683C38.3212 11.3213 37.9335 11.7559 37.3896 12.072C36.8456 12.3767 36.2438 12.5291 35.5842 12.5291C34.8551 12.5291 34.1896 12.3541 33.5878 12.0042C32.986 11.643 32.5057 11.1295 32.147 10.4635C31.7998 9.79753 31.6262 9.01869 31.6262 8.12698C31.6262 7.22399 31.8113 6.43951 32.1817 5.77354C32.5636 5.10758 33.0612 4.59965 33.6746 4.24974C34.2996 3.89982 34.9824 3.72487 35.723 3.72487C36.3364 3.72487 36.8861 3.86596 37.3722 4.14815C37.8583 4.41905 38.2228 4.79153 38.4659 5.26561V0H39.8546ZM35.723 11.3439C36.5563 11.3439 37.2218 11.0448 37.7194 10.4466C38.217 9.83704 38.4659 9.02434 38.4659 8.00847C38.4659 7.06032 38.217 6.3097 37.7194 5.75661C37.2333 5.19224 36.591 4.91005 35.7925 4.91005C34.9245 4.91005 34.2417 5.20353 33.744 5.79048C33.258 6.36614 33.0149 7.14497 33.0149 8.12698C33.0149 9.10899 33.2522 9.89347 33.7267 10.4804C34.2128 11.0561 34.8782 11.3439 35.723 11.3439Z" fill="#B2D530"/>
<path d="M47.1622 3.72487C47.8682 3.72487 48.4989 3.89982 49.0544 4.24974C49.61 4.59965 50.0439 5.10758 50.3564 5.77354C50.6805 6.42822 50.8425 7.20705 50.8425 8.11005C50.8425 9.01305 50.6805 9.79753 50.3564 10.4635C50.0324 11.1295 49.5868 11.643 49.0197 12.0042C48.4642 12.3541 47.8277 12.5291 47.1102 12.5291C46.4852 12.5291 45.9413 12.3824 45.4784 12.0889C45.0154 11.7954 44.6567 11.4004 44.4021 10.9037V15.9153H42.0238V3.89418H44.159L44.2632 5.55344C44.5062 4.98906 44.8823 4.54321 45.3916 4.21587C45.9008 3.88854 46.491 3.72487 47.1622 3.72487ZM46.4158 10.7513C47.0523 10.7513 47.5499 10.5256 47.9087 10.0741C48.279 9.62257 48.4642 8.97355 48.4642 8.12698C48.4642 7.28042 48.2848 6.63139 47.9261 6.17989C47.5789 5.72839 47.087 5.50264 46.4505 5.50264C45.8256 5.50264 45.3279 5.73404 44.9576 6.19682C44.5872 6.65961 44.4021 7.303 44.4021 8.12698C44.4021 8.93968 44.5814 9.58307 44.9402 10.0571C45.3105 10.5199 45.8024 10.7513 46.4158 10.7513Z" fill="#B2D530"/>
<path d="M60.0956 10.9376C60.2923 10.9376 60.4775 10.9093 60.6511 10.8529L60.5122 12.2921C60.2113 12.4388 59.8352 12.5122 59.3839 12.5122C58.8746 12.5009 58.4349 12.3937 58.0645 12.1905C57.7057 11.9873 57.4627 11.6938 57.3354 11.3101C57.0692 11.6938 56.6815 11.9929 56.1723 12.2074C55.6631 12.4219 55.1307 12.5291 54.5752 12.5291C53.6725 12.5291 52.9666 12.3316 52.4573 11.9365C51.9597 11.5414 51.7109 10.9771 51.7109 10.2434C51.7109 9.62257 51.9134 9.11464 52.3185 8.71958C52.7351 8.31323 53.3369 8.03104 54.1239 7.87301L57.1097 7.28042V6.95873C57.1097 6.48466 56.9651 6.11217 56.6757 5.84127C56.398 5.55908 56.0276 5.41799 55.5647 5.41799C54.6157 5.41799 54.0023 5.88078 53.7246 6.80635L51.6935 6.19682C51.9018 5.42928 52.3416 4.8254 53.0129 4.38518C53.6841 3.94497 54.5694 3.72487 55.6689 3.72487C56.8378 3.72487 57.7636 3.99577 58.4464 4.53757C59.1292 5.06808 59.4706 5.84127 59.4706 6.85714V10.2942C59.4706 10.7231 59.679 10.9376 60.0956 10.9376ZM55.1828 10.8868C55.7383 10.8868 56.1955 10.757 56.5542 10.4974C56.9246 10.2377 57.1097 9.82011 57.1097 9.24444V8.71958L55.287 9.07513C54.8588 9.15414 54.5521 9.26138 54.3669 9.39683C54.1817 9.53228 54.0892 9.74109 54.0892 10.0233C54.0892 10.2942 54.1933 10.5086 54.4016 10.6667C54.6099 10.8134 54.8703 10.8868 55.1828 10.8868Z" fill="#B2D530"/>
<path d="M65.546 12.8847C65.1178 14.0247 64.6259 14.8261 64.0704 15.2889C63.5149 15.763 62.7742 16 61.8484 16C60.9688 16 60.2281 15.8081 59.6263 15.4243L60.1298 13.7481C60.5233 14.0642 61.0325 14.2222 61.6574 14.2222C62.0046 14.2222 62.2882 14.1489 62.508 14.0021C62.7395 13.8554 62.9362 13.5901 63.0983 13.2063L63.3934 12.4783L62.4386 10.2772L59.7826 3.89418H62.4212L64.0704 8.97355L64.5218 10.6667L65.0599 8.87196L66.6396 3.89418H69.0526L65.546 12.8847Z" fill="#B2D530"/>
</svg>
