<svg width="87" height="42" viewBox="0 0 87 42" fill="none" xmlns="http://www.w3.org/2000/svg">
<path d="M18.026 11.0937C17.9741 11.0937 17.9258 11.0789 17.8812 11.0532L9.013 5.92251C8.92387 5.87095 8.86816 5.77519 8.86816 5.67574C8.86816 5.5763 8.92387 5.48054 9.00928 5.42897L17.8812 0.298327C17.9258 0.272545 17.9778 0.257812 18.026 0.257812C18.078 0.257812 18.1263 0.272545 18.1709 0.294644C18.26 0.346208 18.3157 0.441971 18.3157 0.541416V10.8027C18.3157 10.9058 18.26 11.0016 18.1709 11.0495C18.1263 11.0789 18.078 11.0937 18.026 11.0937ZM17.7401 10.3055V1.04233L9.73345 5.67574L17.7401 10.3055Z" fill="#DBF1C1"/>
<path d="M18.0261 10.991C17.9926 10.991 17.9629 10.9836 17.9332 10.9652L9.06501 5.83456C9.0093 5.80141 8.97217 5.74248 8.97217 5.67619C8.97217 5.60989 9.00559 5.55096 9.06501 5.51781L17.9332 0.387166C17.9889 0.354018 18.0595 0.354018 18.1189 0.387166C18.1783 0.420314 18.2117 0.479245 18.2117 0.545542V10.8068C18.2117 10.8731 18.1746 10.9321 18.1189 10.9652C18.0892 10.9799 18.0595 10.991 18.0261 10.991ZM9.5255 5.67619L17.8441 10.4864V0.862294L9.5255 5.67619Z" fill="#DBF1C1"/>
<path d="M26.8943 26.3495C26.8423 26.3495 26.7941 26.3348 26.7495 26.309L17.8813 21.1784C17.7922 21.1268 17.7365 21.031 17.7365 20.9316C17.7365 20.8322 17.7922 20.7364 17.8813 20.6848L26.7495 15.5542C26.7941 15.5284 26.8423 15.5137 26.8943 15.5137C26.9463 15.5137 26.9946 15.5284 27.0392 15.5505C27.1283 15.6021 27.184 15.6978 27.184 15.7973V26.0586C27.184 26.1617 27.1283 26.2575 27.0392 26.3053C26.9946 26.3348 26.9463 26.3495 26.8943 26.3495ZM26.6084 25.565V16.2982L18.6017 20.9316L26.6084 25.565Z" fill="#DBF1C1"/>
<path d="M26.8944 26.2468C26.8609 26.2468 26.8312 26.2395 26.8015 26.2211L17.9333 21.0904C17.8776 21.0573 17.8405 20.9983 17.8405 20.932C17.8405 20.8657 17.8739 20.8068 17.9333 20.7737L26.8015 15.643C26.8572 15.6099 26.9278 15.6099 26.9872 15.643C27.0429 15.6762 27.08 15.7351 27.08 15.8014V26.0627C27.08 26.129 27.0429 26.1879 26.9872 26.2211C26.9612 26.2395 26.9278 26.2468 26.8944 26.2468ZM18.3938 20.932L26.7124 25.7423V16.1218L18.3938 20.932Z" fill="#DBF1C1"/>
<path d="M26.8943 36.6103C26.8423 36.6103 26.7941 36.5955 26.7495 36.5698L17.8813 31.4391C17.7922 31.3876 17.7365 31.2918 17.7365 31.1923C17.7365 31.0929 17.7922 30.9971 17.8813 30.9456L26.7495 25.8149C26.7941 25.7891 26.8423 25.7744 26.8943 25.7744C26.9463 25.7744 26.9946 25.7891 27.0392 25.8112C27.1283 25.8628 27.184 25.9586 27.184 26.058V36.3193C27.184 36.4224 27.1283 36.5182 27.0392 36.5661C26.9946 36.5955 26.9463 36.6103 26.8943 36.6103ZM26.6084 35.8258V26.5589L18.6017 31.1923L26.6084 35.8258Z" fill="#DBF1C1"/>
<path d="M26.8944 36.5076C26.8609 36.5076 26.8312 36.5002 26.8015 36.4818L17.9333 31.3512C17.8776 31.318 17.8405 31.2591 17.8405 31.1928C17.8405 31.1265 17.8739 31.0676 17.9333 31.0344L26.8015 25.9038C26.8572 25.8706 26.9278 25.8706 26.9872 25.9038C27.0429 25.9369 27.08 25.9958 27.08 26.0621V36.3234C27.08 36.3897 27.0429 36.4487 26.9872 36.4818C26.9612 36.5002 26.9278 36.5076 26.8944 36.5076ZM18.3938 31.1928L26.7124 36.003V26.3826L18.3938 31.1928Z" fill="#DBF1C1"/>
<path d="M9.17643 26.3493C9.12816 26.3493 9.08359 26.3383 9.03903 26.3162L0.163387 21.1782C0.0742596 21.1266 0.0185547 21.0308 0.0185547 20.9314C0.0185547 20.8319 0.0742596 20.7362 0.163387 20.6846L9.04274 15.5466L9.05017 15.5429C9.07245 15.5319 9.09102 15.5282 9.10216 15.5282L9.11702 15.5245C9.13187 15.5208 9.15415 15.5098 9.18386 15.5098C9.20614 15.5098 9.221 15.5134 9.22843 15.5171C9.25814 15.5208 9.29156 15.5282 9.32498 15.5466L9.33612 15.554L9.33984 15.5576C9.42154 15.6092 9.46981 15.7013 9.46981 15.7971V26.0583C9.46981 26.1136 9.45125 26.1688 9.42154 26.2167L9.4661 26.2609L9.31755 26.3125C9.26928 26.3383 9.22471 26.3493 9.17643 26.3493ZM8.88677 25.5648V23.9958L7.53129 24.7803L8.88677 25.5648ZM6.95938 24.4488L8.88677 23.3328V21.4323L5.31423 23.4985L6.95938 24.4488ZM4.74233 23.1671L8.88677 20.7693V18.8651L3.09718 22.2131L4.74233 23.1671ZM2.52527 21.8816L8.88677 18.2022V16.298L0.880123 20.9314L2.52527 21.8816Z" fill="#DBF1C1"/>
<path d="M9.2693 15.642C9.24701 15.6309 9.22473 15.6273 9.20245 15.6236C9.19502 15.6236 9.1876 15.6162 9.17645 15.6162C9.1616 15.6162 9.14675 15.6236 9.13189 15.6273C9.11704 15.6309 9.09847 15.6309 9.08733 15.6383L0.2154 20.7726C0.159695 20.8058 0.122559 20.8647 0.122559 20.931C0.122559 20.9973 0.155981 21.0562 0.2154 21.0894L9.08361 26.22C9.11332 26.2348 9.14303 26.2458 9.17645 26.2458C9.20988 26.2458 9.23959 26.2384 9.2693 26.22C9.325 26.1869 9.36214 26.128 9.36214 26.0617V25.7412V23.6013V23.1777V21.0378V20.6143V18.4743V18.0471V16.1208V15.8004C9.36214 15.7341 9.325 15.6751 9.2693 15.642ZM8.99077 25.7412L7.32334 24.7762L8.99077 23.8112V25.7412ZM8.99077 23.3914L6.9594 24.5663L5.11 23.4945L8.99077 21.2514V23.3914ZM8.99077 20.8242L4.74235 23.2809L2.89295 22.2091L8.99449 18.6806V20.8242H8.99077ZM2.5253 22.0028L0.675894 20.931L4.82776 18.5296L8.99077 16.1208V18.2607L2.5253 22.0028Z" fill="#DBF1C1"/>
<path d="M35.7625 31.4802C35.7142 31.4802 35.6697 31.4691 35.6251 31.447L26.7494 26.309C26.6603 26.2574 26.6046 26.1617 26.6046 26.0622C26.6046 25.9628 26.6603 25.867 26.7494 25.8155L35.6288 20.6775L35.6362 20.6738C35.6585 20.6627 35.6771 20.659 35.6882 20.659L35.7031 20.6554C35.7179 20.6517 35.7402 20.6406 35.7699 20.6406C35.7885 20.6406 35.8071 20.6443 35.8145 20.648C35.8442 20.6517 35.8776 20.659 35.911 20.6775L35.9222 20.6848L35.9259 20.6885C36.0076 20.7401 36.0559 20.8321 36.0559 20.9279V31.1892C36.0559 31.2444 36.0373 31.2997 36.0076 31.3476L36.0522 31.3918L35.9036 31.4433C35.8591 31.4691 35.8108 31.4802 35.7625 31.4802ZM35.4765 30.6957V29.1266L34.1211 29.9111L35.4765 30.6957ZM33.5454 29.5797L35.4728 28.4637V26.5631L31.9003 28.6294L33.5454 29.5797ZM31.3284 28.2979L35.4728 25.9002V23.996L29.6832 27.344L31.3284 28.2979ZM29.1113 27.0125L35.4728 23.333V21.4288L27.4699 26.0622L29.1113 27.0125Z" fill="#DBF1C1"/>
<path d="M35.8554 20.7729C35.8331 20.7618 35.8108 20.7581 35.7885 20.7544C35.7811 20.7544 35.7737 20.7471 35.7625 20.7471C35.7477 20.7471 35.7328 20.7544 35.718 20.7581C35.7031 20.7618 35.6845 20.7618 35.6734 20.7692L26.8015 25.9035C26.7458 25.9366 26.7086 25.9956 26.7086 26.0619C26.7086 26.1282 26.742 26.1871 26.8015 26.2202L35.6697 31.3509C35.6994 31.3656 35.7291 31.3767 35.7625 31.3767C35.7959 31.3767 35.8257 31.3693 35.8554 31.3509C35.9111 31.3177 35.9482 31.2588 35.9482 31.1925V30.8721V28.7322V28.3086V26.1687V25.7451V23.6052V23.1816V21.2517V20.9312C35.9482 20.8649 35.9148 20.806 35.8554 20.7729ZM35.5805 30.8758L33.9131 29.9108L35.5805 28.9458V30.8758ZM35.5805 28.5222L33.5492 29.6972L31.6998 28.6254L35.5843 26.3786V28.5222H35.5805ZM35.5805 25.9587L31.3321 28.4154L29.4827 27.3436L35.5843 23.8151V25.9587H35.5805ZM29.1114 27.1337L27.262 26.0619L31.4138 23.6605L35.5805 21.2517V23.3916L29.1114 27.1337Z" fill="#DBF1C1"/>
<path d="M18.026 31.4794C17.9778 31.4794 17.9332 31.4684 17.8886 31.4463L17.8775 31.4426L17.8515 31.4315V31.4279L9.013 26.3083C8.92387 26.2567 8.86816 26.1609 8.86816 26.0615C8.86816 25.962 8.92387 25.8663 9.013 25.8147L17.8701 20.6914L17.8738 20.6878L17.8849 20.6841L17.8924 20.6804L17.8998 20.6767C17.9221 20.6657 17.9406 20.662 17.9518 20.662L17.9666 20.6583C17.9815 20.6546 18.0038 20.6436 18.0335 20.6436C18.052 20.6436 18.0706 20.6472 18.078 20.6509C18.1077 20.6546 18.1412 20.662 18.1746 20.6804L18.1894 20.6914V20.6951C18.2674 20.743 18.3157 20.8351 18.3157 20.9308V31.1921C18.3157 31.2547 18.2934 31.3174 18.2563 31.3652L18.2711 31.3873L18.1709 31.4389C18.1263 31.4647 18.078 31.4794 18.026 31.4794ZM17.7401 30.6949V29.1259L16.3846 29.9104L17.7401 30.6949ZM15.809 29.5789L17.7364 28.4629V26.5624L14.1638 28.6286L15.809 29.5789ZM13.5919 28.2972L17.7364 25.8994V23.9952L11.9468 27.3432L13.5919 28.2972ZM11.3749 27.0117L17.7364 23.3323V21.4281L9.73345 26.0615L11.3749 27.0117Z" fill="#DBF1C1"/>
<path d="M18.1189 20.7729C18.0966 20.7618 18.0743 20.7581 18.0521 20.7544C18.0446 20.7544 18.0372 20.7471 18.0261 20.7471C18.0112 20.7471 17.9964 20.7544 17.9815 20.7581C17.9666 20.7618 17.9481 20.7618 17.9369 20.7692L9.06501 25.9035C9.0093 25.9366 8.97217 25.9956 8.97217 26.0619C8.97217 26.1282 9.00559 26.1871 9.06501 26.2202L17.9332 31.3509C17.9629 31.3656 17.9926 31.3767 18.0261 31.3767C18.0595 31.3767 18.0892 31.3693 18.1189 31.3509C18.1746 31.3177 18.2117 31.2588 18.2117 31.1925V30.8721V28.7322V28.3086V26.1687V25.7451V23.6052V23.1816V21.2517V20.9312C18.2117 20.8649 18.1783 20.806 18.1189 20.7729ZM17.8441 30.8721L16.1767 29.9071L17.8441 28.9421V30.8721ZM17.8441 28.5222L15.8127 29.6972L13.9633 28.6254L17.8478 26.3786V28.5222H17.8441ZM17.8441 25.9587L13.592 28.4154L11.7426 27.3436L17.8441 23.8151V25.9587ZM11.3749 27.1337L9.5255 26.0619L13.6774 23.6605L17.8441 21.2517V23.3916L11.3749 27.1337Z" fill="#DBF1C1"/>
<path d="M18.026 31.4794C17.9963 31.4794 17.9741 31.4721 17.9592 31.4647L17.9518 31.461C17.9332 31.4573 17.9109 31.4536 17.8886 31.4426H17.8849L17.8738 31.4389L17.8664 31.4352L17.8626 31.4315L9.013 26.3083C8.92387 26.2567 8.86816 26.1609 8.86816 26.0615C8.86816 25.9584 8.92387 25.8663 9.013 25.8147L17.8701 20.6914L17.8738 20.6878L17.8924 20.6767C17.9332 20.6546 17.9815 20.6436 18.0298 20.6436C18.0817 20.6436 18.13 20.6583 18.1746 20.6804L18.2749 20.732L18.26 20.7541C18.2971 20.8019 18.3194 20.8645 18.3194 20.9272V31.1884C18.3194 31.2879 18.2674 31.38 18.182 31.4315H18.1783C18.1375 31.4536 18.1003 31.461 18.0743 31.4647C18.0632 31.4721 18.0483 31.4794 18.026 31.4794ZM17.7401 30.6949V28.7907L11.3786 25.1112L9.73345 26.0615L17.7401 30.6949ZM17.7401 28.1277V26.2235L13.5919 23.8258L11.9468 24.7761L17.7401 28.1277ZM17.7401 25.5643V23.6637L15.8127 22.5477L14.1676 23.498L17.7401 25.5643ZM17.7401 22.9971V21.4281L16.3846 22.2126L17.7401 22.9971Z" fill="#DBF1C1"/>
<path d="M18.2117 31.1925V30.8721V28.9458V28.5222V26.3823V25.9587V23.8188V23.3953V21.2517V20.9312C18.2117 20.8649 18.1783 20.806 18.1189 20.7729C18.0892 20.7581 18.0595 20.7471 18.0261 20.7471C17.9926 20.7471 17.9629 20.7544 17.9332 20.7729L9.06501 25.9035C9.0093 25.9366 8.97217 25.9956 8.97217 26.0619C8.97217 26.1282 9.00559 26.1871 9.06501 26.2202L17.9332 31.3509C17.9481 31.3583 17.9629 31.3583 17.9778 31.3619C17.9926 31.3656 18.0075 31.373 18.0224 31.373C18.0298 31.373 18.0372 31.3693 18.0483 31.3656C18.0706 31.3619 18.0966 31.3583 18.1152 31.3472C18.1783 31.3177 18.2117 31.2588 18.2117 31.1925ZM17.8441 23.178L16.1767 22.213L17.8441 21.2517V23.178ZM17.8441 25.7414L13.9596 23.4947L15.809 22.4229L17.8404 23.5978V25.7414H17.8441ZM17.8441 28.3086L11.7426 24.7801L13.592 23.7083L17.8404 26.165V28.3086H17.8441ZM17.8441 28.7322V30.8721L13.6811 28.4633L9.52922 26.0619L11.3786 24.9901L17.8441 28.7322Z" fill="#DBF1C1"/>
<path d="M26.8943 36.6105C26.846 36.6105 26.8014 36.5995 26.7569 36.5774L26.6306 36.5368L26.6603 36.4963C26.6232 36.4484 26.6046 36.3895 26.6046 36.3269V26.0619C26.6046 25.9662 26.6529 25.8741 26.7346 25.8225H26.7383L26.7494 25.8152C26.7866 25.7967 26.82 25.7894 26.846 25.7857C26.8571 25.782 26.872 25.7783 26.8906 25.7783C26.9203 25.7783 26.9426 25.7857 26.9574 25.7931L26.9648 25.7967C26.9834 25.8004 27.0057 25.8041 27.028 25.8152H27.0317L27.0391 25.8188L27.0503 25.8225L35.911 30.9458C36.0002 30.9974 36.0559 31.0931 36.0559 31.1926C36.0559 31.2957 36.0002 31.3878 35.911 31.4393L27.0614 36.5589L27.0577 36.5626L27.0354 36.5737L27.0317 36.5774C26.9908 36.5995 26.9426 36.6105 26.8943 36.6105ZM27.1839 35.826L28.5394 35.0415L27.1839 34.257V35.826ZM29.1113 34.71L30.7565 33.7597L27.1839 31.6935V33.594L29.1113 34.71ZM31.3284 33.4282L32.9735 32.478L27.1839 29.1263V31.0305L31.3284 33.4282ZM33.5454 32.1428L35.1906 31.1926L27.1839 26.5592V28.4633L33.5454 32.1428Z" fill="#DBF1C1"/>
<path d="M26.7123 26.0623V26.3827V28.309V28.7326V30.8725V31.2961V33.436V33.8596V35.9995V36.3199C26.7123 36.3862 26.7457 36.4451 26.8051 36.4783C26.8348 36.493 26.8645 36.5041 26.898 36.5041C26.9314 36.5041 26.9611 36.4967 26.9908 36.4783L35.859 31.3476C35.9147 31.3145 35.9519 31.2556 35.9519 31.1893C35.9519 31.123 35.9184 31.064 35.859 31.0309L26.9871 25.9039C26.9722 25.8966 26.9574 25.8966 26.9425 25.8929C26.9277 25.8892 26.9128 25.8818 26.898 25.8818C26.8905 25.8818 26.8831 25.8855 26.872 25.8892C26.8497 25.8929 26.8237 25.8966 26.8051 25.9076C26.7457 25.9371 26.7123 25.996 26.7123 26.0623ZM27.0799 34.0769L28.7474 35.0419L27.0799 36.0068V34.0769ZM27.0799 31.5134L30.9644 33.7601L29.115 34.8319L27.0836 33.657V31.5134H27.0799ZM27.0799 28.9462L33.1815 32.4747L31.3321 33.5465L27.0836 31.0898V28.9462H27.0799ZM27.0799 28.5227V26.3827L31.2429 28.7915L35.3948 31.193L33.5454 32.2648L27.0799 28.5227Z" fill="#DBF1C1"/>
<path d="M18.0261 41.7411C17.9778 41.7411 17.9333 41.7301 17.8887 41.708L17.7624 41.6675L17.7922 41.627C17.755 41.5791 17.7365 41.5201 17.7365 41.4575V31.1926C17.7365 31.0968 17.7847 31.0047 17.8664 30.9532L17.8701 30.9495L17.8813 30.9421C17.9184 30.9237 17.9518 30.9163 17.9778 30.9126C17.989 30.909 18.0038 30.9053 18.0224 30.9053C18.0521 30.9053 18.0744 30.9126 18.0892 30.92L18.0967 30.9237C18.1115 30.9274 18.1338 30.9311 18.1524 30.9384C18.1561 30.9421 18.1635 30.9421 18.1672 30.9458L18.1784 30.9532L18.1821 30.9568L27.0354 36.0801C27.1246 36.1317 27.1803 36.2274 27.1803 36.3269C27.1803 36.43 27.1246 36.5221 27.0354 36.5737L18.1858 41.6933L18.1821 41.6969L18.1598 41.708L18.1412 41.719H18.1375C18.1078 41.7338 18.067 41.7411 18.0261 41.7411ZM18.3158 40.9566L19.6713 40.1721L18.3158 39.3876V40.9566ZM20.2432 39.8406L21.8883 38.8904L18.3158 36.8241V38.7246L20.2432 39.8406ZM22.4602 38.5589L24.1054 37.6086L18.3158 34.2606V36.1648L22.4602 38.5589ZM24.6773 37.2771L26.3224 36.3269L18.3158 31.6935V33.5977L24.6773 37.2771Z" fill="#DBF1C1"/>
<path d="M17.8405 31.1922V31.5126V33.4389V33.8625V36.0024V36.426V38.5659V38.9894V41.1294V41.4498C17.8405 41.5161 17.8739 41.575 17.9333 41.6082C17.963 41.6229 17.9927 41.634 18.0261 41.634C18.0596 41.634 18.0893 41.6266 18.119 41.6082L26.9872 36.4775C27.0429 36.4444 27.08 36.3855 27.08 36.3192C27.08 36.2529 27.0466 36.1939 26.9872 36.1608L18.119 31.0338C18.1041 31.0265 18.0893 31.0265 18.0744 31.0228C18.0596 31.0191 18.0447 31.0117 18.0299 31.0117C18.0224 31.0117 18.015 31.0154 18.0039 31.0191C17.9816 31.0228 17.9556 31.0265 17.937 31.0375C17.8776 31.067 17.8405 31.1296 17.8405 31.1922ZM18.2118 39.2104L19.8793 40.1754L18.2118 41.1404V39.2104ZM18.2118 36.6433L22.0963 38.89L20.2469 39.9618L18.2155 38.7869V36.6433H18.2118ZM18.2118 34.0761L24.3134 37.6046L22.464 38.6764L18.2155 36.2197V34.0761H18.2118ZM18.2118 33.6525V31.5126L22.3748 33.9214L26.5267 36.3228L24.6773 37.3946L18.2118 33.6525Z" fill="#DBF1C1"/>
<path d="M18.0262 21.2187C18.0076 21.2187 17.989 21.215 17.9816 21.2113C17.9519 21.2076 17.9185 21.2003 17.8851 21.1818L17.8739 21.1745L17.8702 21.1708C17.7885 21.1192 17.7402 21.0272 17.7402 20.9314V10.6701C17.7402 10.6149 17.7588 10.5596 17.7885 10.5117L17.7439 10.4675L17.8925 10.416C17.9333 10.3939 17.9816 10.3828 18.0299 10.3828C18.0819 10.3828 18.1302 10.3975 18.1747 10.4196L18.1859 10.427L18.1896 10.4307L27.0429 15.5503C27.1321 15.6019 27.1878 15.6976 27.1878 15.7971C27.1878 15.8965 27.1321 15.9923 27.0429 16.0438L18.1933 21.1634L18.1896 21.1671L18.1673 21.1782L18.1487 21.1892H18.1413C18.1265 21.1929 18.1153 21.1966 18.1042 21.1966L18.0893 21.2003C18.0782 21.2113 18.0559 21.2187 18.0262 21.2187ZM18.3159 20.4342L26.3225 15.8007L24.6773 14.8505L18.3159 18.53V20.4342ZM18.3159 17.867L24.1054 14.519L22.4603 13.5687L18.3159 15.9665V17.867ZM18.3159 15.3035L21.8884 13.2373L20.2432 12.287L18.3159 13.403V15.3035ZM18.3159 12.7364L19.6713 11.9518L18.3159 11.1673V12.7364Z" fill="#DBF1C1"/>
<path d="M17.9333 21.0892C17.9333 21.0892 17.937 21.0892 17.9333 21.0892C17.9556 21.1002 17.9779 21.1039 18.0001 21.1076C18.0076 21.1076 18.015 21.115 18.0261 21.115C18.041 21.115 18.0558 21.1076 18.0707 21.1039C18.0856 21.1002 18.1041 21.1002 18.1153 21.0929L26.9835 15.9622C27.0392 15.9291 27.0763 15.8701 27.0763 15.8038C27.0763 15.7375 27.0429 15.6786 26.9835 15.6455L18.119 10.5111C18.0893 10.4964 18.0596 10.4854 18.0261 10.4854C17.9927 10.4854 17.963 10.4927 17.9333 10.5111C17.8776 10.5443 17.8405 10.6032 17.8405 10.6695V10.9899V13.1299V13.5534V15.6933V16.1169V18.2568V18.6804V20.6067V20.9271C17.8442 20.9971 17.8776 21.056 17.9333 21.0892ZM18.2118 10.9899L19.8793 11.9549L18.2118 12.9199V10.9899ZM18.2118 13.3398L20.2432 12.1649L22.0926 13.2367L18.2081 15.4834V13.3398H18.2118ZM18.2118 15.907L22.4602 13.4503L24.3096 14.5221L18.2118 18.0469V15.907ZM24.6773 14.7284L26.5267 15.8002L22.3748 18.2016L18.2118 20.6104V18.4704L24.6773 14.7284Z" fill="#DBF1C1"/>
<path d="M26.8943 36.6107C26.8757 36.6107 26.8571 36.607 26.8497 36.6034C26.82 36.5997 26.7866 36.5923 26.7532 36.5739L26.7346 36.5628L26.7309 36.5592C26.6529 36.5076 26.6046 36.4192 26.6046 36.3234V26.0621C26.6046 26.0032 26.6232 25.9516 26.6529 25.9038L26.638 25.889C26.638 25.889 26.7346 25.8264 26.7346 25.8227H26.7383L26.7494 25.8191L26.768 25.808H26.7754C26.8126 25.7896 26.8571 25.7822 26.898 25.7822C26.9388 25.7822 26.9834 25.7933 27.0205 25.808H27.028L27.0465 25.8191L27.054 25.8227L27.0577 25.8264L35.911 30.946C36.0002 30.9976 36.0559 31.0933 36.0559 31.1928C36.0559 31.2922 36.0002 31.388 35.911 31.4396L27.0577 36.5628L27.0465 36.5739L27.0243 36.5776L27.0168 36.5813H27.0094C26.9945 36.5886 26.9797 36.5886 26.9686 36.5923L26.9537 36.596C26.9463 36.6034 26.924 36.6107 26.8943 36.6107ZM27.1839 35.8262L35.1906 31.1928L33.5454 30.2425L27.1839 33.922V35.8262ZM27.1839 33.259L32.9735 29.9111L31.3284 28.9608L27.1839 31.3585V33.259ZM27.1839 30.6956L30.7565 28.6293L29.1113 27.6791L27.1839 28.7951V30.6956ZM27.1839 28.1284L28.5394 27.3439L27.1839 26.5594V28.1284Z" fill="#DBF1C1"/>
<path d="M26.8015 36.4818C26.8052 36.4818 26.8052 36.4818 26.8015 36.4818C26.8237 36.4928 26.846 36.4965 26.8683 36.5002C26.8757 36.5002 26.8832 36.5075 26.8943 36.5075C26.9092 36.5075 26.924 36.5002 26.9389 36.4965C26.9537 36.4928 26.9723 36.4928 26.9834 36.4854L35.8516 31.3548C35.9073 31.3216 35.9445 31.2627 35.9445 31.1964C35.9445 31.1301 35.9111 31.0712 35.8516 31.038L26.9871 25.9037C26.9574 25.889 26.9277 25.8779 26.8943 25.8779C26.8609 25.8779 26.8312 25.8853 26.8015 25.9037C26.7458 25.9369 26.7086 25.9958 26.7086 26.0621V26.3825V28.5224V28.946V31.0859V31.5095V33.6494V34.073V35.9993V36.3197C26.7123 36.3897 26.7458 36.4486 26.8015 36.4818ZM27.08 26.3825L28.7474 27.3475L27.08 28.3125V26.3825ZM27.08 28.7324L29.1114 27.5575L30.9608 28.6293L27.0763 30.876V28.7324H27.08ZM27.08 31.2995L31.3284 28.8429L33.1778 29.9147L27.0763 33.4431V31.2995H27.08ZM33.5455 30.1209L35.3949 31.1927L31.243 33.5942L27.08 36.0029V33.863L33.5455 30.1209Z" fill="#DBF1C1"/>
<path d="M18.0261 41.7414C18.0075 41.7414 17.989 41.7377 17.9816 41.734C17.9518 41.7303 17.9184 41.7229 17.885 41.7045L17.8664 41.6935L17.8627 41.6898C17.7847 41.6382 17.7365 41.5498 17.7365 41.4541V31.1928C17.7365 31.1339 17.755 31.0823 17.7847 31.0344L17.7699 31.0197C17.7699 31.0197 17.8627 30.9571 17.8664 30.9534L17.8701 30.9497L17.8776 30.946L17.8961 30.935H17.9036C17.9407 30.9165 17.9853 30.9092 18.0261 30.9092C18.067 30.9092 18.1115 30.9202 18.1487 30.935H18.1672L18.1821 30.9497L27.0392 36.073C27.1283 36.1245 27.184 36.2203 27.184 36.3197C27.184 36.4192 27.1283 36.515 27.0392 36.5665L18.1858 41.6861L18.1747 41.6972H18.1672L18.1598 41.7045L18.1412 41.7082C18.1264 41.7156 18.1115 41.7156 18.1004 41.7193L18.0855 41.7229C18.0781 41.734 18.0558 41.7414 18.0261 41.7414ZM18.3158 40.9568L26.3224 36.3234L24.6773 35.3732L18.3158 39.0526V40.9568ZM18.3158 38.3934L24.1054 35.0454L22.4602 34.0951L18.3158 36.4928V38.3934ZM18.3158 35.8262L21.8883 33.7599L20.2432 32.8097L18.3158 33.9257V35.8262ZM18.3158 33.2627L19.6713 32.4782L18.3158 31.6937V33.2627Z" fill="#DBF1C1"/>
<path d="M17.9333 41.6126C17.9333 41.6126 17.9333 41.6163 17.9333 41.6126C17.9556 41.6237 17.9779 41.6273 18.0001 41.631C18.0076 41.631 18.015 41.6384 18.0261 41.6384C18.041 41.6384 18.0558 41.631 18.0707 41.6273C18.0856 41.6237 18.1041 41.6237 18.1153 41.6163L26.9835 36.4857C27.0392 36.4525 27.0763 36.3936 27.0763 36.3273C27.0763 36.261 27.0429 36.202 26.9835 36.1689L18.119 31.0346C18.0893 31.0198 18.0596 31.0088 18.0261 31.0088C17.9927 31.0088 17.963 31.0162 17.9333 31.0346C17.8776 31.0677 17.8405 31.1267 17.8405 31.1929V31.5134V33.6533V34.0769V36.2168V36.6403V38.7803V39.2038V41.1301V41.4506C17.8405 41.5205 17.8776 41.5831 17.9333 41.6126ZM18.2118 31.5134L19.8793 32.4784L18.2118 33.4434V31.5134ZM18.2118 33.8632L20.2432 32.6883L22.0926 33.7601L18.2081 36.0068V33.8632H18.2118ZM18.2118 36.4304L22.4602 33.9737L24.3096 35.0455L18.2081 38.574V36.4304H18.2118ZM24.6773 35.2555L26.5267 36.3273L22.3748 38.7287L18.2118 41.1375V38.9976L24.6773 35.2555Z" fill="#DBF1C1"/>
<path d="M9.15778 36.6103C9.13921 36.6103 9.12064 36.6066 9.11321 36.6029C9.08351 36.5992 9.05008 36.5919 9.01666 36.5734L9.00552 36.5661L9.0018 36.5624C8.9201 36.5108 8.87183 36.4188 8.87183 36.323V26.0617C8.87183 26.0028 8.89039 25.9512 8.9201 25.9033L8.90525 25.8886C8.90525 25.8886 9.0018 25.826 9.0018 25.8223L9.00552 25.8186L9.01666 25.8112L9.03523 25.8002H9.04265C9.07979 25.7818 9.12436 25.7744 9.16521 25.7744C9.20606 25.7744 9.25062 25.7855 9.28776 25.8002H9.30261L9.31747 25.8149L9.32489 25.8186L18.1745 30.9382C18.2637 30.9898 18.3194 31.0855 18.3194 31.185C18.3194 31.2844 18.2637 31.3802 18.1745 31.4318L9.32118 36.5624L9.31747 36.5661L9.2989 36.5734L9.29147 36.5771H9.28776C9.26919 36.5845 9.25062 36.5882 9.23948 36.5919H9.23205C9.20977 36.6029 9.18749 36.6103 9.15778 36.6103ZM9.44744 35.8258L17.4541 31.1923L15.8089 30.2421L9.44744 33.9216V35.8258ZM9.44744 33.2586L15.237 29.9106L13.5919 28.9603L9.44744 31.3581V33.2586ZM9.44744 30.6951L13.02 28.6289L11.3748 27.6786L9.44744 28.7946V30.6951ZM9.44744 28.128L10.8029 27.3434L9.44744 26.5589V28.128Z" fill="#DBF1C1"/>
<path d="M9.06501 36.4818C9.08729 36.4928 9.10957 36.4965 9.13186 36.5002C9.13928 36.5002 9.14671 36.5075 9.15785 36.5075C9.17271 36.5075 9.18756 36.5002 9.20242 36.4965C9.21727 36.4928 9.23584 36.4928 9.24698 36.4854L18.1152 31.3548C18.1709 31.3216 18.208 31.2627 18.208 31.1964C18.208 31.1301 18.1746 31.0712 18.1152 31.038L9.25069 25.9037C9.22098 25.889 9.19127 25.8779 9.15785 25.8779C9.12443 25.8779 9.09472 25.8853 9.06501 25.9037C9.0093 25.9369 8.97217 25.9958 8.97217 26.0621V26.3825V28.5224V28.946V31.0859V31.5095V33.6494V34.073V35.9993V36.3197C8.97588 36.3897 9.0093 36.4486 9.06501 36.4818ZM9.34353 26.3825L11.011 27.3475L9.34353 28.3125V26.3825ZM9.34353 28.7324L11.3749 27.5575L13.2243 28.6293L9.33982 30.876V28.7324H9.34353ZM9.34353 31.2995L13.592 28.8392L15.4414 29.911L9.33982 33.4395V31.2995H9.34353ZM15.809 30.1209L17.6584 31.1927L13.5065 33.5942L9.34353 36.0029V33.863L15.809 30.1209Z" fill="#DBF1C1"/>
<path d="M9.15788 36.6105C9.1096 36.6105 9.05761 36.5958 9.01305 36.5737L8.98705 36.5589V36.5553L0.144833 31.4393C0.103982 31.4172 0.0779868 31.3841 0.0594185 31.3546C0.0185683 31.3067 0 31.2515 0 31.1926C0 31.1336 0.0185683 31.0821 0.0557049 31.0268C0.0742731 30.9974 0.100269 30.9679 0.141119 30.9421L8.98705 25.8299V25.8262L9.01676 25.8115L9.03161 25.8041H9.03533C9.05018 25.8004 9.06504 25.7967 9.07246 25.7967L9.08732 25.7931C9.10217 25.7894 9.12817 25.7783 9.15788 25.7783C9.18387 25.7783 9.20244 25.7857 9.21358 25.7894H9.22101C9.23958 25.7931 9.26558 25.7967 9.29528 25.8115L9.31385 25.8225L9.46611 25.9109V36.4779L9.29528 36.5774C9.25072 36.5995 9.20244 36.6105 9.15788 36.6105ZM8.86821 35.826V34.257L7.51273 35.0415L8.86821 35.826ZM6.67344 34.5553V32.9605L5.29568 33.7597L6.67344 34.5553ZM7.25277 34.5295L8.58598 33.7597L7.25277 32.99V34.5295ZM4.46382 33.2772V31.6751L3.07862 32.4743L4.46382 33.2772ZM8.86821 33.2588V31.6898L7.51273 32.4743L8.86821 33.2588ZM5.03943 33.2441L6.36521 32.478L5.03943 31.7119V33.2441ZM2.25048 31.9955V30.3896L0.861568 31.1926L2.25048 31.9955ZM6.67344 31.9918V30.397L5.29568 31.1963L6.67344 31.9918ZM7.25277 31.9624L8.58598 31.1926L7.25277 30.4228V31.9624ZM2.82609 31.9587L4.14816 31.1926L2.82609 30.4265V31.9587ZM4.46382 30.7101V29.1079L3.07862 29.9071L4.46382 30.7101ZM8.86821 30.6953V29.1263L7.51273 29.9108L8.86821 30.6953ZM5.03943 30.6769L6.36521 29.9108L5.03943 29.1447V30.6769ZM6.67344 29.4247V27.8298L5.29568 28.6291L6.67344 29.4247ZM7.25277 29.3989L8.58598 28.6291L7.25277 27.8593V29.3989ZM8.86821 28.1282V26.5592L7.51273 27.3437L8.86821 28.1282Z" fill="#DBF1C1"/>
<path d="M9.25074 25.9039C9.23217 25.8929 9.20989 25.8929 9.19132 25.8892C9.18018 25.8855 9.16904 25.8818 9.1579 25.8818C9.13933 25.8818 9.12448 25.8892 9.10962 25.8966C9.09477 25.9003 9.07991 25.9003 9.06877 25.9076L8.9945 25.9481L7.15253 27.0163L6.78116 27.2299L4.93919 28.2943L4.56782 28.5079L2.72585 29.5724L2.35448 29.786L0.512506 30.8504L0.196845 31.0346C0.174563 31.0493 0.155995 31.0677 0.14114 31.0898C0.118859 31.1193 0.104004 31.1561 0.104004 31.193C0.104004 31.2298 0.118859 31.2666 0.14114 31.2961C0.155995 31.3182 0.17085 31.3366 0.196845 31.3513L0.512506 31.5355L2.35448 32.5999L2.72585 32.8135L4.56782 33.878L4.93919 34.0916L6.78116 35.156L7.15253 35.3697L8.9945 36.4341L9.06877 36.4746C9.09848 36.4893 9.12819 36.5004 9.16161 36.5004C9.19504 36.5004 9.22475 36.493 9.25446 36.4746L9.36586 36.412V35.9884V34.0842V33.8485V33.6644V33.4286V31.5244V31.2887V31.1009V30.8652V28.961V28.7252V28.5374V28.3017V26.3975V25.9665L9.25074 25.9039ZM7.30479 35.0419L8.97222 34.0769V36.0032L7.30479 35.0419ZM2.35448 30.2096V32.1764L0.657339 31.193L2.35448 30.2096ZM2.72213 30.2501L4.35614 31.193L2.72213 32.1395V30.2501ZM7.14881 32.8099L8.79025 33.7601L7.14881 34.7104V32.8099ZM7.14881 27.6792L8.79025 28.6295L7.14881 29.5797V27.6792ZM8.97222 30.8762L7.30479 29.9112L8.97222 28.9462V30.8762ZM8.97222 33.4397L7.30479 32.4747L8.97222 31.5097V33.4397ZM7.14881 30.2427L8.79025 31.193L7.14881 32.1432V30.2427ZM6.77745 32.169L5.08773 31.193L6.77745 30.2169V32.169ZM8.97222 28.309L7.30479 27.3441L8.97222 26.3791V28.309ZM4.93547 30.8578V28.9646L6.57319 29.9112L4.93547 30.8578ZM4.93547 31.5281L6.57319 32.4747L4.93547 33.4213V31.5281ZM6.77745 27.6498V29.6055L5.08773 28.6295L6.77745 27.6498ZM4.56782 28.9315V30.8909L2.87439 29.9112L4.56782 28.9315ZM2.87439 32.4747L4.56782 31.495V33.4544L2.87439 32.4747ZM6.77745 32.7804V34.7362L5.08773 33.7601L6.77745 32.7804Z" fill="#DBF1C1"/>
<path d="M18.0187 41.7411C17.9704 41.7411 17.9258 41.7301 17.885 41.708L17.859 41.6933L9.00562 36.5737C8.96477 36.5516 8.93877 36.5184 8.92021 36.4889C8.88307 36.4374 8.8645 36.3821 8.8645 36.3232C8.8645 36.268 8.88307 36.2127 8.92021 36.1575C8.93877 36.128 8.96477 36.0985 9.00562 36.0727L17.8924 30.9311H17.8998C17.9147 30.9274 17.9295 30.9237 17.937 30.9237L17.9518 30.92C17.9667 30.9126 17.9927 30.9053 18.0224 30.9053C18.0484 30.9053 18.0669 30.9126 18.0781 30.9163H18.0855C18.1004 30.92 18.1226 30.9237 18.1449 30.9311H18.1524L18.1709 30.9421L18.1858 30.9495L18.3306 31.0342V41.6012L18.1598 41.7006H18.1561C18.1078 41.7301 18.0632 41.7411 18.0187 41.7411ZM17.729 40.9566V39.3876L16.3735 40.1721L17.729 40.9566ZM15.5342 39.6859V38.0911L14.1565 38.8904L15.5342 39.6859ZM16.1136 39.6601L17.4468 38.8904L16.1136 38.1206V39.6601ZM13.3246 38.4079V36.8057L11.9394 37.6049L13.3246 38.4079ZM17.729 38.3895V36.8204L16.3735 37.6049L17.729 38.3895ZM13.9002 38.3747L15.226 37.6086L13.9002 36.8425V38.3747ZM11.1113 37.1261V35.5203L9.72236 36.3232L11.1113 37.1261ZM15.5342 37.1224V35.5276L14.1565 36.3269L15.5342 37.1224ZM16.1136 37.0967L17.4468 36.3269L16.1136 35.5571V37.0967ZM11.6869 37.0893L13.0089 36.3232L11.6869 35.5571V37.0893ZM13.3246 35.8407V34.2385L11.9394 35.0378L13.3246 35.8407ZM17.729 35.826V34.2569L16.3735 35.0415L17.729 35.826ZM13.9002 35.8112L15.226 35.0415L13.9002 34.2754V35.8112ZM15.5342 34.5553V32.9605L14.1565 33.7597L15.5342 34.5553ZM16.1136 34.5295L17.4468 33.7597L16.1136 32.9899V34.5295ZM17.729 33.2588V31.6898L16.3735 32.4743L17.729 33.2588Z" fill="#DBF1C1"/>
<path d="M18.1115 31.0338C18.0929 31.0228 18.0706 31.0228 18.052 31.0191C18.0409 31.0154 18.0298 31.0117 18.0186 31.0117C18.0001 31.0117 17.9852 31.0191 17.9703 31.0265C17.9555 31.0301 17.9406 31.0301 17.9295 31.0375L17.8552 31.078L16.0132 32.1424L15.6419 32.3561L13.7999 33.4205L13.4285 33.6341L11.5866 34.6986L11.2152 34.9122L9.37322 35.984L9.05756 36.1681C9.03528 36.1829 9.01671 36.2013 9.00186 36.2234C8.97958 36.2529 8.96472 36.2897 8.96472 36.3265C8.96472 36.367 8.97958 36.4002 9.00186 36.4296C9.01671 36.4517 9.03157 36.4702 9.05756 36.4849L9.37322 36.6691L11.2152 37.7335L11.5866 37.9471L13.4285 39.0115L13.7999 39.2252L15.6419 40.2896L16.0132 40.5032L17.8552 41.5677L17.9295 41.6082C17.9592 41.6229 17.9889 41.634 18.0223 41.634C18.0558 41.634 18.0855 41.6266 18.1152 41.6082L18.2266 41.5456V41.122V39.2178V38.9821V38.7942V38.5585V36.6543V36.4186V36.2308V35.995V34.0908V33.8551V33.6636V33.4279V31.5237V31.1001L18.1115 31.0338ZM16.1655 40.1717L17.8329 39.2068V41.133L16.1655 40.1717ZM11.2152 35.3431V37.3099L9.51806 36.3265L11.2152 35.3431ZM11.5829 35.3799L13.2169 36.3228L11.5829 37.2694V35.3799ZM16.0095 37.9397L17.651 38.89L16.0095 39.8403V37.9397ZM16.0095 32.8091L17.651 33.7594L16.0095 34.7096V32.8091ZM17.8329 36.0061L16.1655 35.0411L17.8329 34.0761V36.0061ZM17.8329 38.5696L16.1655 37.6046L17.8329 36.6396V38.5696ZM16.0095 35.3726L17.651 36.3228L16.0095 37.2731V35.3726ZM15.6382 37.3026L13.9485 36.3265L15.6382 35.3505V37.3026ZM17.8329 33.4389L16.1655 32.4739L17.8329 31.5089V33.4389ZM13.7962 35.9877V34.0945L15.4339 35.0411L13.7962 35.9877ZM13.7962 36.658L15.4339 37.6046L13.7962 38.5512V36.658ZM15.6382 32.7796V34.7354L13.9485 33.7594L15.6382 32.7796ZM13.4285 34.0614V36.0208L11.7351 35.0411L13.4285 34.0614ZM11.7351 37.6083L13.4285 36.6285V38.588L11.7351 37.6083ZM15.6382 37.914V39.8697L13.9485 38.8937L15.6382 37.914Z" fill="#DBF1C1"/>
<path d="M26.8943 16.088C26.846 16.088 26.794 16.0733 26.7494 16.0512C26.6603 15.9996 26.6046 15.9039 26.6046 15.8044V5.53946C26.6046 5.43633 26.6603 5.34057 26.7494 5.29269C26.794 5.26691 26.8423 5.25586 26.8943 5.25586C26.9463 5.25586 26.9945 5.27059 27.0391 5.29637L35.911 10.4233C36.0002 10.4749 36.0559 10.5707 36.0559 10.6701C36.0559 10.7732 36.0002 10.8653 35.911 10.9169L27.0428 16.0475C26.9983 16.0733 26.9463 16.088 26.8943 16.088ZM27.1839 15.3035L35.1906 10.6701L27.1839 6.03669V15.3035Z" fill="#DBF1C1"/>
<path d="M26.8943 15.9851C26.8609 15.9851 26.8312 15.9778 26.8015 15.9593C26.7458 15.9262 26.7086 15.8673 26.7086 15.801V5.53968C26.7086 5.47339 26.7458 5.41446 26.8015 5.38131C26.8609 5.34816 26.9277 5.34816 26.9871 5.38131L35.8554 10.512C35.9111 10.5451 35.9482 10.604 35.9482 10.6703C35.9482 10.7366 35.9148 10.7956 35.8554 10.8287L26.9871 15.9593C26.9611 15.9778 26.9277 15.9851 26.8943 15.9851ZM27.08 5.86012V15.4842L35.3986 10.674L27.08 5.86012Z" fill="#DBF1C1"/>
<path fill-rule="evenodd" clip-rule="evenodd" d="M46.0729 30.9263C45.3622 30.5811 44.8421 30.0703 44.511 29.3925L45.7057 28.5758C45.9135 29.1084 46.275 29.5077 46.7895 29.774C47.304 30.0399 47.9104 30.1733 48.609 30.1733C49.3312 30.1733 49.8825 30.0459 50.2627 29.7918C50.6422 29.5381 50.832 29.2177 50.832 28.8299C50.832 28.4799 50.6546 28.1984 50.2995 27.9865C49.9436 27.7743 49.3189 27.5898 48.4249 27.4328C47.5429 27.2761 46.845 27.085 46.3305 26.8605C45.8156 26.6372 45.4417 26.3527 45.2092 26.0079C44.9764 25.6634 44.8605 25.2368 44.8605 24.729C44.8605 24.2326 45.0071 23.7789 45.3011 23.3674C45.5955 22.9563 46.0181 22.6266 46.569 22.3785C47.1202 22.1303 47.757 22.0059 48.48 22.0059C49.4599 22.0059 50.247 22.1844 50.8414 22.5411C51.4354 22.8985 51.8614 23.4463 52.1182 24.1841L50.8687 24.9097C50.673 24.3293 50.3756 23.9122 49.9777 23.6574C49.5795 23.4033 49.0804 23.277 48.48 23.277C47.8796 23.277 47.3715 23.41 46.9552 23.6756C46.5382 23.9426 46.3305 24.2508 46.3305 24.6015C46.3305 25.0008 46.5109 25.309 46.8724 25.5268C47.2335 25.7446 47.8796 25.9327 48.8111 26.0894C50.0846 26.2957 50.9854 26.6039 51.5122 27.0154C52.0384 27.4265 52.302 28.0073 52.302 28.7577C52.302 29.2777 52.146 29.7407 51.8336 30.1459C51.5212 30.5514 51.0739 30.8692 50.4922 31.0985C49.9102 31.3285 49.2337 31.4433 48.4616 31.4433C47.58 31.4433 46.7835 31.2715 46.0729 30.9263Z" fill="#DBF1C1"/>
<path fill-rule="evenodd" clip-rule="evenodd" d="M58.8159 29.6288C59.3728 29.2662 59.6518 28.7939 59.6518 28.2131V26.9609L57.5938 27.342C56.7733 27.4876 56.1605 27.6957 55.7563 27.9687C55.3524 28.2406 55.1503 28.5884 55.1503 29.0117C55.1503 29.3873 55.2969 29.6743 55.5909 29.874C55.8853 30.0736 56.2951 30.1736 56.8224 30.1736C57.5938 30.1736 58.2583 29.9918 58.8159 29.6288ZM62.5554 30.1188L62.4635 31.2619C62.1204 31.3826 61.7525 31.4433 61.3606 31.4433C60.8833 31.4433 60.5064 31.3407 60.2304 31.1352C59.9551 30.9292 59.7804 30.5848 59.7069 30.1007C59.4249 30.524 59.0113 30.8541 58.4664 31.0896C57.9215 31.3256 57.3489 31.4433 56.7485 31.4433C55.8418 31.4433 55.0948 31.2352 54.5068 30.8178C53.9188 30.4003 53.6248 29.7985 53.6248 29.0114C53.6248 28.3221 53.9311 27.7258 54.5435 27.2239C55.1559 26.7216 56.0439 26.3738 57.2079 26.1805L59.6518 25.7812V25.2727C59.6518 24.6678 59.462 24.1841 59.0821 23.8208C58.7023 23.4578 58.1754 23.277 57.5019 23.277C56.8891 23.277 56.3596 23.4215 55.9126 23.7122C55.4649 24.0026 55.1195 24.4323 54.8743 25.0008L53.7905 24.22C54.035 23.543 54.4914 23.0041 55.1593 22.6048C55.8268 22.2055 56.6075 22.0059 57.5019 22.0059C58.592 22.0059 59.468 22.2662 60.1295 22.7863C60.7914 23.3067 61.1218 24.0748 61.1218 25.0912V29.5562C61.1218 29.774 61.1769 29.9373 61.2871 30.0459C61.3974 30.1551 61.5748 30.2092 61.8204 30.2092C62.0649 30.2092 62.3098 30.1796 62.5554 30.1188Z" fill="#DBF1C1"/>
<path fill-rule="evenodd" clip-rule="evenodd" d="M65.3479 28.8301C65.3479 29.2901 65.4181 29.6079 65.5591 29.7835C65.6997 29.9587 65.9603 30.0461 66.3402 30.0461C66.5974 30.0461 66.8209 30.0279 67.0111 29.992C67.2004 29.9557 67.4243 29.889 67.6816 29.7924L67.4427 31.1898C67.0384 31.3591 66.5851 31.4439 66.0829 31.4439C65.3356 31.4439 64.7809 31.2443 64.4198 30.8446C64.0587 30.4454 63.8779 29.835 63.8779 29.0116V18.0137H65.3479V28.8301Z" fill="#DBF1C1"/>
<path fill-rule="evenodd" clip-rule="evenodd" d="M73.3688 29.6288C73.9256 29.2662 74.2046 28.7939 74.2046 28.2131V26.9609L72.1466 27.342C71.3261 27.4876 70.7134 27.6957 70.3091 27.9687C69.9053 28.2406 69.7031 28.5884 69.7031 29.0117C69.7031 29.3873 69.8498 29.6743 70.1438 29.874C70.4381 30.0736 70.848 30.1736 71.3753 30.1736C72.1466 30.1736 72.8111 29.9918 73.3688 29.6288ZM77.1082 30.1188L77.0164 31.2619C76.6732 31.3826 76.3054 31.4433 75.9135 31.4433C75.4361 31.4433 75.0592 31.3407 74.7832 31.1352C74.508 30.9292 74.3332 30.5848 74.2597 30.1007C73.9777 30.524 73.5641 30.8541 73.0192 31.0896C72.4744 31.3256 71.9017 31.4433 71.3014 31.4433C70.3946 31.4433 69.6476 31.2352 69.0596 30.8178C68.4716 30.4003 68.1776 29.7985 68.1776 29.0114C68.1776 28.3221 68.484 27.7258 69.0964 27.2239C69.7087 26.7216 70.5967 26.3738 71.7607 26.1805L74.2046 25.7812V25.2727C74.2046 24.6678 74.0149 24.1841 73.635 23.8208C73.2551 23.4578 72.7282 23.277 72.0547 23.277C71.442 23.277 70.9125 23.4215 70.4655 23.7122C70.0177 24.0026 69.6724 24.4323 69.4271 25.0008L68.3434 24.22C68.5879 23.543 69.0442 23.0041 69.7121 22.6048C70.3796 22.2055 71.1604 22.0059 72.0547 22.0059C73.1449 22.0059 74.0209 22.2662 74.6824 22.7863C75.3442 23.3067 75.6746 24.0748 75.6746 25.0912V29.5562C75.6746 29.774 75.7297 29.9373 75.84 30.0459C75.9502 30.1551 76.1276 30.2092 76.3732 30.2092C76.6177 30.2092 76.8626 30.1796 77.1082 30.1188Z" fill="#DBF1C1"/>
<path fill-rule="evenodd" clip-rule="evenodd" d="M84.4119 29.2663C84.9324 28.6608 85.1927 27.8507 85.1927 26.8344V26.6166C85.1927 25.6002 84.9324 24.7891 84.4119 24.1842C83.891 23.5794 83.1898 23.2772 82.3082 23.2772C81.4138 23.2772 80.7092 23.5883 80.195 24.212C79.6805 24.8346 79.4229 25.6725 79.4229 26.7251C79.4229 27.7774 79.6805 28.6159 80.195 29.2389C80.7092 29.8623 81.4138 30.1734 82.3082 30.1734C83.1898 30.1734 83.891 29.8712 84.4119 29.2663ZM86.663 18.0137V31.2624H85.3764L85.2845 29.6839C85.0149 30.2161 84.6016 30.6424 84.0444 30.9628C83.4868 31.2832 82.853 31.4439 82.1424 31.4439C80.8565 31.4439 79.8365 31.0235 79.0831 30.1831C78.3298 29.3416 77.9529 28.1893 77.9529 26.7252C77.9529 25.2614 78.3298 24.1091 79.0831 23.268C79.8365 22.4272 80.8565 22.0061 82.1424 22.0061C82.8159 22.0061 83.4196 22.1516 83.9525 22.4417C84.4854 22.7324 84.899 23.1195 85.1926 23.6036V18.0137H86.663Z" fill="#DBF1C1"/>
</svg>
