<svg width="180" height="124" viewBox="0 0 180 124" fill="none" xmlns="http://www.w3.org/2000/svg">
          <path d="M78.8564 19.1962L87.5167 19.1962L83.1865 26.6962L78.8564 19.1962Z" stroke="#FFFF33"/>
          <path d="M109.989 19.1195L118.649 19.1195L114.319 26.6195L109.989 19.1195Z" stroke="#FFFF33"/>
          <path d="M109.606 72.4568L118.267 72.4568L113.937 79.9568L109.606 72.4568Z" stroke="#FFFF33"/>
          <path d="M140.739 72.3801L149.399 72.3801L145.069 79.8801L140.739 72.3801Z" stroke="#FFFF33"/>
          <path d="M94.3564 46.043L103.017 46.043L98.6865 53.543L94.3564 46.043Z" stroke="#FFFF33"/>
          <path d="M125.489 45.9663L134.149 45.9663L129.819 53.4663L125.489 45.9663Z" stroke="#FFFF33"/>
          <path d="M125.106 99.3035L133.767 99.3035L129.437 106.803L125.106 99.3035Z" stroke="#FFFF33"/>
          <path d="M156.239 99.2269L164.899 99.2269L160.569 106.727L156.239 99.2269Z" stroke="#FFFF33"/>
          <path d="M92.6686 45.1195L73.616 45.1195L83.1423 28.6195L92.6686 45.1195Z" stroke="#FFFF33"/>
          <path d="M123.801 45.043L104.749 45.043L114.275 28.543L123.801 45.043Z" stroke="#FFFF33"/>
          <path d="M123.419 98.3802L104.366 98.3802L113.892 81.8802L123.419 98.3802Z" stroke="#FFFF33"/>
          <path d="M154.551 98.3035L135.499 98.3035L145.025 81.8035L154.551 98.3035Z" stroke="#FFFF33"/>
          <path d="M108.169 71.9663L89.116 71.9663L98.6423 55.4663L108.169 71.9663Z" stroke="#FFFF33"/>
          <path d="M139.301 71.8897L120.249 71.8897L129.775 55.3897L139.301 71.8897Z" stroke="#FFFF33"/>
          <path d="M138.919 125.227L119.866 125.227L129.392 108.727L138.919 125.227Z" stroke="#FFFF33"/>
          <path d="M170.051 125.15L150.999 125.15L160.525 108.65L170.051 125.15Z" stroke="#FFFF33"/>
          <path d="M16.8564 19.1962L25.5167 19.1962L21.1865 26.6962L16.8564 19.1962Z" stroke="#FFFF33"/>
          <path d="M47.9891 19.1195L56.6493 19.1195L52.3192 26.6195L47.9891 19.1195Z" stroke="#FFFF33"/>
          <path d="M47.6064 72.4568L56.2667 72.4568L51.9365 79.9568L47.6064 72.4568Z" stroke="#FFFF33"/>
          <path d="M78.7391 72.3801L87.3993 72.3801L83.0692 79.8801L78.7391 72.3801Z" stroke="#FFFF33"/>
          <path d="M32.3564 46.043L41.0167 46.043L36.6865 53.543L32.3564 46.043Z" stroke="#FFFF33"/>
          <path d="M63.4891 45.9663L72.1493 45.9663L67.8192 53.4663L63.4891 45.9663Z" stroke="#FFFF33"/>
          <path d="M63.1064 99.3035L71.7667 99.3035L67.4365 106.803L63.1064 99.3035Z" stroke="#FFFF33"/>
          <path d="M94.2391 99.2269L102.899 99.2269L98.5692 106.727L94.2391 99.2269Z" stroke="#FFFF33"/>
          <path d="M30.6686 45.1195L11.616 45.1195L21.1423 28.6195L30.6686 45.1195Z" stroke="#FFFF33"/>
          <path d="M61.8013 45.043L42.7487 45.043L52.275 28.543L61.8013 45.043Z" stroke="#FFFF33"/>
          <path d="M61.4186 98.3802L42.366 98.3802L51.8923 81.8802L61.4186 98.3802Z" stroke="#FFFF33"/>
          <path d="M92.5513 98.3035L73.4987 98.3035L83.025 81.8035L92.5513 98.3035Z" stroke="#FFFF33"/>
          <path d="M46.1686 71.9663L27.116 71.9663L36.6423 55.4663L46.1686 71.9663Z" stroke="#FFFF33"/>
          <path d="M77.3013 71.8897L58.2487 71.8897L67.775 55.3897L77.3013 71.8897Z" stroke="#FFFF33"/>
          <path d="M76.9186 125.227L57.866 125.227L67.3923 108.727L76.9186 125.227Z" stroke="#FFFF33"/>
          <path d="M108.051 125.15L88.9987 125.15L98.525 108.65L108.051 125.15Z" stroke="#FFFF33"/>
        </svg>
