<svg width="172" height="252" viewBox="0 0 172 252" fill="none" xmlns="http://www.w3.org/2000/svg">
<path d="M11.6699 134.5L16 127L20.3301 134.5H11.6699Z" stroke="#6600CC"/>
<path d="M11.6699 62.5L16 55L20.3301 62.5H11.6699Z" stroke="#6600CC"/>
<path d="M11.6699 98.5L16 91L20.3301 98.5H11.6699Z" stroke="#6600CC"/>
<path d="M11.6699 26.5L16 19L20.3301 26.5H11.6699Z" stroke="#6600CC"/>
<path d="M91.6699 134.5L96 127L100.33 134.5H91.6699Z" stroke="#6600CC"/>
<path d="M91.6699 62.5L96 55L100.33 62.5H91.6699Z" stroke="#6600CC"/>
<path d="M91.6699 98.5L96 91L100.33 98.5H91.6699Z" stroke="#6600CC"/>
<path d="M91.6699 26.5L96 19L100.33 26.5H91.6699Z" stroke="#6600CC"/>
<path d="M51.6699 134.5L56 127L60.3301 134.5H51.6699Z" stroke="#6600CC"/>
<path d="M51.6699 62.5L56 55L60.3301 62.5H51.6699Z" stroke="#6600CC"/>
<path d="M51.6699 98.5L56 91L60.3301 98.5H51.6699Z" stroke="#6600CC"/>
<path d="M51.6699 26.5L56 19L60.3301 26.5H51.6699Z" stroke="#6600CC"/>
<path d="M131.67 134.5L136 127L140.33 134.5H131.67Z" stroke="#6600CC"/>
<path d="M131.67 62.5L136 55L140.33 62.5H131.67Z" stroke="#6600CC"/>
<path d="M131.67 98.5L136 91L140.33 98.5H131.67Z" stroke="#6600CC"/>
<path d="M131.67 26.5L136 19L140.33 26.5H131.67Z" stroke="#6600CC"/>
<path d="M31.6699 134.5L36 127L40.3301 134.5H31.6699Z" stroke="#6600CC"/>
<path d="M31.6699 62.5L36 55L40.3301 62.5H31.6699Z" stroke="#6600CC"/>
<path d="M31.6699 98.5L36 91L40.3301 98.5H31.6699Z" stroke="#6600CC"/>
<path d="M31.6699 26.5L36 19L40.3301 26.5H31.6699Z" stroke="#6600CC"/>
<path d="M111.67 134.5L116 127L120.33 134.5H111.67Z" stroke="#6600CC"/>
<path d="M111.67 62.5L116 55L120.33 62.5H111.67Z" stroke="#6600CC"/>
<path d="M111.67 98.5L116 91L120.33 98.5H111.67Z" stroke="#6600CC"/>
<path d="M111.67 26.5L116 19L120.33 26.5H111.67Z" stroke="#6600CC"/>
<path d="M71.6699 134.5L76 127L80.3301 134.5H71.6699Z" stroke="#6600CC"/>
<path d="M71.6699 62.5L76 55L80.3301 62.5H71.6699Z" stroke="#6600CC"/>
<path d="M71.6699 98.5L76 91L80.3301 98.5H71.6699Z" stroke="#6600CC"/>
<path d="M71.6699 26.5L76 19L80.3301 26.5H71.6699Z" stroke="#6600CC"/>
<path d="M151.67 134.5L156 127L160.33 134.5H151.67Z" stroke="#6600CC"/>
<path d="M151.67 62.5L156 55L160.33 62.5H151.67Z" stroke="#6600CC"/>
<path d="M151.67 98.5L156 91L160.33 98.5H151.67Z" stroke="#6600CC"/>
<path d="M151.67 26.5L156 19L160.33 26.5H151.67Z" stroke="#6600CC"/>
<path d="M20.3301 117.5L16 125L11.6699 117.5L20.3301 117.5Z" stroke="#6600CC"/>
<path d="M20.3301 45.5L16 53L11.6699 45.5L20.3301 45.5Z" stroke="#6600CC"/>
<path d="M20.3301 81.5L16 89L11.6699 81.5L20.3301 81.5Z" stroke="#6600CC"/>
<path d="M20.3301 9.5L16 17L11.6699 9.5L20.3301 9.5Z" stroke="#6600CC"/>
<path d="M100.33 117.5L96 125L91.6699 117.5L100.33 117.5Z" stroke="#6600CC"/>
<path d="M100.33 45.5L96 53L91.6699 45.5L100.33 45.5Z" stroke="#6600CC"/>
<path d="M100.33 81.5L96 89L91.6699 81.5L100.33 81.5Z" stroke="#6600CC"/>
<path d="M100.33 9.5L96 17L91.6699 9.5L100.33 9.5Z" stroke="#6600CC"/>
<path d="M60.3301 117.5L56 125L51.6699 117.5L60.3301 117.5Z" stroke="#6600CC"/>
<path d="M60.3301 45.5L56 53L51.6699 45.5L60.3301 45.5Z" stroke="#6600CC"/>
<path d="M60.3301 81.5L56 89L51.6699 81.5L60.3301 81.5Z" stroke="#6600CC"/>
<path d="M60.3301 9.5L56 17L51.6699 9.5L60.3301 9.5Z" stroke="#6600CC"/>
<path d="M140.33 117.5L136 125L131.67 117.5L140.33 117.5Z" stroke="#6600CC"/>
<path d="M140.33 45.5L136 53L131.67 45.5L140.33 45.5Z" stroke="#6600CC"/>
<path d="M140.33 81.5L136 89L131.67 81.5L140.33 81.5Z" stroke="#6600CC"/>
<path d="M140.33 9.5L136 17L131.67 9.5L140.33 9.5Z" stroke="#6600CC"/>
<path d="M40.3301 117.5L36 125L31.6699 117.5L40.3301 117.5Z" stroke="#6600CC"/>
<path d="M40.3301 45.5L36 53L31.6699 45.5L40.3301 45.5Z" stroke="#6600CC"/>
<path d="M40.3301 81.5L36 89L31.6699 81.5L40.3301 81.5Z" stroke="#6600CC"/>
<path d="M40.3301 9.5L36 17L31.6699 9.5L40.3301 9.5Z" stroke="#6600CC"/>
<path d="M120.33 117.5L116 125L111.67 117.5L120.33 117.5Z" stroke="#6600CC"/>
<path d="M120.33 45.5L116 53L111.67 45.5L120.33 45.5Z" stroke="#6600CC"/>
<path d="M120.33 81.5L116 89L111.67 81.5L120.33 81.5Z" stroke="#6600CC"/>
<path d="M120.33 9.5L116 17L111.67 9.5L120.33 9.5Z" stroke="#6600CC"/>
<path d="M80.3301 117.5L76 125L71.6699 117.5L80.3301 117.5Z" stroke="#6600CC"/>
<path d="M80.3301 45.5L76 53L71.6699 45.5L80.3301 45.5Z" stroke="#6600CC"/>
<path d="M80.3301 81.5L76 89L71.6699 81.5L80.3301 81.5Z" stroke="#6600CC"/>
<path d="M80.3301 9.5L76 17L71.6699 9.5L80.3301 9.5Z" stroke="#6600CC"/>
<path d="M160.33 117.5L156 125L151.67 117.5L160.33 117.5Z" stroke="#6600CC"/>
<path d="M160.33 45.5L156 53L151.67 45.5L160.33 45.5Z" stroke="#6600CC"/>
<path d="M160.33 81.5L156 89L151.67 81.5L160.33 81.5Z" stroke="#6600CC"/>
<path d="M160.33 9.5L156 17L151.67 9.5L160.33 9.5Z" stroke="#6600CC"/>
<path d="M30.3301 135.5L26 143L21.6699 135.5L30.3301 135.5Z" stroke="#6600CC"/>
<path d="M30.3301 63.5L26 71L21.6699 63.5L30.3301 63.5Z" stroke="#6600CC"/>
<path d="M30.3301 99.5L26 107L21.6699 99.5L30.3301 99.5Z" stroke="#6600CC"/>
<path d="M30.3301 27.5L26 35L21.6699 27.5L30.3301 27.5Z" stroke="#6600CC"/>
<path d="M110.33 135.5L106 143L101.67 135.5L110.33 135.5Z" stroke="#6600CC"/>
<path d="M110.33 63.5L106 71L101.67 63.5L110.33 63.5Z" stroke="#6600CC"/>
<path d="M110.33 99.5L106 107L101.67 99.5L110.33 99.5Z" stroke="#6600CC"/>
<path d="M110.33 27.5L106 35L101.67 27.5L110.33 27.5Z" stroke="#6600CC"/>
<path d="M70.3301 135.5L66 143L61.6699 135.5L70.3301 135.5Z" stroke="#6600CC"/>
<path d="M70.3301 63.5L66 71L61.6699 63.5L70.3301 63.5Z" stroke="#6600CC"/>
<path d="M70.3301 99.5L66 107L61.6699 99.5L70.3301 99.5Z" stroke="#6600CC"/>
<path d="M70.3301 27.5L66 35L61.6699 27.5L70.3301 27.5Z" stroke="#6600CC"/>
<path d="M150.33 135.5L146 143L141.67 135.5L150.33 135.5Z" stroke="#6600CC"/>
<path d="M150.33 63.5L146 71L141.67 63.5L150.33 63.5Z" stroke="#6600CC"/>
<path d="M150.33 99.5L146 107L141.67 99.5L150.33 99.5Z" stroke="#6600CC"/>
<path d="M150.33 27.5L146 35L141.67 27.5L150.33 27.5Z" stroke="#6600CC"/>
<path d="M50.3301 135.5L46 143L41.6699 135.5L50.3301 135.5Z" stroke="#6600CC"/>
<path d="M50.3301 63.5L46 71L41.6699 63.5L50.3301 63.5Z" stroke="#6600CC"/>
<path d="M50.3301 99.5L46 107L41.6699 99.5L50.3301 99.5Z" stroke="#6600CC"/>
<path d="M50.3301 27.5L46 35L41.6699 27.5L50.3301 27.5Z" stroke="#6600CC"/>
<path d="M130.33 135.5L126 143L121.67 135.5L130.33 135.5Z" stroke="#6600CC"/>
<path d="M130.33 63.5L126 71L121.67 63.5L130.33 63.5Z" stroke="#6600CC"/>
<path d="M130.33 99.5L126 107L121.67 99.5L130.33 99.5Z" stroke="#6600CC"/>
<path d="M130.33 27.5L126 35L121.67 27.5L130.33 27.5Z" stroke="#6600CC"/>
<path d="M90.3301 135.5L86 143L81.6699 135.5L90.3301 135.5Z" stroke="#6600CC"/>
<path d="M90.3301 63.5L86 71L81.6699 63.5L90.3301 63.5Z" stroke="#6600CC"/>
<path d="M90.3301 99.5L86 107L81.6699 99.5L90.3301 99.5Z" stroke="#6600CC"/>
<path d="M90.3301 27.5L86 35L81.6699 27.5L90.3301 27.5Z" stroke="#6600CC"/>
<path d="M170.33 135.5L166 143L161.67 135.5L170.33 135.5Z" stroke="#6600CC"/>
<path d="M170.33 63.5L166 71L161.67 63.5L170.33 63.5Z" stroke="#6600CC"/>
<path d="M170.33 99.5L166 107L161.67 99.5L170.33 99.5Z" stroke="#6600CC"/>
<path d="M170.33 27.5L166 35L161.67 27.5L170.33 27.5Z" stroke="#6600CC"/>
<path d="M1.66987 116.5L6 109L10.3301 116.5H1.66987Z" stroke="#6600CC"/>
<path d="M1.66987 44.5L6 37L10.3301 44.5H1.66987Z" stroke="#6600CC"/>
<path d="M1.66987 80.5L6 73L10.3301 80.5H1.66987Z" stroke="#6600CC"/>
<path d="M1.66987 8.5L6 1L10.3301 8.5H1.66987Z" stroke="#6600CC"/>
<path d="M81.6699 116.5L86 109L90.3301 116.5H81.6699Z" stroke="#6600CC"/>
<path d="M81.6699 44.5L86 37L90.3301 44.5H81.6699Z" stroke="#6600CC"/>
<path d="M81.6699 80.5L86 73L90.3301 80.5H81.6699Z" stroke="#6600CC"/>
<path d="M81.6699 8.5L86 1L90.3301 8.5H81.6699Z" stroke="#6600CC"/>
<path d="M41.6699 116.5L46 109L50.3301 116.5H41.6699Z" stroke="#6600CC"/>
<path d="M41.6699 44.5L46 37L50.3301 44.5H41.6699Z" stroke="#6600CC"/>
<path d="M41.6699 80.5L46 73L50.3301 80.5H41.6699Z" stroke="#6600CC"/>
<path d="M41.6699 8.5L46 1L50.3301 8.5H41.6699Z" stroke="#6600CC"/>
<path d="M121.67 116.5L126 109L130.33 116.5H121.67Z" stroke="#6600CC"/>
<path d="M121.67 44.5L126 37L130.33 44.5H121.67Z" stroke="#6600CC"/>
<path d="M121.67 80.5L126 73L130.33 80.5H121.67Z" stroke="#6600CC"/>
<path d="M121.67 8.5L126 1L130.33 8.5H121.67Z" stroke="#6600CC"/>
<path d="M21.6699 116.5L26 109L30.3301 116.5H21.6699Z" stroke="#6600CC"/>
<path d="M21.6699 44.5L26 37L30.3301 44.5H21.6699Z" stroke="#6600CC"/>
<path d="M21.6699 80.5L26 73L30.3301 80.5H21.6699Z" stroke="#6600CC"/>
<path d="M21.6699 8.5L26 1L30.3301 8.5H21.6699Z" stroke="#6600CC"/>
<path d="M101.67 116.5L106 109L110.33 116.5H101.67Z" stroke="#6600CC"/>
<path d="M101.67 44.5L106 37L110.33 44.5H101.67Z" stroke="#6600CC"/>
<path d="M101.67 80.5L106 73L110.33 80.5H101.67Z" stroke="#6600CC"/>
<path d="M101.67 8.5L106 1L110.33 8.5H101.67Z" stroke="#6600CC"/>
<path d="M61.6699 116.5L66 109L70.3301 116.5H61.6699Z" stroke="#6600CC"/>
<path d="M61.6699 44.5L66 37L70.3301 44.5H61.6699Z" stroke="#6600CC"/>
<path d="M61.6699 80.5L66 73L70.3301 80.5H61.6699Z" stroke="#6600CC"/>
<path d="M61.6699 8.5L66 1L70.3301 8.5H61.6699Z" stroke="#6600CC"/>
<path d="M141.67 116.5L146 109L150.33 116.5H141.67Z" stroke="#6600CC"/>
<path d="M141.67 44.5L146 37L150.33 44.5H141.67Z" stroke="#6600CC"/>
<path d="M141.67 80.5L146 73L150.33 80.5H141.67Z" stroke="#6600CC"/>
<path d="M141.67 8.5L146 1L150.33 8.5H141.67Z" stroke="#6600CC"/>
<path d="M11.6699 242.5L16 235L20.3301 242.5H11.6699Z" stroke="#6600CC"/>
<path d="M11.6699 170.5L16 163L20.3301 170.5H11.6699Z" stroke="#6600CC"/>
<path d="M11.6699 206.5L16 199L20.3301 206.5H11.6699Z" stroke="#6600CC"/>
<path d="M11.6699 134.5L16 127L20.3301 134.5H11.6699Z" stroke="#6600CC"/>
<path d="M91.6699 242.5L96 235L100.33 242.5H91.6699Z" stroke="#6600CC"/>
<path d="M91.6699 170.5L96 163L100.33 170.5H91.6699Z" stroke="#6600CC"/>
<path d="M91.6699 206.5L96 199L100.33 206.5H91.6699Z" stroke="#6600CC"/>
<path d="M91.6699 134.5L96 127L100.33 134.5H91.6699Z" stroke="#6600CC"/>
<path d="M51.6699 242.5L56 235L60.3301 242.5H51.6699Z" stroke="#6600CC"/>
<path d="M51.6699 170.5L56 163L60.3301 170.5H51.6699Z" stroke="#6600CC"/>
<path d="M51.6699 206.5L56 199L60.3301 206.5H51.6699Z" stroke="#6600CC"/>
<path d="M51.6699 134.5L56 127L60.3301 134.5H51.6699Z" stroke="#6600CC"/>
<path d="M131.67 242.5L136 235L140.33 242.5H131.67Z" stroke="#6600CC"/>
<path d="M131.67 170.5L136 163L140.33 170.5H131.67Z" stroke="#6600CC"/>
<path d="M131.67 206.5L136 199L140.33 206.5H131.67Z" stroke="#6600CC"/>
<path d="M131.67 134.5L136 127L140.33 134.5H131.67Z" stroke="#6600CC"/>
<path d="M31.6699 242.5L36 235L40.3301 242.5H31.6699Z" stroke="#6600CC"/>
<path d="M31.6699 170.5L36 163L40.3301 170.5H31.6699Z" stroke="#6600CC"/>
<path d="M31.6699 206.5L36 199L40.3301 206.5H31.6699Z" stroke="#6600CC"/>
<path d="M31.6699 134.5L36 127L40.3301 134.5H31.6699Z" stroke="#6600CC"/>
<path d="M111.67 242.5L116 235L120.33 242.5H111.67Z" stroke="#6600CC"/>
<path d="M111.67 170.5L116 163L120.33 170.5H111.67Z" stroke="#6600CC"/>
<path d="M111.67 206.5L116 199L120.33 206.5H111.67Z" stroke="#6600CC"/>
<path d="M111.67 134.5L116 127L120.33 134.5H111.67Z" stroke="#6600CC"/>
<path d="M71.6699 242.5L76 235L80.3301 242.5H71.6699Z" stroke="#6600CC"/>
<path d="M71.6699 170.5L76 163L80.3301 170.5H71.6699Z" stroke="#6600CC"/>
<path d="M71.6699 206.5L76 199L80.3301 206.5H71.6699Z" stroke="#6600CC"/>
<path d="M71.6699 134.5L76 127L80.3301 134.5H71.6699Z" stroke="#6600CC"/>
<path d="M151.67 242.5L156 235L160.33 242.5H151.67Z" stroke="#6600CC"/>
<path d="M151.67 170.5L156 163L160.33 170.5H151.67Z" stroke="#6600CC"/>
<path d="M151.67 206.5L156 199L160.33 206.5H151.67Z" stroke="#6600CC"/>
<path d="M151.67 134.5L156 127L160.33 134.5H151.67Z" stroke="#6600CC"/>
<path d="M20.3301 225.5L16 233L11.6699 225.5L20.3301 225.5Z" stroke="#6600CC"/>
<path d="M20.3301 153.5L16 161L11.6699 153.5L20.3301 153.5Z" stroke="#6600CC"/>
<path d="M20.3301 189.5L16 197L11.6699 189.5L20.3301 189.5Z" stroke="#6600CC"/>
<path d="M20.3301 117.5L16 125L11.6699 117.5L20.3301 117.5Z" stroke="#6600CC"/>
<path d="M100.33 225.5L96 233L91.6699 225.5L100.33 225.5Z" stroke="#6600CC"/>
<path d="M100.33 153.5L96 161L91.6699 153.5L100.33 153.5Z" stroke="#6600CC"/>
<path d="M100.33 189.5L96 197L91.6699 189.5L100.33 189.5Z" stroke="#6600CC"/>
<path d="M100.33 117.5L96 125L91.6699 117.5L100.33 117.5Z" stroke="#6600CC"/>
<path d="M60.3301 225.5L56 233L51.6699 225.5L60.3301 225.5Z" stroke="#6600CC"/>
<path d="M60.3301 153.5L56 161L51.6699 153.5L60.3301 153.5Z" stroke="#6600CC"/>
<path d="M60.3301 189.5L56 197L51.6699 189.5L60.3301 189.5Z" stroke="#6600CC"/>
<path d="M60.3301 117.5L56 125L51.6699 117.5L60.3301 117.5Z" stroke="#6600CC"/>
<path d="M140.33 225.5L136 233L131.67 225.5L140.33 225.5Z" stroke="#6600CC"/>
<path d="M140.33 153.5L136 161L131.67 153.5L140.33 153.5Z" stroke="#6600CC"/>
<path d="M140.33 189.5L136 197L131.67 189.5L140.33 189.5Z" stroke="#6600CC"/>
<path d="M140.33 117.5L136 125L131.67 117.5L140.33 117.5Z" stroke="#6600CC"/>
<path d="M40.3301 225.5L36 233L31.6699 225.5L40.3301 225.5Z" stroke="#6600CC"/>
<path d="M40.3301 153.5L36 161L31.6699 153.5L40.3301 153.5Z" stroke="#6600CC"/>
<path d="M40.3301 189.5L36 197L31.6699 189.5L40.3301 189.5Z" stroke="#6600CC"/>
<path d="M40.3301 117.5L36 125L31.6699 117.5L40.3301 117.5Z" stroke="#6600CC"/>
<path d="M120.33 225.5L116 233L111.67 225.5L120.33 225.5Z" stroke="#6600CC"/>
<path d="M120.33 153.5L116 161L111.67 153.5L120.33 153.5Z" stroke="#6600CC"/>
<path d="M120.33 189.5L116 197L111.67 189.5L120.33 189.5Z" stroke="#6600CC"/>
<path d="M120.33 117.5L116 125L111.67 117.5L120.33 117.5Z" stroke="#6600CC"/>
<path d="M80.3301 225.5L76 233L71.6699 225.5L80.3301 225.5Z" stroke="#6600CC"/>
<path d="M80.3301 153.5L76 161L71.6699 153.5L80.3301 153.5Z" stroke="#6600CC"/>
<path d="M80.3301 189.5L76 197L71.6699 189.5L80.3301 189.5Z" stroke="#6600CC"/>
<path d="M80.3301 117.5L76 125L71.6699 117.5L80.3301 117.5Z" stroke="#6600CC"/>
<path d="M160.33 225.5L156 233L151.67 225.5L160.33 225.5Z" stroke="#6600CC"/>
<path d="M160.33 153.5L156 161L151.67 153.5L160.33 153.5Z" stroke="#6600CC"/>
<path d="M160.33 189.5L156 197L151.67 189.5L160.33 189.5Z" stroke="#6600CC"/>
<path d="M160.33 117.5L156 125L151.67 117.5L160.33 117.5Z" stroke="#6600CC"/>
<path d="M30.3301 243.5L26 251L21.6699 243.5L30.3301 243.5Z" stroke="#6600CC"/>
<path d="M30.3301 171.5L26 179L21.6699 171.5L30.3301 171.5Z" stroke="#6600CC"/>
<path d="M30.3301 207.5L26 215L21.6699 207.5L30.3301 207.5Z" stroke="#6600CC"/>
<path d="M30.3301 135.5L26 143L21.6699 135.5L30.3301 135.5Z" stroke="#6600CC"/>
<path d="M110.33 243.5L106 251L101.67 243.5L110.33 243.5Z" stroke="#6600CC"/>
<path d="M110.33 171.5L106 179L101.67 171.5L110.33 171.5Z" stroke="#6600CC"/>
<path d="M110.33 207.5L106 215L101.67 207.5L110.33 207.5Z" stroke="#6600CC"/>
<path d="M110.33 135.5L106 143L101.67 135.5L110.33 135.5Z" stroke="#6600CC"/>
<path d="M70.3301 243.5L66 251L61.6699 243.5L70.3301 243.5Z" stroke="#6600CC"/>
<path d="M70.3301 171.5L66 179L61.6699 171.5L70.3301 171.5Z" stroke="#6600CC"/>
<path d="M70.3301 207.5L66 215L61.6699 207.5L70.3301 207.5Z" stroke="#6600CC"/>
<path d="M70.3301 135.5L66 143L61.6699 135.5L70.3301 135.5Z" stroke="#6600CC"/>
<path d="M150.33 243.5L146 251L141.67 243.5L150.33 243.5Z" stroke="#6600CC"/>
<path d="M150.33 171.5L146 179L141.67 171.5L150.33 171.5Z" stroke="#6600CC"/>
<path d="M150.33 207.5L146 215L141.67 207.5L150.33 207.5Z" stroke="#6600CC"/>
<path d="M150.33 135.5L146 143L141.67 135.5L150.33 135.5Z" stroke="#6600CC"/>
<path d="M50.3301 243.5L46 251L41.6699 243.5L50.3301 243.5Z" stroke="#6600CC"/>
<path d="M50.3301 171.5L46 179L41.6699 171.5L50.3301 171.5Z" stroke="#6600CC"/>
<path d="M50.3301 207.5L46 215L41.6699 207.5L50.3301 207.5Z" stroke="#6600CC"/>
<path d="M50.3301 135.5L46 143L41.6699 135.5L50.3301 135.5Z" stroke="#6600CC"/>
<path d="M130.33 243.5L126 251L121.67 243.5L130.33 243.5Z" stroke="#6600CC"/>
<path d="M130.33 171.5L126 179L121.67 171.5L130.33 171.5Z" stroke="#6600CC"/>
<path d="M130.33 207.5L126 215L121.67 207.5L130.33 207.5Z" stroke="#6600CC"/>
<path d="M130.33 135.5L126 143L121.67 135.5L130.33 135.5Z" stroke="#6600CC"/>
<path d="M90.3301 243.5L86 251L81.6699 243.5L90.3301 243.5Z" stroke="#6600CC"/>
<path d="M90.3301 171.5L86 179L81.6699 171.5L90.3301 171.5Z" stroke="#6600CC"/>
<path d="M90.3301 207.5L86 215L81.6699 207.5L90.3301 207.5Z" stroke="#6600CC"/>
<path d="M90.3301 135.5L86 143L81.6699 135.5L90.3301 135.5Z" stroke="#6600CC"/>
<path d="M170.33 243.5L166 251L161.67 243.5L170.33 243.5Z" stroke="#6600CC"/>
<path d="M170.33 171.5L166 179L161.67 171.5L170.33 171.5Z" stroke="#6600CC"/>
<path d="M170.33 207.5L166 215L161.67 207.5L170.33 207.5Z" stroke="#6600CC"/>
<path d="M170.33 135.5L166 143L161.67 135.5L170.33 135.5Z" stroke="#6600CC"/>
<path d="M1.66987 224.5L6 217L10.3301 224.5H1.66987Z" stroke="#6600CC"/>
<path d="M1.66987 152.5L6 145L10.3301 152.5H1.66987Z" stroke="#6600CC"/>
<path d="M1.66987 188.5L6 181L10.3301 188.5H1.66987Z" stroke="#6600CC"/>
<path d="M1.66987 116.5L6 109L10.3301 116.5H1.66987Z" stroke="#6600CC"/>
<path d="M81.6699 224.5L86 217L90.3301 224.5H81.6699Z" stroke="#6600CC"/>
<path d="M81.6699 152.5L86 145L90.3301 152.5H81.6699Z" stroke="#6600CC"/>
<path d="M81.6699 188.5L86 181L90.3301 188.5H81.6699Z" stroke="#6600CC"/>
<path d="M81.6699 116.5L86 109L90.3301 116.5H81.6699Z" stroke="#6600CC"/>
<path d="M41.6699 224.5L46 217L50.3301 224.5H41.6699Z" stroke="#6600CC"/>
<path d="M41.6699 152.5L46 145L50.3301 152.5H41.6699Z" stroke="#6600CC"/>
<path d="M41.6699 188.5L46 181L50.3301 188.5H41.6699Z" stroke="#6600CC"/>
<path d="M41.6699 116.5L46 109L50.3301 116.5H41.6699Z" stroke="#6600CC"/>
<path d="M121.67 224.5L126 217L130.33 224.5H121.67Z" stroke="#6600CC"/>
<path d="M121.67 152.5L126 145L130.33 152.5H121.67Z" stroke="#6600CC"/>
<path d="M121.67 188.5L126 181L130.33 188.5H121.67Z" stroke="#6600CC"/>
<path d="M121.67 116.5L126 109L130.33 116.5H121.67Z" stroke="#6600CC"/>
<path d="M21.6699 224.5L26 217L30.3301 224.5H21.6699Z" stroke="#6600CC"/>
<path d="M21.6699 152.5L26 145L30.3301 152.5H21.6699Z" stroke="#6600CC"/>
<path d="M21.6699 188.5L26 181L30.3301 188.5H21.6699Z" stroke="#6600CC"/>
<path d="M21.6699 116.5L26 109L30.3301 116.5H21.6699Z" stroke="#6600CC"/>
<path d="M101.67 224.5L106 217L110.33 224.5H101.67Z" stroke="#6600CC"/>
<path d="M101.67 152.5L106 145L110.33 152.5H101.67Z" stroke="#6600CC"/>
<path d="M101.67 188.5L106 181L110.33 188.5H101.67Z" stroke="#6600CC"/>
<path d="M101.67 116.5L106 109L110.33 116.5H101.67Z" stroke="#6600CC"/>
<path d="M61.6699 224.5L66 217L70.3301 224.5H61.6699Z" stroke="#6600CC"/>
<path d="M61.6699 152.5L66 145L70.3301 152.5H61.6699Z" stroke="#6600CC"/>
<path d="M61.6699 188.5L66 181L70.3301 188.5H61.6699Z" stroke="#6600CC"/>
<path d="M61.6699 116.5L66 109L70.3301 116.5H61.6699Z" stroke="#6600CC"/>
<path d="M141.67 224.5L146 217L150.33 224.5H141.67Z" stroke="#6600CC"/>
<path d="M141.67 152.5L146 145L150.33 152.5H141.67Z" stroke="#6600CC"/>
<path d="M141.67 188.5L146 181L150.33 188.5H141.67Z" stroke="#6600CC"/>
<path d="M141.67 116.5L146 109L150.33 116.5H141.67Z" stroke="#6600CC"/>
</svg>
